<?xml version="1.0" encoding="utf-8"?>
<!-- Generator: Adobe Illustrator 21.1.0, SVG Export Plug-In . SVG Version: 6.00 Build 0)  -->
<svg version="1.1" id="Capa_1" xmlns="http://www.w3.org/2000/svg" xmlns:xlink="http://www.w3.org/1999/xlink" x="0px" y="0px"
	 viewBox="0 0 101.225 91.575" style="enable-background:new 0 0 101.225 91.575;" xml:space="preserve">
<style type="text/css">
	.st0{fill:#F9EEE8;}
	.st1{fill:#FFFFFF;}
	.st2{opacity:0.7;fill:#3B2011;}
	.st3{opacity:0.7;}
	.st4{fill:#A35230;}
	.st5{fill:#513628;}
	.st6{fill:#9F684F;}
	.st7{fill:#C3002F;}
	.st8{fill:#DBC79D;}
	.st9{fill:#CFA175;}
	.st10{fill:#646569;}
	.st11{fill:#369040;}
	
		.st12{opacity:0.7;fill:none;stroke:#FFFFFF;stroke-width:8.2967;stroke-linecap:round;stroke-linejoin:round;stroke-miterlimit:10;}
	.st13{fill:#513528;}
	
		.st14{opacity:0.7;fill:none;stroke:#FFFFFF;stroke-width:4.8855;stroke-linecap:round;stroke-linejoin:round;stroke-miterlimit:10;}
	
		.st15{opacity:0.7;fill:none;stroke:#FFFFFF;stroke-width:4.0904;stroke-linecap:round;stroke-linejoin:round;stroke-miterlimit:10;}
	.st16{opacity:0.7;fill:none;stroke:#FFFFFF;stroke-width:2.225;stroke-linecap:round;stroke-linejoin:round;stroke-miterlimit:10;}
	.st17{fill:#DBC6B4;}
	.st18{fill:#BAA99A;}
	
		.st19{opacity:0.7;fill:none;stroke:#FFFFFF;stroke-width:9.5453;stroke-linecap:round;stroke-linejoin:round;stroke-miterlimit:10;}
	.st20{fill:none;stroke:#369040;stroke-width:5.4545;stroke-miterlimit:10;}
	.st21{fill:#2A8258;}
	.st22{fill:#F7EAE2;}
	.st23{fill:none;}
	.st24{fill:#A55330;}
	.st25{fill:none;stroke:#369040;stroke-width:3.9579;stroke-miterlimit:10;}
	.st26{fill:#010202;}
	.st27{fill:none;stroke:#010202;stroke-width:0.262;stroke-miterlimit:10;}
	.st28{fill:#C31632;}
	.st29{fill:#603726;}
	.st30{fill:none;stroke:#603726;stroke-width:1.2614;stroke-miterlimit:10;}
	.st31{fill:#81A77D;}
	.st32{fill:none;stroke:#369040;stroke-width:3.759;stroke-miterlimit:10;}
	.st33{fill:#414141;}
	.st34{opacity:0.7;fill:#D4C0AB;}
	.st35{fill:#D4C0AB;}
	.st36{opacity:0.7;fill:none;stroke:#796E63;stroke-width:5.012;stroke-linecap:round;stroke-linejoin:round;stroke-miterlimit:10;}
	.st37{opacity:0.7;fill:#796E63;}
	.st38{fill:#796E63;}
	.st39{opacity:0.7;fill:#1C0E08;}
	.st40{fill:none;stroke:#369040;stroke-width:5.7607;stroke-miterlimit:10;}
	.st41{fill:#FFFFFF;stroke:#FFFFFF;stroke-miterlimit:10;}
	.st42{fill:#369040;stroke:#369040;stroke-miterlimit:10;}
	.st43{fill:none;stroke:#369040;stroke-width:1.4402;stroke-miterlimit:10;}
	.st44{fill:#369040;stroke:#FFFFFF;stroke-width:2.9279;stroke-linecap:round;stroke-linejoin:round;stroke-miterlimit:10;}
</style>
<g>
	<path class="st1" d="M63.743,73.148c-4.37-0.004-8.287-1.484-11.965-3.706c-3.683-2.225-6.88-5.047-9.821-8.165
		c-3.588-3.803-6.846-7.859-9.4-12.445c-1.759-3.158-3.131-6.466-3.659-10.062c-0.854-5.821,0.417-11.043,4.647-15.312
		c1.21-1.221,2.565-2.311,3.927-3.367C38.922,18.967,40.5,19,41.934,20.15c0.7,0.562,1.359,1.222,1.883,1.948
		c1.693,2.35,3.398,4.708,4.383,7.471c0.813,2.28,0.499,4.358-1.366,6.037c-0.95,0.856-1.904,1.728-2.956,2.446
		c-2.265,1.548-2.61,3.477-1.733,5.976c0.783,2.23,2.123,4.14,3.57,5.97c1.901,2.403,3.924,4.702,6.309,6.647
		c1.343,1.095,2.755,2.079,4.485,2.478c1.473,0.34,2.732-0.062,3.819-1.092c1.046-0.99,2.072-2.005,3.167-2.939
		c1.946-1.659,4.094-1.878,6.326-0.634c0.989,0.551,1.962,1.168,2.83,1.89c1.53,1.272,2.998,2.623,4.442,3.993
		c0.481,0.457,0.864,1.044,1.198,1.625c0.9,1.566,0.783,3.095-0.517,4.342c-1.754,1.682-3.475,3.423-5.622,4.642
		C69.541,72.432,66.744,73.173,63.743,73.148z"/>
</g>
</svg>
