<?xml version="1.0" encoding="utf-8"?>
<!-- Generator: Adobe Illustrator 21.1.0, SVG Export Plug-In . SVG Version: 6.00 Build 0)  -->
<svg version="1.1" id="Capa_1" xmlns="http://www.w3.org/2000/svg" xmlns:xlink="http://www.w3.org/1999/xlink" x="0px" y="0px"
	 viewBox="0 0 72.197 99.975" style="enable-background:new 0 0 72.197 99.975;" xml:space="preserve">
<style type="text/css">
	.st0{fill:#F9EEE8;}
	.st1{fill:#FFFFFF;}
	.st2{opacity:0.7;fill:#3B2011;}
	.st3{opacity:0.7;}
	.st4{fill:#A35230;}
	.st5{fill:#513628;}
	.st6{fill:#9F684F;}
	.st7{fill:#C3002F;}
	.st8{fill:#DBC79D;}
	.st9{fill:#CFA175;}
	.st10{fill:#646569;}
	.st11{fill:#369040;}
	
		.st12{opacity:0.7;fill:none;stroke:#FFFFFF;stroke-width:8.2967;stroke-linecap:round;stroke-linejoin:round;stroke-miterlimit:10;}
	.st13{fill:#513528;}
	
		.st14{opacity:0.7;fill:none;stroke:#FFFFFF;stroke-width:4.8855;stroke-linecap:round;stroke-linejoin:round;stroke-miterlimit:10;}
	
		.st15{opacity:0.7;fill:none;stroke:#FFFFFF;stroke-width:4.0904;stroke-linecap:round;stroke-linejoin:round;stroke-miterlimit:10;}
	.st16{opacity:0.7;fill:none;stroke:#FFFFFF;stroke-width:2.225;stroke-linecap:round;stroke-linejoin:round;stroke-miterlimit:10;}
	.st17{fill:#DBC6B4;}
	.st18{fill:#BAA99A;}
	
		.st19{opacity:0.7;fill:none;stroke:#FFFFFF;stroke-width:9.5453;stroke-linecap:round;stroke-linejoin:round;stroke-miterlimit:10;}
	.st20{fill:none;stroke:#369040;stroke-width:5.4545;stroke-miterlimit:10;}
	.st21{fill:#2A8258;}
	.st22{fill:#F7EAE2;}
	.st23{fill:none;}
	.st24{fill:#A55330;}
	.st25{fill:none;stroke:#369040;stroke-width:3.9579;stroke-miterlimit:10;}
	.st26{fill:#010202;}
	.st27{fill:none;stroke:#010202;stroke-width:0.262;stroke-miterlimit:10;}
	.st28{fill:#C31632;}
	.st29{fill:#603726;}
	.st30{fill:none;stroke:#603726;stroke-width:1.2614;stroke-miterlimit:10;}
	.st31{fill:#81A77D;}
	.st32{fill:none;stroke:#369040;stroke-width:3.759;stroke-miterlimit:10;}
	.st33{fill:#414141;}
	.st34{opacity:0.7;fill:#D4C0AB;}
	.st35{fill:#D4C0AB;}
	.st36{opacity:0.7;fill:none;stroke:#796E63;stroke-width:5.012;stroke-linecap:round;stroke-linejoin:round;stroke-miterlimit:10;}
	.st37{opacity:0.7;fill:#796E63;}
	.st38{fill:#796E63;}
	.st39{opacity:0.7;fill:#1C0E08;}
	.st40{fill:none;stroke:#369040;stroke-width:5.7607;stroke-miterlimit:10;}
	.st41{fill:#FFFFFF;stroke:#FFFFFF;stroke-miterlimit:10;}
	.st42{fill:#369040;stroke:#369040;stroke-miterlimit:10;}
	.st43{fill:none;stroke:#369040;stroke-width:1.4402;stroke-miterlimit:10;}
	.st44{fill:#369040;stroke:#FFFFFF;stroke-width:2.9279;stroke-linecap:round;stroke-linejoin:round;stroke-miterlimit:10;}
</style>
<g>
	<path class="st1" d="M49.332,27.129c-0.009,0.603-0.024,1.206-0.024,1.81c-0.003,2.491-0.01,4.983,0.009,7.474
		c0.003,0.403-0.114,0.507-0.51,0.506c-1.781-0.005-3.563,0.011-5.343,0.05c-0.416,0.009-0.842,0.098-1.242,0.22
		c-1.022,0.313-1.528,1.089-1.564,2.101c-0.074,2.036-0.065,4.075-0.101,6.113c-0.007,0.377,0.248,0.306,0.462,0.307
		c2.582,0.002,5.164,0.001,7.746,0.001c0.175,0,0.351,0,0.585,0c-0.347,3.294-0.686,6.513-1.029,9.766c-2.584,0-5.13,0-7.736,0
		c0,9.465,0,18.891,0,28.346c-3.568,0-7.076,0-10.625,0c0-9.432,0-18.847,0-28.313c-2.371,0-4.702,0-7.08,0
		c-0.01-0.208-0.023-0.367-0.024-0.526c-0.001-2.914,0.006-5.828-0.009-8.742c-0.002-0.407,0.097-0.542,0.526-0.537
		c2.023,0.022,4.046-0.001,6.069,0.017c0.394,0.004,0.512-0.099,0.514-0.504c0.01-2.626,0.001-5.254,0.092-7.878
		c0.066-1.925,0.465-3.798,1.358-5.536c0.972-1.893,2.486-3.182,4.492-3.821c1.112-0.354,2.289-0.506,3.437-0.749
		c0.161-0.034,0.322-0.069,0.482-0.104C42.99,27.129,46.161,27.129,49.332,27.129z"/>
</g>
</svg>
