<?xml version="1.0" encoding="utf-8"?>
<!-- Generator: Adobe Illustrator 21.1.0, SVG Export Plug-In . SVG Version: 6.00 Build 0)  -->
<svg version="1.1" id="Capa_1" xmlns="http://www.w3.org/2000/svg" xmlns:xlink="http://www.w3.org/1999/xlink" x="0px" y="0px"
	 viewBox="0 0 77.983 83.823" style="enable-background:new 0 0 77.983 83.823;" xml:space="preserve">
<style type="text/css">
	.st0{fill:#F9EEE8;}
	.st1{fill:#FFFFFF;}
	.st2{opacity:0.7;fill:#3B2011;}
	.st3{opacity:0.7;}
	.st4{fill:#A35230;}
	.st5{fill:#513628;}
	.st6{fill:#9F684F;}
	.st7{fill:#C3002F;}
	.st8{fill:#DBC79D;}
	.st9{fill:#CFA175;}
	.st10{fill:#646569;}
	.st11{fill:#369040;}
	
		.st12{opacity:0.7;fill:none;stroke:#FFFFFF;stroke-width:8.2967;stroke-linecap:round;stroke-linejoin:round;stroke-miterlimit:10;}
	.st13{fill:#513528;}
	
		.st14{opacity:0.7;fill:none;stroke:#FFFFFF;stroke-width:4.8855;stroke-linecap:round;stroke-linejoin:round;stroke-miterlimit:10;}
	
		.st15{opacity:0.7;fill:none;stroke:#FFFFFF;stroke-width:4.0904;stroke-linecap:round;stroke-linejoin:round;stroke-miterlimit:10;}
	.st16{opacity:0.7;fill:none;stroke:#FFFFFF;stroke-width:2.225;stroke-linecap:round;stroke-linejoin:round;stroke-miterlimit:10;}
	.st17{fill:#DBC6B4;}
	.st18{fill:#BAA99A;}
	
		.st19{opacity:0.7;fill:none;stroke:#FFFFFF;stroke-width:9.5453;stroke-linecap:round;stroke-linejoin:round;stroke-miterlimit:10;}
	.st20{fill:none;stroke:#369040;stroke-width:5.4545;stroke-miterlimit:10;}
	.st21{fill:#2A8258;}
	.st22{fill:#F7EAE2;}
	.st23{fill:none;}
	.st24{fill:#A55330;}
	.st25{fill:none;stroke:#369040;stroke-width:3.9579;stroke-miterlimit:10;}
	.st26{fill:#010202;}
	.st27{fill:none;stroke:#010202;stroke-width:0.262;stroke-miterlimit:10;}
	.st28{fill:#C31632;}
	.st29{fill:#603726;}
	.st30{fill:none;stroke:#603726;stroke-width:1.2614;stroke-miterlimit:10;}
	.st31{fill:#81A77D;}
	.st32{fill:none;stroke:#369040;stroke-width:3.759;stroke-miterlimit:10;}
	.st33{fill:#414141;}
	.st34{opacity:0.7;fill:#D4C0AB;}
	.st35{fill:#D4C0AB;}
	.st36{opacity:0.7;fill:none;stroke:#796E63;stroke-width:5.012;stroke-linecap:round;stroke-linejoin:round;stroke-miterlimit:10;}
	.st37{opacity:0.7;fill:#796E63;}
	.st38{fill:#796E63;}
	.st39{opacity:0.7;fill:#1C0E08;}
	.st40{fill:none;stroke:#369040;stroke-width:5.7607;stroke-miterlimit:10;}
	.st41{fill:#FFFFFF;stroke:#FFFFFF;stroke-miterlimit:10;}
	.st42{fill:#369040;stroke:#369040;stroke-miterlimit:10;}
	.st43{fill:none;stroke:#369040;stroke-width:1.4402;stroke-miterlimit:10;}
	.st44{fill:#369040;stroke:#FFFFFF;stroke-width:2.9279;stroke-linecap:round;stroke-linejoin:round;stroke-miterlimit:10;}
</style>
<g>
	<path class="st1" d="M70.601,28.383c-1.522,2.249-3.28,4.117-5.37,5.666c-0.351,0.26-0.508,0.532-0.492,0.993
		c0.163,4.483-0.638,8.814-2.231,12.988c-1.648,4.318-4.034,8.19-7.233,11.551c-3.48,3.656-7.571,6.362-12.321,8.073
		c-4.381,1.578-8.898,2.163-13.541,1.955c-3.532-0.159-6.942-0.884-10.24-2.12c-2.1-0.787-4.111-1.78-6.006-3.066
		c6.336,0.519,12.069-1.025,17.224-4.931c-5.421-0.48-9.032-3.181-10.925-8.184c1.709,0.22,3.371,0.162,5.03-0.279
		c-3.652-0.972-6.37-3.086-8.057-6.466c-0.946-1.895-1.251-3.989-1.107-5.245c1.604,0.796,3.259,1.362,5.212,1.388
		c-2.568-1.868-4.228-4.221-4.885-7.212c-0.654-2.98-0.224-5.812,1.29-8.519c6.418,7.533,14.495,11.68,24.369,12.352
		c-0.078-0.755-0.168-1.423-0.212-2.093c-0.314-4.773,2.478-9.437,6.847-11.348c4.163-1.821,8.143-1.402,11.89,1.152
		c0.503,0.343,0.941,0.785,1.39,1.201c0.21,0.195,0.396,0.265,0.695,0.196c2.256-0.52,4.42-1.273,6.438-2.422
		c0.18-0.102,0.375-0.179,0.662-0.314c-0.918,2.744-2.572,4.778-4.873,6.316c0.012,0.042,0.024,0.084,0.036,0.126
		c0.702-0.126,1.41-0.225,2.104-0.385c0.717-0.165,1.426-0.371,2.127-0.595C69.119,28.939,69.802,28.671,70.601,28.383z"/>
</g>
</svg>
