<?xml version="1.0" encoding="utf-8"?>
<!-- Generator: Adobe Illustrator 21.1.0, SVG Export Plug-In . SVG Version: 6.00 Build 0)  -->
<svg version="1.1" id="Capa_1" xmlns="http://www.w3.org/2000/svg" xmlns:xlink="http://www.w3.org/1999/xlink" x="0px" y="0px"
	 viewBox="0 0 78.497 91.575" style="enable-background:new 0 0 78.497 91.575;" xml:space="preserve">
<style type="text/css">
	.st0{fill:#F9EEE8;}
	.st1{fill:#FFFFFF;}
	.st2{opacity:0.7;fill:#3B2011;}
	.st3{opacity:0.7;}
	.st4{fill:#A35230;}
	.st5{fill:#513628;}
	.st6{fill:#9F684F;}
	.st7{fill:#C3002F;}
	.st8{fill:#DBC79D;}
	.st9{fill:#CFA175;}
	.st10{fill:#646569;}
	.st11{fill:#369040;}
	
		.st12{opacity:0.7;fill:none;stroke:#FFFFFF;stroke-width:8.2967;stroke-linecap:round;stroke-linejoin:round;stroke-miterlimit:10;}
	.st13{fill:#513528;}
	
		.st14{opacity:0.7;fill:none;stroke:#FFFFFF;stroke-width:4.8855;stroke-linecap:round;stroke-linejoin:round;stroke-miterlimit:10;}
	
		.st15{opacity:0.7;fill:none;stroke:#FFFFFF;stroke-width:4.0904;stroke-linecap:round;stroke-linejoin:round;stroke-miterlimit:10;}
	.st16{opacity:0.7;fill:none;stroke:#FFFFFF;stroke-width:2.225;stroke-linecap:round;stroke-linejoin:round;stroke-miterlimit:10;}
	.st17{fill:#DBC6B4;}
	.st18{fill:#BAA99A;}
	
		.st19{opacity:0.7;fill:none;stroke:#FFFFFF;stroke-width:9.5453;stroke-linecap:round;stroke-linejoin:round;stroke-miterlimit:10;}
	.st20{fill:none;stroke:#369040;stroke-width:5.4545;stroke-miterlimit:10;}
	.st21{fill:#2A8258;}
	.st22{fill:#F7EAE2;}
	.st23{fill:none;}
	.st24{fill:#A55330;}
	.st25{fill:none;stroke:#369040;stroke-width:3.9579;stroke-miterlimit:10;}
	.st26{fill:#010202;}
	.st27{fill:none;stroke:#010202;stroke-width:0.262;stroke-miterlimit:10;}
	.st28{fill:#C31632;}
	.st29{fill:#603726;}
	.st30{fill:none;stroke:#603726;stroke-width:1.2614;stroke-miterlimit:10;}
	.st31{fill:#81A77D;}
	.st32{fill:none;stroke:#369040;stroke-width:3.759;stroke-miterlimit:10;}
	.st33{fill:#414141;}
	.st34{opacity:0.7;fill:#D4C0AB;}
	.st35{fill:#D4C0AB;}
	.st36{opacity:0.7;fill:none;stroke:#796E63;stroke-width:5.012;stroke-linecap:round;stroke-linejoin:round;stroke-miterlimit:10;}
	.st37{opacity:0.7;fill:#796E63;}
	.st38{fill:#796E63;}
	.st39{opacity:0.7;fill:#1C0E08;}
	.st40{fill:none;stroke:#369040;stroke-width:5.7607;stroke-miterlimit:10;}
	.st41{fill:#FFFFFF;stroke:#FFFFFF;stroke-miterlimit:10;}
	.st42{fill:#369040;stroke:#369040;stroke-miterlimit:10;}
	.st43{fill:none;stroke:#369040;stroke-width:1.4402;stroke-miterlimit:10;}
	.st44{fill:#369040;stroke:#FFFFFF;stroke-width:2.9279;stroke-linecap:round;stroke-linejoin:round;stroke-miterlimit:10;}
</style>
<g>
	<g>
		<path class="st1" d="M60.362,46.206c-0.058,3.31-0.083,6.62-0.184,9.928c-0.093,3.047-0.699,5.977-2.478,8.534
			c-2.116,3.042-5.092,4.727-8.706,5.337c-2.664,0.449-5.359,0.427-8.047,0.436c-4.179,0.014-8.358,0.023-12.536-0.036
			c-2.544-0.036-5.098-0.116-7.543-0.967c-4.685-1.631-7.445-4.949-8.489-9.748c-0.477-2.192-0.507-4.428-0.521-6.655
			c-0.032-4.816-0.036-9.632,0.017-14.448c0.028-2.543,0.109-5.098,0.954-7.544c1.626-4.709,4.951-7.482,9.773-8.528
			c2.175-0.472,4.393-0.504,6.602-0.519c4.833-0.033,9.668-0.039,14.501,0.016c2.56,0.029,5.131,0.116,7.593,0.976
			c4.665,1.63,7.492,4.925,8.424,9.718c0.422,2.171,0.467,4.426,0.554,6.648c0.089,2.281,0.02,4.567,0.02,6.851
			C60.317,46.205,60.34,46.205,60.362,46.206z M36.131,26.259c-0.001,0.032-0.001,0.063-0.002,0.095
			c-2.054,0-4.109-0.053-6.16,0.015c-2.065,0.069-4.149,0.108-6.183,0.428c-3.615,0.568-5.996,2.664-6.962,6.261
			c-0.52,1.936-0.523,3.922-0.557,5.899c-0.057,3.292-0.095,6.585-0.051,9.877c0.04,3.005,0.052,6.023,0.341,9.01
			c0.39,4.028,2.719,6.802,6.748,7.709c2.194,0.494,4.431,0.46,6.654,0.492c4.071,0.058,8.144,0.06,12.215-0.002
			c2.064-0.032,4.148-0.107,6.183-0.424c3.522-0.547,5.944-2.554,6.884-6.061c0.349-1.301,0.521-2.68,0.556-4.029
			c0.105-4.104,0.154-8.212,0.128-12.317c-0.019-2.881-0.1-5.768-0.331-8.639c-0.198-2.462-1.222-4.599-3.252-6.145
			c-1.653-1.258-3.578-1.776-5.6-1.864C43.207,26.411,39.668,26.356,36.131,26.259z"/>
		<path class="st1" d="M48.518,46.243c-0.001,6.895-5.544,12.413-12.469,12.412c-6.944-0.001-12.43-5.548-12.425-12.562
			c0.006-6.848,5.59-12.336,12.548-12.331C43.009,33.765,48.519,39.335,48.518,46.243z M44.147,46.221
			c0.009-4.422-3.642-8.086-8.061-8.089c-4.43-0.003-8.08,3.634-8.09,8.061c-0.01,4.422,3.634,8.079,8.061,8.09
			C40.477,54.295,44.137,50.647,44.147,46.221z"/>
		<path class="st1" d="M49.049,30.362c1.647,0.011,2.881,1.284,2.868,2.957c-0.012,1.59-1.342,2.904-2.919,2.886
			c-1.61-0.019-2.946-1.371-2.924-2.96C46.096,31.624,47.41,30.351,49.049,30.362z"/>
	</g>
</g>
</svg>
