<?xml version="1.0" encoding="utf-8"?>
<!-- Generator: Adobe Illustrator 21.1.0, SVG Export Plug-In . SVG Version: 6.00 Build 0)  -->
<svg version="1.1" id="Capa_1" xmlns="http://www.w3.org/2000/svg" xmlns:xlink="http://www.w3.org/1999/xlink" x="0px" y="0px"
	 viewBox="0 0 1599.265 606.922" style="enable-background:new 0 0 1599.265 606.922;" xml:space="preserve">
<style type="text/css">
	.st0{fill:#F9EEE8;}
	.st1{fill:#FFFFFF;}
	.st2{opacity:0.7;fill:#3B2011;}
	.st3{opacity:0.7;}
	.st4{fill:#A35230;}
	.st5{fill:#513628;}
	.st6{fill:#9F684F;}
	.st7{fill:#C3002F;}
	.st8{fill:#DBC79D;}
	.st9{fill:#CFA175;}
	.st10{fill:#646569;}
	.st11{fill:#369040;}
	
		.st12{opacity:0.7;fill:none;stroke:#FFFFFF;stroke-width:8.2967;stroke-linecap:round;stroke-linejoin:round;stroke-miterlimit:10;}
	.st13{fill:#513528;}
	
		.st14{opacity:0.7;fill:none;stroke:#FFFFFF;stroke-width:4.8855;stroke-linecap:round;stroke-linejoin:round;stroke-miterlimit:10;}
	
		.st15{opacity:0.7;fill:none;stroke:#FFFFFF;stroke-width:4.0904;stroke-linecap:round;stroke-linejoin:round;stroke-miterlimit:10;}
	.st16{opacity:0.7;fill:none;stroke:#FFFFFF;stroke-width:2.225;stroke-linecap:round;stroke-linejoin:round;stroke-miterlimit:10;}
	.st17{fill:#DBC6B4;}
	.st18{fill:#BAA99A;}
	
		.st19{opacity:0.7;fill:none;stroke:#FFFFFF;stroke-width:9.5453;stroke-linecap:round;stroke-linejoin:round;stroke-miterlimit:10;}
	.st20{fill:none;stroke:#369040;stroke-width:5.4545;stroke-miterlimit:10;}
	.st21{fill:#2A8258;}
	.st22{fill:#F7EAE2;}
	.st23{fill:none;}
	.st24{fill:#A55330;}
	.st25{fill:none;stroke:#369040;stroke-width:3.9579;stroke-miterlimit:10;}
	.st26{fill:#010202;}
	.st27{fill:none;stroke:#010202;stroke-width:0.262;stroke-miterlimit:10;}
	.st28{fill:#C31632;}
	.st29{fill:#603726;}
	.st30{fill:none;stroke:#603726;stroke-width:1.2614;stroke-miterlimit:10;}
	.st31{fill:#81A77D;}
	.st32{fill:none;stroke:#369040;stroke-width:3.759;stroke-miterlimit:10;}
	.st33{fill:#414141;}
	.st34{opacity:0.7;fill:#D4C0AB;}
	.st35{fill:#D4C0AB;}
	.st36{opacity:0.7;fill:none;stroke:#796E63;stroke-width:5.012;stroke-linecap:round;stroke-linejoin:round;stroke-miterlimit:10;}
	.st37{opacity:0.7;fill:#796E63;}
	.st38{fill:#796E63;}
	.st39{opacity:0.7;fill:#1C0E08;}
	.st40{fill:none;stroke:#369040;stroke-width:5.7607;stroke-miterlimit:10;}
	.st41{fill:#FFFFFF;stroke:#FFFFFF;stroke-miterlimit:10;}
	.st42{fill:#369040;stroke:#369040;stroke-miterlimit:10;}
	.st43{fill:none;stroke:#369040;stroke-width:1.4402;stroke-miterlimit:10;}
	.st44{fill:#369040;stroke:#FFFFFF;stroke-width:2.9279;stroke-linecap:round;stroke-linejoin:round;stroke-miterlimit:10;}
</style>
<path class="st1" d="M1390.457,205.802c-6.522,2.583-15.653,14.151-15.653,14.151s-26.088,32.351-63.915,28.476
	s-9.131-7.75-48.262,10.333c-39.131,18.084-129.134,14.209-159.135,1.292c-30.001-12.918-81.918-47.249-92.353-74.374
	c-10.435-27.126-112.569,12.749-130.831,26.958c-18.261,14.208-89.357,13.56-98.488,16.144
	c-9.131,2.583-116.602,49.356-142.69,50.648c-26.088,1.292-105.655-27.126-105.655-27.126s-9.131-20.667-14.348-21.959
	c-5.218-1.292-3.913-16.792-16.957-28.418c-13.044-11.625-105.655-29.709-123.917-54.252
	c-18.261-24.542-161.744-42.627-206.093-63.409c-44.349-20.782-56.089-7.636-69.132-6.344C93.684,78.847,33.432,67.842,0,61.524
	v459.585c31.971-7.345,202.828-50.693,208.796-53.057c6.522-2.583,15.653-14.152,15.653-14.152s26.088-32.351,63.915-28.475
	c37.827,3.875,9.131,7.75,48.262-10.334c39.132-18.084,129.134-14.209,159.135-1.292c30.001,12.917,81.918,47.248,92.353,74.374
	c10.435,27.126,134.259,11.319,152.521-2.89c18.261-14.209,67.667-37.628,76.797-40.211c9.131-2.584,121.221-33.671,147.308-34.962
	c26.088-1.292,101.037,11.44,101.037,11.44s9.131,20.667,14.348,21.96c5.218,1.292,3.913,16.792,16.957,28.417
	s105.655,29.709,123.917,54.252c18.261,24.543,138.844-6.858,187.116-15.134c45.117-7.735,52.369,40.461,116.029,30.346
	c35.121-5.581,60.413-6.73,75.12-6.75V152.742C1567.324,160.079,1396.425,203.438,1390.457,205.802z"/>
</svg>
