<?xml version="1.0" encoding="utf-8"?>
<!-- Generator: Adobe Illustrator 21.1.0, SVG Export Plug-In . SVG Version: 6.00 Build 0)  -->
<svg version="1.1" id="Capa_1" xmlns="http://www.w3.org/2000/svg" xmlns:xlink="http://www.w3.org/1999/xlink" x="0px" y="0px"
	 viewBox="0 0 84.36 84.07" style="enable-background:new 0 0 84.36 84.07;" xml:space="preserve">
<style type="text/css">
	.st0{opacity:0.7;fill:#3B2011;}
	.st1{opacity:0.7;}
	.st2{fill:#A35230;}
	.st3{fill:#513628;}
	.st4{fill:#9F684F;}
	.st5{fill:#C3002F;}
	.st6{fill:#DBC79D;}
	.st7{fill:#CFA175;}
	.st8{fill:#646569;}
	.st9{fill:#FFFFFF;}
	.st10{fill:#369040;}
	
		.st11{opacity:0.7;fill:none;stroke:#FFFFFF;stroke-width:8.2967;stroke-linecap:round;stroke-linejoin:round;stroke-miterlimit:10;}
	.st12{fill:#513528;}
	
		.st13{opacity:0.7;fill:none;stroke:#FFFFFF;stroke-width:4.8855;stroke-linecap:round;stroke-linejoin:round;stroke-miterlimit:10;}
	
		.st14{opacity:0.7;fill:none;stroke:#FFFFFF;stroke-width:4.0904;stroke-linecap:round;stroke-linejoin:round;stroke-miterlimit:10;}
	.st15{opacity:0.7;fill:none;stroke:#FFFFFF;stroke-width:2.225;stroke-linecap:round;stroke-linejoin:round;stroke-miterlimit:10;}
	.st16{fill:#DBC6B4;}
	.st17{fill:#BAA99A;}
	
		.st18{opacity:0.7;fill:none;stroke:#FFFFFF;stroke-width:9.5453;stroke-linecap:round;stroke-linejoin:round;stroke-miterlimit:10;}
	.st19{fill:none;stroke:#369040;stroke-width:5.4545;stroke-miterlimit:10;}
	.st20{fill:#2A8258;}
	.st21{fill:#F7EAE2;}
	.st22{fill:none;}
	.st23{fill:#A55330;}
	.st24{fill:none;stroke:#369040;stroke-width:3.9579;stroke-miterlimit:10;}
	.st25{clip-path:url(#SVGID_12_);}
	.st26{fill:#010202;}
	.st27{fill:none;stroke:#010202;stroke-width:0.2619;stroke-miterlimit:10;}
	.st28{fill:#C31632;}
	.st29{fill:#603726;}
	.st30{fill:none;stroke:#603726;stroke-width:1.2614;stroke-miterlimit:10;}
	.st31{fill:#81A77D;}
	.st32{fill:#F9EEE8;}
	.st33{fill:none;stroke:#369040;stroke-width:3.759;stroke-miterlimit:10;}
	.st34{fill:#414141;}
	.st35{opacity:0.7;fill:#D4C0AB;}
	.st36{fill:#D4C0AB;}
	.st37{opacity:0.7;fill:none;stroke:#796E63;stroke-width:5.012;stroke-linecap:round;stroke-linejoin:round;stroke-miterlimit:10;}
	.st38{opacity:0.7;fill:#796E63;}
	.st39{fill:#796E63;}
	.st40{opacity:0.7;fill:#1C0E08;}
	.st41{fill:none;stroke:#369040;stroke-width:5.7607;stroke-miterlimit:10;}
	.st42{fill:#FFFFFF;stroke:#FFFFFF;stroke-miterlimit:10;}
	.st43{fill:#369040;stroke:#369040;stroke-miterlimit:10;}
	.st44{fill:none;stroke:#369040;stroke-width:1.4402;stroke-miterlimit:10;}
	.st45{fill:#369040;stroke:#FFFFFF;stroke-width:2.9279;stroke-linecap:round;stroke-linejoin:round;stroke-miterlimit:10;}
</style>
<g>
	<circle class="st10" cx="40.102" cy="40.872" r="39.289"/>
	<path class="st9" d="M40.696,46.669h-0.029c0.004,0.022,0.008,0.046,0.011,0.067C40.684,46.715,40.69,46.691,40.696,46.669z"/>
	<ellipse class="st22" cx="41.304" cy="27.275" rx="2.827" ry="2.658"/>
	<g>
		<path class="st9" d="M44.524,27.275c0-1.669-1.444-3.027-3.219-3.027c-1.775,0-3.22,1.358-3.22,3.027
			c0,1.669,1.445,3.027,3.22,3.027C43.079,30.302,44.524,28.944,44.524,27.275z M39.005,27.275c0-1.192,1.031-2.161,2.299-2.161
			c1.267,0,2.298,0.969,2.298,2.161c0,1.191-1.031,2.161-2.298,2.161C40.037,29.436,39.005,28.467,39.005,27.275z"/>
		<path class="st9" d="M38.192,24.962c0.09,0.084,0.208,0.127,0.326,0.127c0.118,0,0.236-0.042,0.326-0.127
			c0.18-0.169,0.18-0.443,0-0.612l-1.102-1.036c-0.18-0.169-0.471-0.169-0.651,0c-0.18,0.169-0.18,0.443,0,0.612L38.192,24.962z"/>
		<path class="st9" d="M44.416,29.588c-0.18-0.169-0.471-0.169-0.651,0c-0.18,0.169-0.18,0.443,0,0.612l1.101,1.036
			c0.09,0.084,0.208,0.127,0.326,0.127c0.118,0,0.236-0.042,0.325-0.127c0.18-0.169,0.18-0.443,0-0.612L44.416,29.588z"/>
		<path class="st9" d="M38.128,29.649l-1.038,0.975c-0.18,0.169-0.18,0.443,0,0.612c0.09,0.084,0.208,0.127,0.326,0.127
			c0.118,0,0.236-0.042,0.326-0.127l1.037-0.975c0.18-0.169,0.18-0.443,0-0.612C38.599,29.48,38.308,29.48,38.128,29.649z"/>
		<path class="st9" d="M44.09,25.089c0.118,0,0.236-0.042,0.325-0.127l1.102-1.036c0.18-0.169,0.18-0.443,0-0.612
			c-0.18-0.169-0.471-0.169-0.651,0l-1.102,1.036c-0.18,0.169-0.18,0.443,0,0.612C43.854,25.047,43.972,25.089,44.09,25.089z"/>
		<path class="st9" d="M44.784,27.275c0,0.239,0.206,0.433,0.461,0.433h1.558c0.254,0,0.461-0.194,0.461-0.433
			c0-0.239-0.206-0.433-0.461-0.433h-1.558C44.99,26.842,44.784,27.036,44.784,27.275z"/>
		<path class="st9" d="M37.824,27.275c0-0.239-0.206-0.433-0.461-0.433h-1.558c-0.254,0-0.461,0.194-0.461,0.433
			c0,0.239,0.206,0.433,0.461,0.433h1.558C37.618,27.708,37.824,27.514,37.824,27.275z"/>
		<path class="st9" d="M41.304,30.546c-0.254,0-0.461,0.194-0.461,0.433v1.465c0,0.239,0.206,0.433,0.461,0.433
			c0.254,0,0.461-0.194,0.461-0.433v-1.465C41.765,30.74,41.558,30.546,41.304,30.546z"/>
		<path class="st9" d="M41.304,24.194c0.254,0,0.461-0.194,0.461-0.433v-1.655c0-0.239-0.206-0.433-0.461-0.433
			c-0.254,0-0.461,0.194-0.461,0.433v1.655C40.844,24.001,41.05,24.194,41.304,24.194z"/>
	</g>
	<path class="st9" d="M19.377,38.443c1.767-3.823,4.874-8.38,9.638-8.38c6.634,0,9.182,8.712,10.094,13.651h1.551h0.006
		c-0.289-1.619-0.755-3.67-1.496-5.741c-2.173-6.071-5.685-9.279-10.155-9.279c-4.44,0-8.261,3.191-11.052,9.226
		c-0.542,1.172-0.994,1.72-1.368,2.805V21.63c0-0.992,0.833-1.8,1.858-1.8h9.508h1.698h32.407c1.024,0,1.858,0.807,1.858,1.8v16.109
		c-2.179-5.918-5.656-9.046-10.069-9.046c-4.44,0-8.261,3.191-11.052,9.226c-0.968,2.094-1.652,4.167-2.109,5.794h0.001h1.583
		c0.442-1.527,1.074-3.4,1.939-5.27c1.767-3.823,4.874-8.38,9.638-8.38c6.572,0,9.135,8.553,10.069,13.514v0.136h0.014h1.516V43.42
		V21.63c0-1.747-1.52-3.169-3.387-3.169H28.923h-1.698h-8.77c-1.868,0-3.387,1.422-3.387,3.169v22.084H16.5
		C17.439,42.184,18.513,40.313,19.377,38.443z"/>
	<rect x="15.066" y="46.935" class="st9" width="50.388" height="12.811"/>
	<path class="st44" d="M15.066,51.517c0,0,5.445-4.101,15.653,0c3.144,1.263,6.566,1.994,9.962,1.791
		c2.674-0.16,4.782-1.235,7.268-1.953c2.702-0.78,5.61-1.018,8.405-0.702c1.411,0.159,2.838,0.437,4.158,0.982
		c1.526,0.63,3.468,2.445,4.943,0.702"/>
	<path class="st44" d="M15.066,48.526c0,0,5.445-4.101,15.653,0c3.144,1.263,6.566,1.994,9.962,1.791
		c2.674-0.16,4.782-1.235,7.268-1.953c2.702-0.78,5.61-1.018,8.405-0.702c1.411,0.159,2.838,0.437,4.158,0.982
		c1.526,0.63,3.468,2.445,4.943,0.702"/>
	<path class="st44" d="M15.066,54.286c0,0,5.445-4.101,15.653,0c3.144,1.263,6.566,1.994,9.962,1.791
		c2.674-0.16,4.782-1.235,7.268-1.953c2.702-0.78,5.61-1.018,8.405-0.702c1.411,0.159,2.838,0.437,4.158,0.982
		c1.526,0.63,3.468,2.445,4.943,0.702"/>
	<path class="st44" d="M15.066,56.861c0,0,5.445-4.101,15.653,0c3.144,1.263,6.566,1.994,9.962,1.791
		c2.674-0.16,4.782-1.235,7.268-1.953c2.702-0.78,5.61-1.018,8.405-0.702c1.411,0.159,2.838,0.437,4.158,0.982
		c1.526,0.63,3.468,2.445,4.943,0.702"/>
</g>
</svg>
