<?xml version="1.0" encoding="utf-8"?>
<!-- Generator: Adobe Illustrator 21.1.0, SVG Export Plug-In . SVG Version: 6.00 Build 0)  -->
<svg version="1.1" id="Capa_1" xmlns="http://www.w3.org/2000/svg" xmlns:xlink="http://www.w3.org/1999/xlink" x="0px" y="0px"
	 viewBox="0 0 84.36 84.07" style="enable-background:new 0 0 84.36 84.07;" xml:space="preserve">
<style type="text/css">
	.st0{opacity:0.7;fill:#3B2011;}
	.st1{opacity:0.7;}
	.st2{fill:#A35230;}
	.st3{fill:#513628;}
	.st4{fill:#9F684F;}
	.st5{fill:#C3002F;}
	.st6{fill:#DBC79D;}
	.st7{fill:#CFA175;}
	.st8{fill:#646569;}
	.st9{fill:#FFFFFF;}
	.st10{fill:#369040;}
	
		.st11{opacity:0.7;fill:none;stroke:#FFFFFF;stroke-width:8.2967;stroke-linecap:round;stroke-linejoin:round;stroke-miterlimit:10;}
	.st12{fill:#513528;}
	
		.st13{opacity:0.7;fill:none;stroke:#FFFFFF;stroke-width:4.8855;stroke-linecap:round;stroke-linejoin:round;stroke-miterlimit:10;}
	
		.st14{opacity:0.7;fill:none;stroke:#FFFFFF;stroke-width:4.0904;stroke-linecap:round;stroke-linejoin:round;stroke-miterlimit:10;}
	.st15{opacity:0.7;fill:none;stroke:#FFFFFF;stroke-width:2.225;stroke-linecap:round;stroke-linejoin:round;stroke-miterlimit:10;}
	.st16{fill:#DBC6B4;}
	.st17{fill:#BAA99A;}
	
		.st18{opacity:0.7;fill:none;stroke:#FFFFFF;stroke-width:9.5453;stroke-linecap:round;stroke-linejoin:round;stroke-miterlimit:10;}
	.st19{fill:none;stroke:#369040;stroke-width:5.4545;stroke-miterlimit:10;}
	.st20{fill:#2A8258;}
	.st21{fill:#F7EAE2;}
	.st22{fill:none;}
	.st23{fill:#A55330;}
	.st24{fill:none;stroke:#369040;stroke-width:3.9579;stroke-miterlimit:10;}
	.st25{clip-path:url(#SVGID_12_);}
	.st26{fill:#010202;}
	.st27{fill:none;stroke:#010202;stroke-width:0.2619;stroke-miterlimit:10;}
	.st28{fill:#C31632;}
	.st29{fill:#603726;}
	.st30{fill:none;stroke:#603726;stroke-width:1.2614;stroke-miterlimit:10;}
	.st31{fill:#81A77D;}
	.st32{fill:#F9EEE8;}
	.st33{fill:none;stroke:#369040;stroke-width:3.759;stroke-miterlimit:10;}
	.st34{fill:#414141;}
	.st35{opacity:0.7;fill:#D4C0AB;}
	.st36{fill:#D4C0AB;}
	.st37{opacity:0.7;fill:none;stroke:#796E63;stroke-width:5.012;stroke-linecap:round;stroke-linejoin:round;stroke-miterlimit:10;}
	.st38{opacity:0.7;fill:#796E63;}
	.st39{fill:#796E63;}
	.st40{opacity:0.7;fill:#1C0E08;}
	.st41{fill:none;stroke:#369040;stroke-width:5.7607;stroke-miterlimit:10;}
	.st42{fill:#FFFFFF;stroke:#FFFFFF;stroke-miterlimit:10;}
	.st43{fill:#369040;stroke:#369040;stroke-miterlimit:10;}
	.st44{fill:none;stroke:#369040;stroke-width:1.4402;stroke-miterlimit:10;}
	.st45{fill:#369040;stroke:#FFFFFF;stroke-width:2.9279;stroke-linecap:round;stroke-linejoin:round;stroke-miterlimit:10;}
</style>
<g>
	<circle class="st10" cx="41.373" cy="40.352" r="39.289"/>
	<path class="st9" d="M51.455,53.468v8.798c0,0.934,0.525,1.689,1.174,1.689c0.649,0,1.174-0.756,1.174-1.689v-9.543
		C52.938,53.432,51.916,53.485,51.455,53.468z"/>
	<path class="st9" d="M44.435,61.651c0,1.274,0.538,2.304,1.202,2.304s1.202-1.03,1.202-2.304V50.565
		c-0.894-0.128-1.801-0.514-2.404-0.817V61.651z"/>
	<path class="st9" d="M28.079,51.131v10.693c0,0.898,0.532,1.624,1.189,1.624s1.189-0.727,1.189-1.624V51.602
		C29.484,51.769,28.701,51.549,28.079,51.131z"/>
	<circle class="st22" cx="63.905" cy="41.345" r="1.003"/>
	<path class="st42" d="M74.971,46.982L58.303,32.342l-0.006,0.028c3.125,3.351,6.352,6.003,4.263,13.635
		c-0.185,0.676-0.493,1.481-1.214,2.518c-0.362,0.52-0.539,0.802-0.759,1.226l10.688-0.126L74.971,46.982z"/>
	<path class="st9" d="M30.766,30.329c0.002,0.027,0.002,0.054,0.004,0.082c0.043,0.616,0.58,1.114,1.198,1.109
		c0.619-0.005,1.086-0.51,1.043-1.127c-0.001-0.017-0.001-0.034-0.002-0.05c-0.232-0.03-0.466-0.055-0.702-0.068
		C31.78,30.243,31.266,30.264,30.766,30.329z"/>
	<path class="st9" d="M41.78,44.724c0.33-0.992,0.53-2.039,0.585-3.121C41.969,42.624,41.773,43.679,41.78,44.724z"/>
	<path class="st9" d="M52.712,30.264c-0.235,0.573,0.049,1.199,0.635,1.398c0.139,0.047,0.274,0.099,0.409,0.151
		c0.076-0.173,0.147-0.349,0.21-0.527l-0.804-1.557C52.966,29.856,52.804,30.038,52.712,30.264z"/>
	<path class="st9" d="M53.163,29.729l0.804,1.557c0.188-0.525,0.323-1.072,0.402-1.634c-0.057-0.02-0.112-0.043-0.17-0.063
		C53.844,29.468,53.462,29.534,53.163,29.729z"/>
	<path class="st22" d="M33.521,25.19c-0.928,1.561-1.473,3.272-1.648,5.027c0.594-0.051,1.197-0.047,1.802,0.018
		c1.975,0.211,3.783,1.036,5.229,2.343c-0.089-0.241-0.167-0.487-0.231-0.739c-0.821-3.226,1.137-6.518,4.363-7.338
		c0.859-0.219,1.739-0.2,2.569,0.034c-2.405-1.747-5.194-2.907-8.19-3.371C35.841,22.174,34.505,23.535,33.521,25.19z"/>
	<path class="st9" d="M41.312,35.849c-0.375-0.775-0.83-1.516-1.384-2.202c-0.313-0.389-0.66-0.74-1.024-1.068
		c-1.446-1.307-3.254-2.131-5.229-2.343c-0.605-0.065-1.208-0.069-1.802-0.018c-0.505,0.043-1.002,0.136-1.49,0.26
		c-1.278,0.326-2.485,0.915-3.541,1.768c-1.593,1.285-2.591,3.114-2.809,5.149c-0.218,2.036,0.37,4.034,1.655,5.628
		c2.199,2.725,6.204,3.155,8.928,0.956c1.102-0.888,1.792-2.153,1.943-3.56c0.15-1.408-0.256-2.79-1.144-3.891
		c-0.748-0.927-1.811-1.507-2.996-1.634c-0.091-0.01-0.182-0.012-0.272-0.017c-0.439-0.022-0.872,0.021-1.289,0.126
		c-0.618,0.156-1.202,0.441-1.712,0.853c-0.787,0.635-1.28,1.538-1.387,2.544c-0.108,1.005,0.182,1.993,0.817,2.78
		c0.379,0.471,1.068,0.545,1.54,0.165c0.471-0.38,0.545-1.069,0.165-1.54c-0.268-0.332-0.391-0.749-0.345-1.172
		c0.046-0.423,0.253-0.804,0.585-1.072c0.472-0.379,1.064-0.555,1.666-0.49c0.602,0.065,1.143,0.36,1.524,0.831
		c0.521,0.647,0.76,1.457,0.672,2.283c-0.088,0.826-0.493,1.567-1.14,2.089c-0.865,0.698-1.949,1.015-3.055,0.898
		c-1.104-0.118-2.097-0.66-2.795-1.524c-0.918-1.138-1.338-2.566-1.183-4.02c0.156-1.454,0.868-2.76,2.006-3.678
		c0.668-0.538,1.415-0.937,2.204-1.203c0.465-0.156,0.943-0.265,1.433-0.322c0.522-0.06,1.054-0.07,1.589-0.012
		c1.89,0.202,3.588,1.129,4.781,2.608c3.174,3.935,2.555,9.719-1.379,12.893c-5.038,4.063-12.44,3.27-16.501-1.766
		c-2.506-3.107-3.652-7.003-3.227-10.972c0.425-3.969,2.37-7.535,5.476-10.04c3.611-2.912,8.063-4.376,12.656-4.182
		c0.888-0.745,1.861-1.384,2.916-1.882c-0.471-0.082-0.944-0.155-1.423-0.206c-5.615-0.602-11.128,1.021-15.523,4.565
		c-7.353,5.931-8.51,16.738-2.58,24.091c2.748,3.407,6.783,5.177,10.852,5.177c3.07-0.001,6.159-1.008,8.729-3.08
		c2.362-1.905,3.84-4.615,4.163-7.632C42.61,39.847,42.227,37.739,41.312,35.849z"/>
	<path class="st9" d="M61.881,35.548c-1.677-2.944-4.332-5.106-7.519-6.178c-0.053,0.492-0.142,0.975-0.273,1.446
		c2.761,0.979,5.059,2.884,6.524,5.455c1.617,2.838,2.032,6.135,1.168,9.285c-0.68,2.482-2.286,4.551-4.522,5.825
		c-2.238,1.275-4.837,1.6-7.317,0.92c-1.948-0.534-3.572-1.794-4.572-3.549c-0.999-1.755-1.256-3.794-0.722-5.742
		c0.861-3.14,4.121-4.992,7.254-4.133c2.434,0.667,3.872,3.189,3.204,5.623c-0.513,1.87-2.451,2.974-4.319,2.462
		c-0.687-0.188-1.26-0.633-1.613-1.252s-0.443-1.338-0.255-2.025c0.14-0.512,0.471-0.939,0.932-1.201
		c0.461-0.263,0.998-0.332,1.509-0.19c0.768,0.21,1.22,1.006,1.01,1.774c-0.071,0.26-0.239,0.477-0.473,0.61
		c-0.235,0.133-0.505,0.168-0.766,0.096c-0.385-0.106-0.79,0.121-0.897,0.51c-0.107,0.389,0.121,0.791,0.51,0.897
		c0.637,0.175,1.302,0.091,1.875-0.235c0.573-0.327,0.984-0.856,1.159-1.493c0.423-1.544-0.489-3.145-2.032-3.568
		c-0.891-0.243-1.819-0.126-2.618,0.329c-0.8,0.456-1.374,1.196-1.618,2.084c-0.291,1.063-0.151,2.176,0.395,3.134
		c0.545,0.958,1.431,1.646,2.494,1.938c2.644,0.719,5.388-0.839,6.114-3.484c0.426-1.556,0.221-3.184-0.577-4.585
		c-0.798-1.402-2.094-2.407-3.649-2.834c-3.921-1.07-7.975,1.24-9.049,5.155c-0.637,2.325-0.331,4.758,0.863,6.852
		c1.193,2.094,3.13,3.598,5.454,4.235c0.976,0.267,1.966,0.399,2.951,0.399c1.901,0,3.778-0.493,5.475-1.459
		c2.575-1.467,4.424-3.85,5.208-6.708C64.155,42.416,63.691,38.724,61.881,35.548z"/>
	<path d="M52.71,29.634c-0.048,0.178-0.02,0.355,0.054,0.508c0.064-0.272,0.11-0.547,0.143-0.824
		C52.819,29.405,52.745,29.507,52.71,29.634z"/>
	<path class="st9" d="M54.145,26.194c-1.508-5.93-7.558-9.527-13.487-8.019c-0.868,0.221-1.702,0.523-2.495,0.897
		c-1.056,0.498-2.028,1.137-2.916,1.882c-1.166,0.978-2.18,2.144-2.981,3.491c-1.111,1.868-1.737,3.927-1.883,6.033
		c0.488-0.124,0.985-0.217,1.49-0.26c0.175-1.755,0.72-3.466,1.648-5.027c0.984-1.655,2.32-3.016,3.894-4.027
		c1.01-0.649,2.12-1.15,3.305-1.483c0.1-0.028,0.196-0.066,0.297-0.091c5.151-1.31,10.404,1.815,11.713,6.964
		c0.233,0.918,0.286,1.852,0.176,2.765c-0.033,0.277-0.079,0.552-0.143,0.824c-0.175,0.743-0.461,1.464-0.863,2.139
		c-1.032,1.737-2.679,2.966-4.637,3.465c-1.531,0.387-3.117,0.158-4.472-0.647c-1.356-0.806-2.316-2.091-2.705-3.619
		c-0.622-2.446,0.863-4.942,3.309-5.565c0.912-0.232,1.856-0.094,2.663,0.386c0.807,0.48,1.379,1.246,1.61,2.156
		c0.175,0.69,0.072,1.407-0.292,2.019c-0.364,0.612-0.945,1.047-1.635,1.222c-1.063,0.27-2.147-0.375-2.417-1.436
		c-0.196-0.772,0.272-1.559,1.044-1.756c0.542-0.135,1.091,0.19,1.228,0.729c0.098,0.391,0.5,0.629,0.887,0.528
		c0.391-0.099,0.627-0.496,0.528-0.887c-0.163-0.639-0.564-1.177-1.131-1.514c-0.566-0.336-1.228-0.434-1.87-0.27
		c-1.552,0.394-2.494,1.978-2.099,3.53c0.468,1.842,2.349,2.963,4.19,2.491c1.069-0.271,1.967-0.942,2.53-1.89
		c0.564-0.947,0.724-2.057,0.452-3.125c-0.04-0.156-0.087-0.308-0.14-0.457c-0.388-1.086-1.134-1.996-2.139-2.594
		c-0.381-0.227-0.785-0.394-1.2-0.511c-0.831-0.235-1.71-0.253-2.569-0.034c-3.226,0.821-5.183,4.113-4.363,7.338
		c0.064,0.252,0.142,0.498,0.231,0.739c0.363,0.329,0.71,0.68,1.024,1.068c0.554,0.686,1.009,1.428,1.384,2.202
		c0.234,0.18,0.477,0.352,0.735,0.505c1.153,0.686,2.442,1.037,3.75,1.037c0.609,0,1.223-0.076,1.828-0.23
		c3.247-0.825,5.626-3.327,6.465-6.344c0.131-0.471,0.22-0.954,0.273-1.446C54.474,28.334,54.417,27.263,54.145,26.194z"/>
	<g>
		<path class="st9" d="M40.962,51.378c-1.295,0-2.831-0.232-4.456-0.964c-0.368-0.166-0.532-0.598-0.366-0.965
			c0.165-0.368,0.598-0.53,0.965-0.366c3.763,1.695,6.998,0.278,7.03,0.264c0.368-0.166,0.799-0.001,0.965,0.366
			c0.165,0.367,0.001,0.8-0.366,0.965C44.637,50.722,43.139,51.378,40.962,51.378z"/>
	</g>
	<circle class="st43" cx="66.158" cy="43.297" r="0.488"/>
</g>
<g>
	<circle class="st10" cx="42.538" cy="43.439" r="39.289"/>
	<g>
		<line class="st45" x1="23.475" y1="56.769" x2="10.595" y2="48.473"/>
		<line class="st45" x1="62.795" y1="50.357" x2="74.48" y2="38.135"/>
		<line class="st45" x1="56.393" y1="44.116" x2="65.38" y2="24.108"/>
		<line class="st45" x1="45.682" y1="40.403" x2="50.114" y2="14.531"/>
		<line class="st45" x1="36.202" y1="39.387" x2="30.785" y2="18.101"/>
		<g>
			<path class="st9" d="M42.112,72.348c-1.802,0-3.607-0.201-5.369-0.607c-2.906-0.67-5.994-1.785-9.717-3.509
				c-0.504-0.234-0.724-0.832-0.491-1.336c0.233-0.503,0.831-0.723,1.336-0.491c3.593,1.665,6.556,2.737,9.325,3.375
				c4.237,0.978,8.757,0.661,12.728-0.892c2.087-0.817,3.88-2.042,5.33-3.64c1.565-1.727,2.78-4.294,3.247-6.868
				c0.751-4.141-2.312-8.11-5.475-10.045c-4.894-2.992-11.608-1.313-16.09,1.681c-3.681,2.459-5.239,5.169-4.507,7.833
				c0.903,3.28,5.34,6.143,9.891,6.382c1.828,0.098,6.285-0.176,8.08-4.758c1.122-2.867,0.868-4.771-0.756-5.658
				c-2.698-1.477-8.318,0.036-9.813,2.098c-0.368,0.508-0.472,0.98,0.221,1.632c1.294,1.216,2.483,1.723,3.526,1.493
				c1.882-0.407,3.003-3.018,3.013-3.044c0.211-0.515,0.802-0.76,1.313-0.549c0.514,0.211,0.76,0.799,0.549,1.313
				c-0.06,0.148-1.514,3.612-4.448,4.247c-1.734,0.38-3.527-0.296-5.331-1.994c-1.331-1.252-1.507-2.851-0.471-4.279
				c2.031-2.799,8.792-4.66,12.407-2.682c1.494,0.817,3.698,2.963,1.665,8.157c-1.598,4.087-5.244,6.297-10.059,6.034
				c-5.442-0.286-10.592-3.737-11.725-7.858c-0.563-2.044-0.617-6.066,5.329-10.04c4.646-3.104,12.213-5.418,18.256-1.724
				c3.729,2.281,7.325,7.046,6.405,12.12c-0.54,2.973-1.903,5.838-3.737,7.86c-1.66,1.831-3.708,3.231-6.088,4.162
				C47.966,71.815,45.045,72.348,42.112,72.348z"/>
		</g>
	</g>
</g>
</svg>
