<?xml version="1.0" encoding="utf-8"?>
<!-- Generator: Adobe Illustrator 21.1.0, SVG Export Plug-In . SVG Version: 6.00 Build 0)  -->
<svg version="1.1" id="Capa_1" xmlns="http://www.w3.org/2000/svg" xmlns:xlink="http://www.w3.org/1999/xlink" x="0px" y="0px"
	 viewBox="0 0 84.36 84.07" style="enable-background:new 0 0 84.36 84.07;" xml:space="preserve">
<style type="text/css">
	.st0{fill:#F9EEE8;}
	.st1{opacity:0.7;fill:#D4C0AB;}
	.st2{opacity:0.7;fill:#3B2011;}
	.st3{fill:#F7EAE2;}
	.st4{fill:#FFFFFF;}
	.st5{fill:none;}
	.st6{fill:#9F684F;}
	.st7{fill:#A55330;}
	.st8{fill:#513528;}
	.st9{fill:none;stroke:#369040;stroke-width:2.4856;stroke-miterlimit:10;}
	.st10{clip-path:url(#SVGID_2_);}
	.st11{fill:#369040;}
	.st12{fill:#010202;}
	.st13{fill:none;stroke:#010202;stroke-width:0.1555;stroke-miterlimit:10;}
	.st14{fill:#C31632;}
	.st15{fill:#414141;}
	.st16{fill:none;stroke:#369040;stroke-width:2.6867;stroke-miterlimit:10;}
	.st17{fill:none;stroke:#369040;stroke-width:2.1566;stroke-miterlimit:10;}
	.st18{fill:none;stroke:#369040;stroke-width:1.2699;stroke-miterlimit:10;}
	.st19{opacity:0.7;}
	.st20{fill:#A35230;}
	.st21{fill:#513628;}
	.st22{fill:#C3002F;}
	.st23{fill:#DBC79D;}
	.st24{fill:#CFA175;}
	.st25{fill:#646569;}
	
		.st26{opacity:0.7;fill:none;stroke:#FFFFFF;stroke-width:8.2967;stroke-linecap:round;stroke-linejoin:round;stroke-miterlimit:10;}
	
		.st27{opacity:0.7;fill:none;stroke:#FFFFFF;stroke-width:4.8855;stroke-linecap:round;stroke-linejoin:round;stroke-miterlimit:10;}
	
		.st28{opacity:0.7;fill:none;stroke:#FFFFFF;stroke-width:4.0904;stroke-linecap:round;stroke-linejoin:round;stroke-miterlimit:10;}
	.st29{opacity:0.7;fill:none;stroke:#FFFFFF;stroke-width:2.225;stroke-linecap:round;stroke-linejoin:round;stroke-miterlimit:10;}
	.st30{fill:#DBC6B4;}
	.st31{fill:#BAA99A;}
	
		.st32{opacity:0.7;fill:none;stroke:#FFFFFF;stroke-width:9.5453;stroke-linecap:round;stroke-linejoin:round;stroke-miterlimit:10;}
	.st33{fill:none;stroke:#369040;stroke-width:5.4545;stroke-miterlimit:10;}
	.st34{fill:#776E64;}
	.st35{fill:#776E63;}
	.st36{fill:#2A8258;}
	
		.st37{opacity:0.7;fill:none;stroke:#FFFFFF;stroke-width:7.5357;stroke-linecap:round;stroke-linejoin:round;stroke-miterlimit:10;}
	.st38{fill:none;stroke:#369040;stroke-width:4.3061;stroke-miterlimit:10;}
	
		.st39{opacity:0.7;fill:none;stroke:#FFFFFF;stroke-width:5.8692;stroke-linecap:round;stroke-linejoin:round;stroke-miterlimit:10;}
	.st40{fill:none;stroke:#369040;stroke-width:3.3539;stroke-miterlimit:10;}
	.st41{fill:none;stroke:#369040;stroke-width:3.9579;stroke-miterlimit:10;}
	.st42{clip-path:url(#SVGID_14_);}
	.st43{fill:none;stroke:#010202;stroke-width:0.2619;stroke-miterlimit:10;}
	.st44{fill:#603726;}
	.st45{fill:none;stroke:#603726;stroke-width:1.2614;stroke-miterlimit:10;}
	.st46{fill:#81A77D;}
	.st47{fill:none;stroke:#603726;stroke-width:0.9723;stroke-miterlimit:10;}
	.st48{fill:none;stroke:#603726;stroke-width:0.8005;stroke-miterlimit:10;}
	.st49{opacity:0.7;fill:none;stroke:#FFFFFF;stroke-width:3.062;stroke-linecap:round;stroke-linejoin:round;stroke-miterlimit:10;}
	.st50{fill:none;stroke:#369040;stroke-width:1.7497;stroke-miterlimit:10;}
	.st51{fill:none;stroke:#369040;stroke-width:3.1366;stroke-miterlimit:10;}
	.st52{clip-path:url(#SVGID_16_);}
	.st53{fill:none;stroke:#010202;stroke-width:0.1962;stroke-miterlimit:10;}
	.st54{fill:none;stroke:#369040;stroke-width:3.759;stroke-miterlimit:10;}
	.st55{fill:#D4C0AB;}
	.st56{opacity:0.7;fill:none;stroke:#796E63;stroke-width:5.012;stroke-linecap:round;stroke-linejoin:round;stroke-miterlimit:10;}
	.st57{opacity:0.7;fill:#796E63;}
	.st58{fill:#796E63;}
	.st59{opacity:0.7;fill:none;stroke:#796E63;stroke-width:3.897;stroke-linecap:round;stroke-linejoin:round;stroke-miterlimit:10;}
	.st60{opacity:0.7;fill:none;stroke:#796E63;stroke-width:3.136;stroke-linecap:round;stroke-linejoin:round;stroke-miterlimit:10;}
	
		.st61{opacity:0.7;fill:none;stroke:#796E63;stroke-width:1.8507;stroke-linecap:round;stroke-linejoin:round;stroke-miterlimit:10;}
	.st62{opacity:0.7;fill:#1C0E08;}
	.st63{fill:none;stroke:#369040;stroke-width:5.7607;stroke-miterlimit:10;}
	.st64{fill:#FFFFFF;stroke:#FFFFFF;stroke-miterlimit:10;}
	.st65{fill:#369040;stroke:#369040;stroke-miterlimit:10;}
	.st66{fill:none;stroke:#369040;stroke-width:1.4402;stroke-miterlimit:10;}
	.st67{fill:#369040;stroke:#FFFFFF;stroke-width:2.9279;stroke-linecap:round;stroke-linejoin:round;stroke-miterlimit:10;}
	.st68{fill:none;stroke:#369040;stroke-width:1.9042;stroke-miterlimit:10;}
	.st69{fill:none;stroke:#369040;stroke-width:1.0038;stroke-miterlimit:10;}
	.st70{fill:none;stroke:#369040;stroke-width:0.6751;stroke-miterlimit:10;}
	
		.st71{opacity:0.7;fill:none;stroke:#796E63;stroke-width:0.9839;stroke-linecap:round;stroke-linejoin:round;stroke-miterlimit:10;}
	.st72{fill:#3B2011;}
	.st73{fill:none;stroke:#FFFFFF;stroke-width:2.9279;stroke-linecap:round;stroke-linejoin:round;stroke-miterlimit:10;}
</style>
<g>
	<line class="st67" x1="22.718" y1="56.493" x2="9.838" y2="48.197"/>
	<line class="st67" x1="62.037" y1="50.08" x2="73.723" y2="37.858"/>
	<line class="st67" x1="55.635" y1="43.84" x2="64.622" y2="23.831"/>
	<line class="st67" x1="44.924" y1="40.127" x2="49.357" y2="14.254"/>
	<line class="st73" x1="35.445" y1="39.11" x2="30.028" y2="17.825"/>
	<g>
		<path class="st4" d="M41.354,72.071c-1.802,0-3.607-0.201-5.369-0.607c-2.906-0.67-5.994-1.785-9.717-3.509
			c-0.504-0.234-0.724-0.832-0.491-1.336c0.233-0.503,0.831-0.723,1.336-0.491c3.593,1.665,6.556,2.737,9.325,3.375
			c4.237,0.978,8.757,0.661,12.728-0.892c2.087-0.817,3.88-2.042,5.33-3.64c1.565-1.727,2.78-4.294,3.247-6.868
			c0.751-4.141-2.312-8.11-5.475-10.045c-4.894-2.992-11.608-1.313-16.09,1.681c-3.681,2.459-5.239,5.169-4.507,7.833
			c0.903,3.28,5.34,6.143,9.891,6.382c1.828,0.098,6.285-0.176,8.08-4.758c1.122-2.867,0.868-4.771-0.756-5.658
			c-2.698-1.477-8.318,0.036-9.813,2.098c-0.368,0.508-0.472,0.98,0.221,1.632c1.294,1.216,2.483,1.723,3.526,1.493
			c1.882-0.407,3.003-3.018,3.013-3.044c0.211-0.515,0.802-0.76,1.313-0.549c0.514,0.211,0.76,0.799,0.549,1.313
			c-0.06,0.148-1.514,3.612-4.448,4.247c-1.734,0.38-3.527-0.296-5.331-1.994c-1.331-1.252-1.507-2.851-0.471-4.279
			c2.031-2.799,8.792-4.66,12.407-2.682c1.494,0.817,3.698,2.963,1.665,8.157c-1.598,4.087-5.244,6.297-10.059,6.034
			c-5.442-0.286-10.592-3.737-11.725-7.858c-0.563-2.044-0.617-6.066,5.329-10.04c4.646-3.104,12.213-5.418,18.256-1.724
			c3.729,2.281,7.325,7.046,6.405,12.12c-0.54,2.973-1.903,5.838-3.737,7.86c-1.66,1.831-3.708,3.231-6.088,4.162
			C47.209,71.538,44.288,72.071,41.354,72.071z"/>
	</g>
</g>
</svg>
