<?xml version="1.0" encoding="utf-8"?>
<!-- Generator: Adobe Illustrator 21.1.0, SVG Export Plug-In . SVG Version: 6.00 Build 0)  -->
<svg version="1.1" id="Capa_1" xmlns="http://www.w3.org/2000/svg" xmlns:xlink="http://www.w3.org/1999/xlink" x="0px" y="0px"
	 viewBox="0 0 84.36 84.07" style="enable-background:new 0 0 84.36 84.07;" xml:space="preserve">
<style type="text/css">
	.st0{fill:#F9EEE8;}
	.st1{opacity:0.7;fill:#D4C0AB;}
	.st2{opacity:0.7;fill:#3B2011;}
	.st3{fill:#F7EAE2;}
	.st4{fill:#FFFFFF;}
	.st5{fill:none;}
	.st6{fill:#9F684F;}
	.st7{fill:#A55330;}
	.st8{fill:#513528;}
	.st9{fill:none;stroke:#369040;stroke-width:2.4856;stroke-miterlimit:10;}
	.st10{clip-path:url(#SVGID_2_);}
	.st11{fill:#369040;}
	.st12{fill:#010202;}
	.st13{fill:none;stroke:#010202;stroke-width:0.1555;stroke-miterlimit:10;}
	.st14{fill:#C31632;}
	.st15{fill:#414141;}
	.st16{fill:none;stroke:#369040;stroke-width:2.6867;stroke-miterlimit:10;}
	.st17{fill:none;stroke:#369040;stroke-width:2.1566;stroke-miterlimit:10;}
	.st18{fill:none;stroke:#369040;stroke-width:1.2699;stroke-miterlimit:10;}
	.st19{opacity:0.7;}
	.st20{fill:#A35230;}
	.st21{fill:#513628;}
	.st22{fill:#C3002F;}
	.st23{fill:#DBC79D;}
	.st24{fill:#CFA175;}
	.st25{fill:#646569;}
	
		.st26{opacity:0.7;fill:none;stroke:#FFFFFF;stroke-width:8.2967;stroke-linecap:round;stroke-linejoin:round;stroke-miterlimit:10;}
	
		.st27{opacity:0.7;fill:none;stroke:#FFFFFF;stroke-width:4.8855;stroke-linecap:round;stroke-linejoin:round;stroke-miterlimit:10;}
	
		.st28{opacity:0.7;fill:none;stroke:#FFFFFF;stroke-width:4.0904;stroke-linecap:round;stroke-linejoin:round;stroke-miterlimit:10;}
	.st29{opacity:0.7;fill:none;stroke:#FFFFFF;stroke-width:2.225;stroke-linecap:round;stroke-linejoin:round;stroke-miterlimit:10;}
	.st30{fill:#DBC6B4;}
	.st31{fill:#BAA99A;}
	
		.st32{opacity:0.7;fill:none;stroke:#FFFFFF;stroke-width:9.5453;stroke-linecap:round;stroke-linejoin:round;stroke-miterlimit:10;}
	.st33{fill:none;stroke:#369040;stroke-width:5.4545;stroke-miterlimit:10;}
	.st34{fill:#776E64;}
	.st35{fill:#776E63;}
	.st36{fill:#2A8258;}
	
		.st37{opacity:0.7;fill:none;stroke:#FFFFFF;stroke-width:7.5357;stroke-linecap:round;stroke-linejoin:round;stroke-miterlimit:10;}
	.st38{fill:none;stroke:#369040;stroke-width:4.3061;stroke-miterlimit:10;}
	
		.st39{opacity:0.7;fill:none;stroke:#FFFFFF;stroke-width:5.8692;stroke-linecap:round;stroke-linejoin:round;stroke-miterlimit:10;}
	.st40{fill:none;stroke:#369040;stroke-width:3.3539;stroke-miterlimit:10;}
	.st41{fill:none;stroke:#369040;stroke-width:3.9579;stroke-miterlimit:10;}
	.st42{clip-path:url(#SVGID_14_);}
	.st43{fill:none;stroke:#010202;stroke-width:0.2619;stroke-miterlimit:10;}
	.st44{fill:#603726;}
	.st45{fill:none;stroke:#603726;stroke-width:1.2614;stroke-miterlimit:10;}
	.st46{fill:#81A77D;}
	.st47{fill:none;stroke:#603726;stroke-width:0.9723;stroke-miterlimit:10;}
	.st48{fill:none;stroke:#603726;stroke-width:0.8005;stroke-miterlimit:10;}
	.st49{opacity:0.7;fill:none;stroke:#FFFFFF;stroke-width:3.062;stroke-linecap:round;stroke-linejoin:round;stroke-miterlimit:10;}
	.st50{fill:none;stroke:#369040;stroke-width:1.7497;stroke-miterlimit:10;}
	.st51{fill:none;stroke:#369040;stroke-width:3.1366;stroke-miterlimit:10;}
	.st52{clip-path:url(#SVGID_16_);}
	.st53{fill:none;stroke:#010202;stroke-width:0.1962;stroke-miterlimit:10;}
	.st54{fill:none;stroke:#369040;stroke-width:3.759;stroke-miterlimit:10;}
	.st55{fill:#D4C0AB;}
	.st56{opacity:0.7;fill:none;stroke:#796E63;stroke-width:5.012;stroke-linecap:round;stroke-linejoin:round;stroke-miterlimit:10;}
	.st57{opacity:0.7;fill:#796E63;}
	.st58{fill:#796E63;}
	.st59{opacity:0.7;fill:none;stroke:#796E63;stroke-width:3.897;stroke-linecap:round;stroke-linejoin:round;stroke-miterlimit:10;}
	.st60{opacity:0.7;fill:none;stroke:#796E63;stroke-width:3.136;stroke-linecap:round;stroke-linejoin:round;stroke-miterlimit:10;}
	
		.st61{opacity:0.7;fill:none;stroke:#796E63;stroke-width:1.8507;stroke-linecap:round;stroke-linejoin:round;stroke-miterlimit:10;}
	.st62{opacity:0.7;fill:#1C0E08;}
	.st63{fill:none;stroke:#369040;stroke-width:5.7607;stroke-miterlimit:10;}
	.st64{fill:#FFFFFF;stroke:#FFFFFF;stroke-miterlimit:10;}
	.st65{fill:#369040;stroke:#369040;stroke-miterlimit:10;}
	.st66{fill:none;stroke:#369040;stroke-width:1.4402;stroke-miterlimit:10;}
	.st67{fill:#369040;stroke:#FFFFFF;stroke-width:2.9279;stroke-linecap:round;stroke-linejoin:round;stroke-miterlimit:10;}
	.st68{fill:none;stroke:#369040;stroke-width:1.9042;stroke-miterlimit:10;}
	.st69{fill:none;stroke:#369040;stroke-width:1.0038;stroke-miterlimit:10;}
	.st70{fill:none;stroke:#369040;stroke-width:0.6751;stroke-miterlimit:10;}
	
		.st71{opacity:0.7;fill:none;stroke:#796E63;stroke-width:0.9839;stroke-linecap:round;stroke-linejoin:round;stroke-miterlimit:10;}
	.st72{fill:#3B2011;}
	.st73{fill:none;stroke:#FFFFFF;stroke-width:2.9279;stroke-linecap:round;stroke-linejoin:round;stroke-miterlimit:10;}
</style>
<path class="st4" d="M40.696,46.669h-0.029c0.004,0.022,0.008,0.046,0.011,0.067C40.684,46.715,40.69,46.691,40.696,46.669z"/>
<ellipse class="st5" cx="41.304" cy="27.275" rx="2.827" ry="2.658"/>
<g>
	<path class="st4" d="M44.524,27.275c0-1.669-1.444-3.027-3.219-3.027c-1.775,0-3.22,1.358-3.22,3.027
		c0,1.669,1.445,3.027,3.22,3.027C43.079,30.302,44.524,28.944,44.524,27.275z M39.005,27.275c0-1.192,1.031-2.161,2.299-2.161
		c1.267,0,2.298,0.969,2.298,2.161c0,1.191-1.031,2.161-2.298,2.161C40.037,29.436,39.005,28.467,39.005,27.275z"/>
	<path class="st4" d="M38.192,24.962c0.09,0.084,0.208,0.127,0.326,0.127c0.118,0,0.236-0.042,0.326-0.127
		c0.18-0.169,0.18-0.443,0-0.612l-1.102-1.036c-0.18-0.169-0.471-0.169-0.651,0c-0.18,0.169-0.18,0.443,0,0.612L38.192,24.962z"/>
	<path class="st4" d="M44.416,29.588c-0.18-0.169-0.471-0.169-0.651,0c-0.18,0.169-0.18,0.443,0,0.612l1.101,1.036
		c0.09,0.084,0.208,0.127,0.326,0.127c0.118,0,0.236-0.042,0.325-0.127c0.18-0.169,0.18-0.443,0-0.612L44.416,29.588z"/>
	<path class="st4" d="M38.128,29.649l-1.038,0.975c-0.18,0.169-0.18,0.443,0,0.612c0.09,0.084,0.208,0.127,0.326,0.127
		c0.118,0,0.236-0.042,0.326-0.127l1.037-0.975c0.18-0.169,0.18-0.443,0-0.612C38.599,29.48,38.308,29.48,38.128,29.649z"/>
	<path class="st4" d="M44.09,25.089c0.118,0,0.236-0.042,0.325-0.127l1.102-1.036c0.18-0.169,0.18-0.443,0-0.612
		c-0.18-0.169-0.471-0.169-0.651,0l-1.102,1.036c-0.18,0.169-0.18,0.443,0,0.612C43.854,25.047,43.972,25.089,44.09,25.089z"/>
	<path class="st4" d="M44.784,27.275c0,0.239,0.206,0.433,0.461,0.433h1.558c0.254,0,0.461-0.194,0.461-0.433
		c0-0.239-0.206-0.433-0.461-0.433h-1.558C44.99,26.842,44.784,27.036,44.784,27.275z"/>
	<path class="st4" d="M37.824,27.275c0-0.239-0.206-0.433-0.461-0.433h-1.558c-0.254,0-0.461,0.194-0.461,0.433
		c0,0.239,0.206,0.433,0.461,0.433h1.558C37.618,27.708,37.824,27.514,37.824,27.275z"/>
	<path class="st4" d="M41.304,30.546c-0.254,0-0.461,0.194-0.461,0.433v1.465c0,0.239,0.206,0.433,0.461,0.433
		c0.254,0,0.461-0.194,0.461-0.433v-1.465C41.765,30.74,41.558,30.546,41.304,30.546z"/>
	<path class="st4" d="M41.304,24.194c0.254,0,0.461-0.194,0.461-0.433v-1.655c0-0.239-0.206-0.433-0.461-0.433
		c-0.254,0-0.461,0.194-0.461,0.433v1.655C40.844,24.001,41.05,24.194,41.304,24.194z"/>
</g>
<path class="st4" d="M19.377,38.443c1.767-3.823,4.874-8.38,9.638-8.38c6.634,0,9.182,8.712,10.094,13.651h1.551h0.006
	c-0.289-1.619-0.755-3.67-1.496-5.741c-2.173-6.071-5.685-9.279-10.155-9.279c-4.44,0-8.261,3.191-11.052,9.226
	c-0.542,1.172-0.994,1.72-1.368,2.805V21.63c0-0.992,0.833-1.8,1.858-1.8h9.508h1.698h32.407c1.024,0,1.858,0.807,1.858,1.8v16.109
	c-2.179-5.918-5.656-9.046-10.069-9.046c-4.44,0-8.261,3.191-11.052,9.226c-0.968,2.094-1.652,4.167-2.109,5.794h0.001h1.583
	c0.442-1.527,1.074-3.4,1.939-5.27c1.767-3.823,4.874-8.38,9.638-8.38c6.572,0,9.135,8.553,10.069,13.514v0.136h0.014h1.516V43.42
	V21.63c0-1.747-1.52-3.169-3.387-3.169H28.923h-1.698h-8.77c-1.868,0-3.387,1.422-3.387,3.169v22.084H16.5
	C17.439,42.184,18.513,40.313,19.377,38.443z"/>
<path class="st4" d="M40.616,49.59c1.798-0.105,3.346-0.634,4.985-1.194c0.743-0.254,1.495-0.51,2.284-0.733
	c1.276-0.36,2.601-0.593,3.939-0.728h-23.8c0.874,0.251,1.772,0.539,2.724,0.913C34.155,49.188,37.472,49.772,40.616,49.59z"/>
<path class="st4" d="M61.189,47.969c0.387,0.157,0.789,0.374,1.176,0.584c1.539,0.834,2.342,1.136,3.05,0.317l0.039,0.034v-1.968
	h-8.756c0.017,0.002,0.034,0.001,0.05,0.003C58.526,47.135,59.937,47.463,61.189,47.969z"/>
<path class="st4" d="M30.749,53.609c3.407,1.34,6.723,1.924,9.868,1.742c1.798-0.105,3.346-0.634,4.985-1.194
	c0.743-0.254,1.495-0.51,2.284-0.733c2.836-0.803,5.9-1.055,8.864-0.725c1.777,0.197,3.188,0.524,4.44,1.031
	c0.387,0.157,0.788,0.374,1.176,0.584c1.539,0.833,2.341,1.137,3.05,0.316l0.039,0.034v-1.061c-1.32,0.548-2.756-0.224-3.782-0.779
	c-0.369-0.2-0.717-0.388-1.029-0.514c-1.125-0.456-2.414-0.752-4.055-0.934c-2.778-0.307-5.65-0.073-8.308,0.679
	c-0.763,0.216-1.49,0.464-2.209,0.71c-1.659,0.567-3.374,1.152-5.37,1.27c-0.404,0.023-0.811,0.036-1.22,0.036
	c-2.985,0-6.096-0.629-9.266-1.876c-9.089-3.574-14.284-0.728-15.149-0.184v1.11C17.154,52.09,22.467,50.352,30.749,53.609z"/>
<path class="st4" d="M30.749,50.84c3.407,1.339,6.723,1.923,9.868,1.742c1.798-0.105,3.346-0.634,4.985-1.194
	c0.743-0.254,1.495-0.51,2.284-0.733c2.836-0.803,5.9-1.055,8.864-0.725c1.777,0.197,3.188,0.524,4.44,1.031
	c0.387,0.157,0.788,0.374,1.176,0.584c1.539,0.833,2.341,1.137,3.05,0.316l0.039,0.034v-1.282c-1.319,0.548-2.756-0.224-3.782-0.78
	c-0.369-0.2-0.717-0.388-1.029-0.514c-1.125-0.456-2.414-0.752-4.055-0.934c-2.775-0.306-5.648-0.072-8.308,0.679
	c-0.763,0.216-1.49,0.464-2.209,0.71c-1.659,0.567-3.374,1.152-5.37,1.27c-0.404,0.023-0.811,0.036-1.22,0.036
	c-2.985,0-6.096-0.629-9.266-1.876c-9.089-3.573-14.284-0.728-15.149-0.184v1.332C17.154,49.321,22.467,47.581,30.749,50.84z"/>
<path class="st4" d="M61.672,55.594c-0.369-0.2-0.717-0.388-1.029-0.514c-1.125-0.456-2.414-0.752-4.055-0.934
	c-2.778-0.308-5.65-0.073-8.308,0.679c-0.763,0.216-1.49,0.464-2.209,0.71c-1.659,0.567-3.374,1.152-5.37,1.27
	c-0.404,0.023-0.811,0.036-1.22,0.036c-2.985,0-6.096-0.629-9.266-1.876c-9.089-3.574-14.284-0.728-15.149-0.184v0.915
	c2.087-1.03,7.4-2.769,15.682,0.489c3.406,1.339,6.724,1.922,9.868,1.742c1.798-0.105,3.345-0.634,4.983-1.193
	c0.744-0.254,1.497-0.511,2.286-0.733c2.837-0.803,5.902-1.056,8.864-0.726c1.775,0.196,3.187,0.524,4.44,1.031
	c0.387,0.157,0.789,0.374,1.176,0.584c1.539,0.834,2.342,1.136,3.05,0.317l0.039,0.034v-0.865
	C64.135,56.921,62.698,56.15,61.672,55.594z"/>
<path class="st4" d="M61.672,58.168c-0.369-0.2-0.717-0.388-1.029-0.514c-1.127-0.456-2.416-0.752-4.055-0.934
	c-2.777-0.307-5.648-0.072-8.308,0.68c-0.763,0.216-1.491,0.465-2.211,0.71c-1.658,0.566-3.373,1.151-5.369,1.269
	c-0.404,0.023-0.812,0.036-1.221,0.036c-2.985,0-6.096-0.629-9.265-1.876c-9.088-3.574-14.284-0.728-15.149-0.184v2.392h50.388
	v-0.798C64.135,59.496,62.699,58.724,61.672,58.168z"/>
</svg>
