<?xml version="1.0" encoding="utf-8"?>
<!-- Generator: Adobe Illustrator 21.1.0, SVG Export Plug-In . SVG Version: 6.00 Build 0)  -->
<svg version="1.1" id="Capa_1" xmlns="http://www.w3.org/2000/svg" xmlns:xlink="http://www.w3.org/1999/xlink" x="0px" y="0px"
	 viewBox="0 0 84.36 84.07" style="enable-background:new 0 0 84.36 84.07;" xml:space="preserve">
<style type="text/css">
	.st0{fill:#F9EEE8;}
	.st1{opacity:0.7;fill:#D4C0AB;}
	.st2{opacity:0.7;fill:#3B2011;}
	.st3{fill:#F7EAE2;}
	.st4{fill:#FFFFFF;}
	.st5{fill:none;}
	.st6{fill:#9F684F;}
	.st7{fill:#A55330;}
	.st8{fill:#513528;}
	.st9{fill:none;stroke:#369040;stroke-width:2.4856;stroke-miterlimit:10;}
	.st10{clip-path:url(#SVGID_2_);}
	.st11{fill:#369040;}
	.st12{fill:#010202;}
	.st13{fill:none;stroke:#010202;stroke-width:0.1555;stroke-miterlimit:10;}
	.st14{fill:#C31632;}
	.st15{fill:#414141;}
	.st16{fill:none;stroke:#369040;stroke-width:2.6867;stroke-miterlimit:10;}
	.st17{fill:none;stroke:#369040;stroke-width:2.1566;stroke-miterlimit:10;}
	.st18{fill:none;stroke:#369040;stroke-width:1.2699;stroke-miterlimit:10;}
	.st19{opacity:0.7;}
	.st20{fill:#A35230;}
	.st21{fill:#513628;}
	.st22{fill:#C3002F;}
	.st23{fill:#DBC79D;}
	.st24{fill:#CFA175;}
	.st25{fill:#646569;}
	
		.st26{opacity:0.7;fill:none;stroke:#FFFFFF;stroke-width:8.2967;stroke-linecap:round;stroke-linejoin:round;stroke-miterlimit:10;}
	
		.st27{opacity:0.7;fill:none;stroke:#FFFFFF;stroke-width:4.8855;stroke-linecap:round;stroke-linejoin:round;stroke-miterlimit:10;}
	
		.st28{opacity:0.7;fill:none;stroke:#FFFFFF;stroke-width:4.0904;stroke-linecap:round;stroke-linejoin:round;stroke-miterlimit:10;}
	.st29{opacity:0.7;fill:none;stroke:#FFFFFF;stroke-width:2.225;stroke-linecap:round;stroke-linejoin:round;stroke-miterlimit:10;}
	.st30{fill:#DBC6B4;}
	.st31{fill:#BAA99A;}
	
		.st32{opacity:0.7;fill:none;stroke:#FFFFFF;stroke-width:9.5453;stroke-linecap:round;stroke-linejoin:round;stroke-miterlimit:10;}
	.st33{fill:none;stroke:#369040;stroke-width:5.4545;stroke-miterlimit:10;}
	.st34{fill:#776E64;}
	.st35{fill:#776E63;}
	.st36{fill:#2A8258;}
	
		.st37{opacity:0.7;fill:none;stroke:#FFFFFF;stroke-width:7.5357;stroke-linecap:round;stroke-linejoin:round;stroke-miterlimit:10;}
	.st38{fill:none;stroke:#369040;stroke-width:4.3061;stroke-miterlimit:10;}
	
		.st39{opacity:0.7;fill:none;stroke:#FFFFFF;stroke-width:5.8692;stroke-linecap:round;stroke-linejoin:round;stroke-miterlimit:10;}
	.st40{fill:none;stroke:#369040;stroke-width:3.3539;stroke-miterlimit:10;}
	.st41{fill:none;stroke:#369040;stroke-width:3.9579;stroke-miterlimit:10;}
	.st42{clip-path:url(#SVGID_14_);}
	.st43{fill:none;stroke:#010202;stroke-width:0.2619;stroke-miterlimit:10;}
	.st44{fill:#603726;}
	.st45{fill:none;stroke:#603726;stroke-width:1.2614;stroke-miterlimit:10;}
	.st46{fill:#81A77D;}
	.st47{fill:none;stroke:#603726;stroke-width:0.9723;stroke-miterlimit:10;}
	.st48{fill:none;stroke:#603726;stroke-width:0.8005;stroke-miterlimit:10;}
	.st49{opacity:0.7;fill:none;stroke:#FFFFFF;stroke-width:3.062;stroke-linecap:round;stroke-linejoin:round;stroke-miterlimit:10;}
	.st50{fill:none;stroke:#369040;stroke-width:1.7497;stroke-miterlimit:10;}
	.st51{fill:none;stroke:#369040;stroke-width:3.1366;stroke-miterlimit:10;}
	.st52{clip-path:url(#SVGID_16_);}
	.st53{fill:none;stroke:#010202;stroke-width:0.1962;stroke-miterlimit:10;}
	.st54{fill:none;stroke:#369040;stroke-width:3.759;stroke-miterlimit:10;}
	.st55{fill:#D4C0AB;}
	.st56{opacity:0.7;fill:none;stroke:#796E63;stroke-width:5.012;stroke-linecap:round;stroke-linejoin:round;stroke-miterlimit:10;}
	.st57{opacity:0.7;fill:#796E63;}
	.st58{fill:#796E63;}
	.st59{opacity:0.7;fill:none;stroke:#796E63;stroke-width:3.897;stroke-linecap:round;stroke-linejoin:round;stroke-miterlimit:10;}
	.st60{opacity:0.7;fill:none;stroke:#796E63;stroke-width:3.136;stroke-linecap:round;stroke-linejoin:round;stroke-miterlimit:10;}
	
		.st61{opacity:0.7;fill:none;stroke:#796E63;stroke-width:1.8507;stroke-linecap:round;stroke-linejoin:round;stroke-miterlimit:10;}
	.st62{opacity:0.7;fill:#1C0E08;}
	.st63{fill:none;stroke:#369040;stroke-width:5.7607;stroke-miterlimit:10;}
	.st64{fill:#FFFFFF;stroke:#FFFFFF;stroke-miterlimit:10;}
	.st65{fill:#369040;stroke:#369040;stroke-miterlimit:10;}
	.st66{fill:none;stroke:#369040;stroke-width:1.4402;stroke-miterlimit:10;}
	.st67{fill:#369040;stroke:#FFFFFF;stroke-width:2.9279;stroke-linecap:round;stroke-linejoin:round;stroke-miterlimit:10;}
	.st68{fill:none;stroke:#369040;stroke-width:1.9042;stroke-miterlimit:10;}
	.st69{fill:none;stroke:#369040;stroke-width:1.0038;stroke-miterlimit:10;}
	.st70{fill:none;stroke:#369040;stroke-width:0.6751;stroke-miterlimit:10;}
	
		.st71{opacity:0.7;fill:none;stroke:#796E63;stroke-width:0.9839;stroke-linecap:round;stroke-linejoin:round;stroke-miterlimit:10;}
	.st72{fill:#3B2011;}
	.st73{fill:none;stroke:#FFFFFF;stroke-width:2.9279;stroke-linecap:round;stroke-linejoin:round;stroke-miterlimit:10;}
</style>
<g>
	<g>
		<g>
			<path class="st4" d="M60.83,10.918c0.606,0.662,1.274,1.278,1.808,1.995c2.138,2.868,2.093,6.875-0.133,9.63
				c-1.052,1.302-2.505,1.873-4.178,1.783c-0.746-0.04-1.486-0.19-2.444-0.319c-2.893,12.142-5.783,24.268-8.661,36.348
				c-2.57-0.2-5-0.676-7.385-0.507c-3.415,0.241-6.801,0.923-10.189,1.481c-1.173,0.193-1.885,0.974-2.41,2.086
				c-1.58,3.351-3.273,6.649-4.997,10.12c-0.945-0.324-1.828-0.627-2.923-1.003c0.292-0.588,0.51-1.026,0.727-1.464
				c8.888-17.886,17.843-35.739,26.623-53.678c2.63-5.373,6.454-8.111,12.522-7.287C59.737,10.375,60.283,10.646,60.83,10.918z
				 M55.164,22.398c1.336,0.156,2.487,0.393,3.638,0.388c0.713-0.003,1.559-0.191,2.116-0.604c2.947-2.19,2.595-7.874-0.547-9.804
				c-3.659-2.248-9.189-0.665-11.114,3.186c-1.296,2.592-2.579,5.191-3.875,7.783C37.489,39.126,29.594,54.903,21.71,70.685
				c-0.131,0.263-0.154,0.58-0.227,0.871c1.863-3.016,3.325-6.196,5.025-9.243c0.542-0.971,1.601-1.957,2.631-2.287
				c2.056-0.657,4.243-1.09,6.398-1.207c3.566-0.194,7.149-0.065,10.854-0.072C49.27,46.823,52.199,34.682,55.164,22.398z"/>
		</g>
		<g>
			<path class="st4" d="M62.61,18.473l-10.703-5.317c-0.361-0.18-0.508-0.617-0.329-0.979s0.617-0.508,0.979-0.329l10.703,5.317
				c0.361,0.18,0.508,0.617,0.329,0.979S62.971,18.652,62.61,18.473z"/>
		</g>
		<g>
			<path class="st4" d="M61.418,22.038l-12.705-6.312c-0.361-0.18-0.508-0.617-0.329-0.979c0.18-0.361,0.617-0.508,0.979-0.329
				l12.705,6.312c0.361,0.18,0.508,0.617,0.329,0.979C62.217,22.07,61.779,22.218,61.418,22.038z"/>
		</g>
		<g>
			<path class="st4" d="M57.235,24.117L47.056,19.06c-0.361-0.18-0.508-0.617-0.329-0.979s0.617-0.508,0.979-0.329l10.179,5.057
				c0.361,0.18,0.508,0.617,0.329,0.979S57.596,24.296,57.235,24.117z"/>
		</g>
		<g>
			<path class="st4" d="M53.986,26.66l-8.484-4.215c-0.361-0.18-0.508-0.617-0.329-0.979s0.617-0.508,0.979-0.329l8.484,4.215
				c0.361,0.18,0.508,0.617,0.329,0.979C54.785,26.692,54.348,26.839,53.986,26.66z"/>
		</g>
		<g>
			<path class="st4" d="M52.874,30.264l-9.028-4.485c-0.361-0.18-0.508-0.617-0.329-0.979s0.617-0.508,0.979-0.329l9.028,4.485
				c0.361,0.18,0.508,0.617,0.329,0.979C53.673,30.296,53.235,30.443,52.874,30.264z"/>
		</g>
		<g>
			<path class="st4" d="M51.868,33.922l-9.679-4.809c-0.361-0.18-0.508-0.617-0.329-0.979s0.617-0.508,0.979-0.329l9.679,4.809
				c0.361,0.18,0.508,0.617,0.329,0.979C52.667,33.954,52.229,34.101,51.868,33.922z"/>
		</g>
		<g>
			<path class="st4" d="M51.133,37.714l-10.601-5.267c-0.361-0.18-0.508-0.617-0.329-0.979c0.18-0.361,0.617-0.508,0.979-0.329
				l10.601,5.267c0.361,0.18,0.508,0.617,0.329,0.979C51.932,37.746,51.495,37.893,51.133,37.714z"/>
		</g>
		<g>
			<path class="st4" d="M50.559,41.585l-11.683-5.804c-0.361-0.18-0.508-0.617-0.329-0.979c0.18-0.361,0.617-0.508,0.979-0.329
				l11.683,5.804c0.361,0.18,0.508,0.617,0.329,0.979C51.358,41.618,50.921,41.765,50.559,41.585z"/>
		</g>
		<g>
			<path class="st4" d="M49.378,45.155l-12.158-6.04c-0.361-0.18-0.508-0.617-0.329-0.979c0.18-0.361,0.617-0.508,0.979-0.329
				l12.158,6.04c0.361,0.18,0.508,0.617,0.329,0.979S49.739,45.335,49.378,45.155z"/>
		</g>
		<g>
			<path class="st4" d="M48.885,49.067l-13.321-6.618c-0.361-0.18-0.508-0.617-0.329-0.979s0.617-0.508,0.979-0.329l13.321,6.618
				c0.361,0.18,0.508,0.617,0.329,0.979S49.246,49.246,48.885,49.067z"/>
		</g>
		<g>
			<path class="st4" d="M47.575,52.574l-13.668-6.791c-0.361-0.18-0.508-0.617-0.329-0.979c0.18-0.361,0.617-0.508,0.979-0.329
				l13.668,6.791c0.361,0.18,0.508,0.617,0.329,0.979S47.937,52.753,47.575,52.574z"/>
		</g>
		<g>
			<path class="st4" d="M46.659,56.275l-14.782-7.344c-0.361-0.18-0.508-0.617-0.329-0.979c0.18-0.361,0.617-0.508,0.979-0.329
				l14.782,7.344c0.361,0.18,0.508,0.617,0.329,0.979C47.458,56.308,47.02,56.455,46.659,56.275z"/>
		</g>
		<g>
			<path class="st4" d="M45.773,59.992L30.22,52.265c-0.361-0.18-0.508-0.617-0.329-0.979c0.18-0.361,0.617-0.508,0.979-0.329
				l15.553,7.727c0.361,0.18,0.508,0.617,0.329,0.979S46.135,60.172,45.773,59.992z"/>
		</g>
		<g>
			<path class="st4" d="M37.175,59.877l-8.611-4.278c-0.361-0.18-0.508-0.617-0.329-0.979s0.617-0.508,0.979-0.329l8.611,4.278
				c0.361,0.18,0.508,0.617,0.329,0.979C37.974,59.909,37.536,60.057,37.175,59.877z"/>
		</g>
		<g>
			<path class="st4" d="M31.073,61.003l-4.166-2.07c-0.361-0.18-0.508-0.617-0.329-0.979c0.18-0.361,0.617-0.508,0.979-0.329
				l4.166,2.07c0.361,0.18,0.508,0.617,0.329,0.979C31.872,61.036,31.434,61.183,31.073,61.003z"/>
		</g>
	</g>
</g>
</svg>
