<?xml version="1.0" encoding="utf-8"?>
<!-- Generator: Adobe Illustrator 21.1.0, SVG Export Plug-In . SVG Version: 6.00 Build 0)  -->
<svg version="1.1" id="Capa_1" xmlns="http://www.w3.org/2000/svg" xmlns:xlink="http://www.w3.org/1999/xlink" x="0px" y="0px"
	 viewBox="0 0 84.36 84.07" style="enable-background:new 0 0 84.36 84.07;" xml:space="preserve">
<style type="text/css">
	.st0{opacity:0.7;fill:#3B2011;}
	.st1{opacity:0.7;}
	.st2{fill:#A35230;}
	.st3{fill:#513628;}
	.st4{fill:#9F684F;}
	.st5{fill:#C3002F;}
	.st6{fill:#DBC79D;}
	.st7{fill:#CFA175;}
	.st8{fill:#646569;}
	.st9{fill:#FFFFFF;}
	.st10{fill:#369040;}
	
		.st11{opacity:0.7;fill:none;stroke:#FFFFFF;stroke-width:8.2967;stroke-linecap:round;stroke-linejoin:round;stroke-miterlimit:10;}
	.st12{fill:#513528;}
	
		.st13{opacity:0.7;fill:none;stroke:#FFFFFF;stroke-width:4.8855;stroke-linecap:round;stroke-linejoin:round;stroke-miterlimit:10;}
	
		.st14{opacity:0.7;fill:none;stroke:#FFFFFF;stroke-width:4.0904;stroke-linecap:round;stroke-linejoin:round;stroke-miterlimit:10;}
	.st15{opacity:0.7;fill:none;stroke:#FFFFFF;stroke-width:2.225;stroke-linecap:round;stroke-linejoin:round;stroke-miterlimit:10;}
	.st16{fill:#DBC6B4;}
	.st17{fill:#BAA99A;}
	
		.st18{opacity:0.7;fill:none;stroke:#FFFFFF;stroke-width:9.5453;stroke-linecap:round;stroke-linejoin:round;stroke-miterlimit:10;}
	.st19{fill:none;stroke:#369040;stroke-width:5.4545;stroke-miterlimit:10;}
	.st20{fill:#2A8258;}
	.st21{fill:#F7EAE2;}
	.st22{fill:none;}
	.st23{fill:#A55330;}
	.st24{fill:none;stroke:#369040;stroke-width:3.9579;stroke-miterlimit:10;}
	.st25{clip-path:url(#SVGID_12_);}
	.st26{fill:#010202;}
	.st27{fill:none;stroke:#010202;stroke-width:0.2619;stroke-miterlimit:10;}
	.st28{fill:#C31632;}
	.st29{fill:#603726;}
	.st30{fill:none;stroke:#603726;stroke-width:1.2614;stroke-miterlimit:10;}
	.st31{fill:#81A77D;}
	.st32{fill:#F9EEE8;}
	.st33{fill:none;stroke:#369040;stroke-width:3.759;stroke-miterlimit:10;}
	.st34{fill:#414141;}
	.st35{opacity:0.7;fill:#D4C0AB;}
	.st36{fill:#D4C0AB;}
	.st37{opacity:0.7;fill:none;stroke:#796E63;stroke-width:5.012;stroke-linecap:round;stroke-linejoin:round;stroke-miterlimit:10;}
	.st38{opacity:0.7;fill:#796E63;}
	.st39{fill:#796E63;}
	.st40{opacity:0.7;fill:#1C0E08;}
	.st41{fill:none;stroke:#369040;stroke-width:5.7607;stroke-miterlimit:10;}
	.st42{fill:#FFFFFF;stroke:#FFFFFF;stroke-miterlimit:10;}
	.st43{fill:#369040;stroke:#369040;stroke-miterlimit:10;}
	.st44{fill:none;stroke:#369040;stroke-width:1.4402;stroke-miterlimit:10;}
	.st45{fill:#369040;stroke:#FFFFFF;stroke-width:2.9279;stroke-linecap:round;stroke-linejoin:round;stroke-miterlimit:10;}
</style>
<g>
	<circle class="st10" cx="42.155" cy="41.34" r="39.289"/>
	<g>
		<g>
			<g>
				<g>
					<path class="st9" d="M53.128,59.662c2.4,0,4.656-0.879,6.352-2.474c2.862-2.691,2.862-7.069,0-9.759
						c-1.138-1.07-2.651-1.659-4.261-1.659c-1.61,0-3.123,0.589-4.261,1.659c-0.94,0.883-1.457,2.058-1.457,3.307
						s0.518,2.423,1.457,3.307c1.611,1.515,4.234,1.515,5.845,0c0.654-0.614,1.014-1.431,1.014-2.3c0-0.869-0.36-1.685-1.014-2.3
						c-1.139-1.071-2.992-1.071-4.131,0c-0.971,0.913-0.971,2.398,0,3.311c0.3,0.282,0.786,0.282,1.086,0
						c0.3-0.282,0.3-0.739,0-1.021c-0.372-0.35-0.372-0.92,0-1.27c0.54-0.508,1.42-0.508,1.961,0
						c0.363,0.342,0.564,0.796,0.564,1.279c0,0.483-0.2,0.938-0.564,1.279c-1.013,0.952-2.661,0.953-3.674,0
						c-0.649-0.611-1.007-1.422-1.007-2.286s0.358-1.676,1.007-2.286c1.751-1.646,4.6-1.645,6.351,0
						c2.263,2.128,2.263,5.591,0,7.719c-1.407,1.323-3.278,2.051-5.267,2.051c-1.99,0-3.86-0.728-5.267-2.051
						c-0.3-0.282-0.786-0.282-1.086,0c-0.3,0.282-0.3,0.739,0,1.021C48.472,58.783,50.728,59.662,53.128,59.662z"/>
				</g>
			</g>
			<g>
				<g>
					<path class="st9" d="M47.803,46.397c0.197,0,0.393-0.07,0.543-0.211c3.503-3.293,3.503-8.651,0-11.945
						c-2.862-2.691-7.519-2.691-10.381,0c-2.349,2.209-2.349,5.803,0,8.012c0.939,0.883,2.189,1.37,3.517,1.37
						s2.578-0.487,3.517-1.37c1.612-1.515,1.612-3.98,0-5.495c-1.349-1.268-3.544-1.268-4.893,0c-1.139,1.071-1.139,2.814,0,3.884
						c0.971,0.914,2.551,0.914,3.523,0c0.3-0.282,0.3-0.739,0-1.02c-0.3-0.282-0.786-0.282-1.086,0
						c-0.362,0.339-0.991,0.339-1.351,0c-0.541-0.508-0.541-1.335,0-1.843c0.75-0.705,1.971-0.705,2.722,0
						c1.013,0.952,1.013,2.501,0,3.454c-1.341,1.26-3.523,1.26-4.864,0c-1.751-1.646-1.751-4.325,0-5.971
						c1.096-1.031,2.554-1.598,4.105-1.598c1.551,0,3.009,0.568,4.105,1.598c2.904,2.73,2.904,7.173,0,9.903
						c-0.3,0.282-0.3,0.739,0,1.021C47.409,46.327,47.606,46.397,47.803,46.397z"/>
				</g>
			</g>
			<g>
				<g>
					<path class="st9" d="M28.269,56.432c1.543,0,3.087-0.552,4.261-1.657c0.94-0.883,1.457-2.058,1.457-3.306
						c0-1.249-0.518-2.424-1.457-3.307c-1.611-1.516-4.233-1.516-5.845,0c-0.654,0.614-1.014,1.431-1.014,2.3
						c0,0.869,0.36,1.685,1.014,2.3c1.139,1.071,2.993,1.071,4.131,0c0.971-0.913,0.971-2.398,0-3.311
						c-0.3-0.282-0.786-0.282-1.086,0c-0.3,0.282-0.3,0.739,0,1.021c0.372,0.35,0.372,0.92,0,1.27
						c-0.262,0.246-0.61,0.382-0.98,0.382c-0.37,0-0.718-0.136-0.98-0.382c-0.363-0.342-0.564-0.796-0.564-1.279
						c0-0.483,0.2-0.938,0.564-1.279c1.013-0.952,2.661-0.953,3.674,0c1.341,1.26,1.341,3.312,0,4.572
						c-1.751,1.646-4.6,1.645-6.351,0c-2.263-2.128-2.263-5.59,0-7.719c1.407-1.323,3.277-2.051,5.267-2.051
						c1.99,0,3.86,0.728,5.267,2.051c0.3,0.282,0.786,0.282,1.086,0c0.3-0.282,0.3-0.739,0-1.021
						c-1.697-1.595-3.953-2.474-6.353-2.474c-2.4,0-4.656,0.879-6.352,2.474c-2.862,2.691-2.862,7.069,0,9.759
						C25.183,55.88,26.726,56.432,28.269,56.432z"/>
				</g>
			</g>
			<g>
				<g>
					<path class="st9" d="M41.13,70.293c1.88,0,3.76-0.672,5.191-2.018c1.138-1.07,1.765-2.492,1.765-4.006
						c0-1.513-0.627-2.936-1.765-4.006c-1.939-1.824-5.095-1.823-7.035,0c-1.612,1.515-1.612,3.98,0,5.495
						c1.349,1.269,3.544,1.269,4.893,0c1.139-1.071,1.139-2.813,0-3.884c-0.971-0.913-2.551-0.913-3.523,0
						c-0.3,0.282-0.3,0.739,0,1.02c0.3,0.282,0.786,0.282,1.086,0c0.372-0.349,0.979-0.35,1.351,0c0.54,0.508,0.54,1.335,0,1.843
						c-0.75,0.705-1.971,0.705-2.722,0c-1.013-0.952-1.013-2.502,0-3.454c1.341-1.26,3.522-1.26,4.863,0
						c0.848,0.798,1.315,1.858,1.315,2.986c0,1.128-0.467,2.188-1.315,2.985c-2.263,2.128-5.946,2.128-8.21,0
						c-2.904-2.73-2.904-7.173,0-9.903c0.3-0.282,0.3-0.739,0-1.021c-0.299-0.281-0.786-0.281-1.085,0
						c-3.503,3.293-3.503,8.651,0,11.944C37.37,69.62,39.25,70.293,41.13,70.293z"/>
				</g>
			</g>
			<g>
				<g>
					<path class="st9" d="M36.261,57.563h11.198c0.424,0,0.768-0.323,0.768-0.722V45.675c0-0.398-0.344-0.722-0.768-0.722h-8.653
						c-0.424,0-0.768,0.323-0.768,0.722v8.613c0,0.398,0.344,0.722,0.768,0.722h6.108c0.424,0,0.768-0.323,0.768-0.722v-5.327
						c0-0.398-0.344-0.722-0.768-0.722H41.86c-0.424,0-0.768,0.323-0.768,0.722v2.297c0,0.398,0.344,0.722,0.768,0.722
						c0.424,0,0.768-0.323,0.768-0.722v-1.575h1.519v3.884h-4.573v-7.17h7.118v9.722h-9.662V45.675c0-0.398-0.344-0.722-0.768-0.722
						c-0.424,0-0.768,0.323-0.768,0.722v11.166C35.493,57.24,35.837,57.563,36.261,57.563z"/>
				</g>
			</g>
			<g>
				<g>
					<path class="st9" d="M29.116,61.097c0.197,0,0.393-0.07,0.543-0.211l4.959-4.662c0.3-0.282,0.3-0.739,0-1.021
						c-0.299-0.282-0.786-0.282-1.086,0l-4.959,4.662c-0.3,0.282-0.3,0.739,0,1.021C28.723,61.026,28.92,61.097,29.116,61.097z"/>
				</g>
			</g>
			<g>
				<g>
					<path class="st9" d="M53.452,65.767c-0.197,0-0.393-0.07-0.543-0.211l-4.959-4.662c-0.3-0.282-0.3-0.739,0-1.021
						c0.299-0.282,0.786-0.282,1.086,0l4.959,4.662c0.3,0.282,0.3,0.739,0,1.021C53.845,65.696,53.649,65.767,53.452,65.767z"/>
				</g>
			</g>
			<g>
				<line class="st9" x1="49.268" y1="47.134" x2="60.303" y2="37.237"/>
				<path class="st9" d="M49.268,47.917c-0.215,0-0.429-0.088-0.584-0.261c-0.289-0.322-0.262-0.818,0.06-1.107l11.035-9.897
					c0.322-0.289,0.817-0.262,1.107,0.06c0.289,0.322,0.262,0.818-0.06,1.107l-11.035,9.897
					C49.641,47.851,49.454,47.917,49.268,47.917z"/>
			</g>
			<g>
				<line class="st9" x1="37.422" y1="43.508" x2="26.387" y2="33.612"/>
				<path class="st9" d="M37.422,44.292c-0.186,0-0.373-0.066-0.523-0.2l-11.035-9.897c-0.322-0.289-0.349-0.785-0.06-1.107
					c0.289-0.323,0.784-0.349,1.107-0.06l11.035,9.897c0.322,0.289,0.349,0.785,0.06,1.107
					C37.851,44.204,37.637,44.292,37.422,44.292z"/>
			</g>
		</g>
		<g>
			<g>
				<g>
					<g>
						
							<ellipse transform="matrix(0.5517 -0.8341 0.8341 0.5517 -15.146 31.7532)" class="st9" cx="21.963" cy="29.965" rx="1.378" ry="1.295"/>
					</g>
				</g>
			</g>
			<g>
				<g>
					<path class="st9" d="M19.786,28.526c-0.278,0.421-0.844,0.536-1.265,0.258l-5.377-3.557c-0.421-0.278-0.536-0.844-0.258-1.265
						c0.278-0.421,0.844-0.536,1.265-0.258l5.377,3.557C19.949,27.539,20.065,28.105,19.786,28.526z"/>
				</g>
			</g>
			<g>
				<g>
					<path class="st9" d="M26.898,21.81l-3.556,5.377c-0.278,0.421-0.844,0.536-1.265,0.258c-0.421-0.278-0.536-0.844-0.258-1.265
						l3.556-5.377c0.278-0.421,0.844-0.536,1.265-0.258C27.061,20.824,27.177,21.389,26.898,21.81z"/>
				</g>
			</g>
			<g>
				<g>
					<path class="st9" d="M32.335,28.692c-0.14,0.211-0.367,0.364-0.638,0.401l-6.387,0.867c-0.5,0.068-0.96-0.282-1.027-0.781
						c-0.066-0.499,0.282-0.96,0.781-1.027l6.387-0.867c0.5-0.068,0.96,0.282,1.027,0.781
						C32.508,28.293,32.453,28.513,32.335,28.692z"/>
				</g>
			</g>
			<g>
				<g>
					<path class="st9" d="M24.834,39.769c-0.129,0.195-0.332,0.34-0.579,0.391c-0.494,0.101-0.976-0.218-1.076-0.712l-1.287-6.317
						c-0.101-0.494,0.218-0.976,0.712-1.076c0.494-0.101,0.976,0.218,1.076,0.712l1.287,6.317
						C25.017,39.33,24.962,39.574,24.834,39.769z"/>
				</g>
			</g>
			<g>
				<g>
					<path class="st9" d="M19.946,32.321l-3.556,5.377c-0.278,0.421-0.844,0.536-1.265,0.258s-0.536-0.844-0.258-1.265l3.556-5.377
						c0.278-0.421,0.844-0.536,1.265-0.258C20.109,31.335,20.225,31.9,19.946,32.321z"/>
				</g>
			</g>
		</g>
		<g>
			<g>
				<g>
					<g>
						
							<ellipse transform="matrix(0.8649 -0.5019 0.5019 0.8649 -7.8902 37.0872)" class="st9" cx="64.959" cy="33.203" rx="1.295" ry="1.378"/>
					</g>
				</g>
			</g>
			<g>
				<g>
					<path class="st9" d="M67.217,31.893c0.253,0.436,0.811,0.584,1.247,0.331l5.576-3.236c0.436-0.253,0.584-0.811,0.331-1.247
						c-0.253-0.436-0.811-0.584-1.247-0.331l-5.576,3.236C67.112,30.899,66.964,31.457,67.217,31.893z"/>
				</g>
			</g>
			<g>
				<g>
					<path class="st9" d="M60.51,24.773l3.235,5.576c0.253,0.436,0.811,0.584,1.247,0.331s0.584-0.811,0.331-1.247l-3.235-5.576
						c-0.253-0.436-0.811-0.584-1.247-0.331C60.405,23.779,60.257,24.337,60.51,24.773z"/>
				</g>
			</g>
			<g>
				<g>
					<path class="st9" d="M54.68,31.324c0.127,0.219,0.345,0.385,0.613,0.437l6.326,1.239c0.495,0.097,0.975-0.226,1.071-0.72
						c0.095-0.494-0.225-0.975-0.72-1.071l-6.326-1.239c-0.495-0.097-0.975,0.226-1.071,0.72
						C54.53,30.917,54.573,31.139,54.68,31.324z"/>
				</g>
			</g>
			<g>
				<g>
					<path class="st9" d="M61.52,42.822c0.117,0.202,0.311,0.359,0.555,0.424c0.487,0.129,0.987-0.16,1.116-0.648l1.655-6.231
						c0.129-0.487-0.16-0.987-0.648-1.116c-0.487-0.129-0.987,0.16-1.116,0.648l-1.655,6.231
						C61.363,42.373,61.403,42.62,61.52,42.822z"/>
				</g>
			</g>
			<g>
				<g>
					<path class="st9" d="M66.835,35.673l3.235,5.576c0.253,0.436,0.811,0.584,1.247,0.331c0.436-0.253,0.584-0.811,0.331-1.247
						l-3.235-5.576c-0.253-0.436-0.811-0.584-1.247-0.331C66.73,34.679,66.582,35.237,66.835,35.673z"/>
				</g>
			</g>
		</g>
		<g>
			<g>
				<g>
					<g>
						
							<ellipse transform="matrix(0.9999 -0.0153 0.0153 0.9999 -0.3282 0.6714)" class="st9" cx="43.758" cy="21.809" rx="1.378" ry="1.295"/>
					</g>
				</g>
			</g>
			<g>
				<g>
					<path class="st9" d="M43.719,19.199c0.504-0.008,0.906-0.422,0.899-0.926l-0.099-6.446c-0.008-0.504-0.422-0.906-0.926-0.899
						c-0.504,0.008-0.906,0.422-0.899,0.926l0.099,6.446C42.8,18.805,43.214,19.207,43.719,19.199z"/>
				</g>
			</g>
			<g>
				<g>
					<path class="st9" d="M34.229,21.572l6.446-0.099c0.504-0.008,0.906-0.422,0.899-0.926c-0.008-0.504-0.422-0.906-0.926-0.899
						l-6.446,0.099c-0.504,0.008-0.906,0.422-0.899,0.926C33.31,21.178,33.725,21.58,34.229,21.572z"/>
				</g>
			</g>
			<g>
				<g>
					<path class="st9" d="M37.097,29.86c0.253-0.004,0.505-0.113,0.681-0.321l4.172-4.914c0.327-0.385,0.279-0.961-0.104-1.286
						c-0.385-0.325-0.961-0.28-1.286,0.104l-4.172,4.914c-0.327,0.385-0.279,0.961,0.104,1.286
						C36.668,29.791,36.883,29.863,37.097,29.86z"/>
				</g>
			</g>
			<g>
				<g>
					<path class="st9" d="M50.47,29.51c0.233-0.004,0.466-0.096,0.641-0.277c0.351-0.362,0.342-0.939-0.02-1.29l-4.628-4.488
						c-0.362-0.351-0.939-0.342-1.29,0.02c-0.351,0.362-0.342,0.939,0.02,1.29l4.628,4.488C50.002,29.428,50.237,29.513,50.47,29.51
						z"/>
				</g>
			</g>
			<g>
				<g>
					<path class="st9" d="M46.83,21.379l6.446-0.099c0.504-0.008,0.906-0.422,0.899-0.926c-0.008-0.504-0.422-0.906-0.926-0.899
						l-6.446,0.099c-0.504,0.008-0.906,0.422-0.899,0.926C45.911,20.985,46.325,21.387,46.83,21.379z"/>
				</g>
			</g>
		</g>
	</g>
</g>
</svg>
