<?xml version="1.0" encoding="utf-8"?>
<!-- Generator: Adobe Illustrator 21.1.0, SVG Export Plug-In . SVG Version: 6.00 Build 0)  -->
<svg version="1.1" id="Capa_1" xmlns="http://www.w3.org/2000/svg" xmlns:xlink="http://www.w3.org/1999/xlink" x="0px" y="0px"
	 viewBox="0 0 1622.13 1158.25" style="enable-background:new 0 0 1622.13 1158.25;" preserveAspectRatio="xMinYMax slice" xml:space="preserve">
<style type="text/css">
	.st0{opacity:0.7;fill:#3B2011;}
	.st1{opacity:0.7;}
	.st2{fill:#A35230;}
	.st3{fill:#513628;}
	.st4{fill:#9F684F;}
	.st5{fill:#C3002F;}
	.st6{fill:#DBC79D;}
	.st7{fill:#CFA175;}
	.st8{fill:#646569;}
	.st9{fill:#FFFFFF;}
	.st10{fill:#369040;}
	
		.st11{opacity:0.7;fill:none;stroke:#FFFFFF;stroke-width:8.2967;stroke-linecap:round;stroke-linejoin:round;stroke-miterlimit:10;}
	.st12{fill:#513528;}
	
		.st13{opacity:0.7;fill:none;stroke:#FFFFFF;stroke-width:4.8855;stroke-linecap:round;stroke-linejoin:round;stroke-miterlimit:10;}
	
		.st14{opacity:0.7;fill:none;stroke:#FFFFFF;stroke-width:4.0904;stroke-linecap:round;stroke-linejoin:round;stroke-miterlimit:10;}
	.st15{opacity:0.7;fill:none;stroke:#FFFFFF;stroke-width:2.225;stroke-linecap:round;stroke-linejoin:round;stroke-miterlimit:10;}
	.st16{fill:#DBC6B4;}
	.st17{fill:#BAA99A;}
	
		.st18{opacity:0.7;fill:none;stroke:#FFFFFF;stroke-width:9.5453;stroke-linecap:round;stroke-linejoin:round;stroke-miterlimit:10;}
	.st19{fill:none;stroke:#369040;stroke-width:5.4545;stroke-miterlimit:10;}
	.st20{fill:#2A8258;}
	.st21{fill:#F7EAE2;}
	.st22{fill:none;}
	.st23{fill:#A55330;}
	.st24{fill:none;stroke:#369040;stroke-width:3.9579;stroke-miterlimit:10;}
	.st25{fill:#010202;}
	.st26{fill:none;stroke:#010202;stroke-width:0.262;stroke-miterlimit:10;}
	.st27{fill:#C31632;}
	.st28{fill:#603726;}
	.st29{fill:none;stroke:#603726;stroke-width:1.2614;stroke-miterlimit:10;}
	.st30{fill:#81A77D;}
	.st31{fill:#F9EEE8;}
	.st32{fill:none;stroke:#369040;stroke-width:3.759;stroke-miterlimit:10;}
	.st33{fill:#414141;}
	.st34{opacity:0.7;fill:#D4C0AB;}
	.st35{fill:#D4C0AB;}
	.st36{opacity:0.7;fill:none;stroke:#796E63;stroke-width:5.012;stroke-linecap:round;stroke-linejoin:round;stroke-miterlimit:10;}
	.st37{opacity:0.7;fill:#796E63;}
	.st38{fill:#796E63;}
	.st39{opacity:0.7;fill:#1C0E08;}
	.st40{fill:none;stroke:#369040;stroke-width:5.7607;stroke-miterlimit:10;}
	.st41{fill:#FFFFFF;stroke:#FFFFFF;stroke-miterlimit:10;}
	.st42{fill:#369040;stroke:#369040;stroke-miterlimit:10;}
	.st43{fill:none;stroke:#369040;stroke-width:1.4402;stroke-miterlimit:10;}
	.st44{fill:#369040;stroke:#FFFFFF;stroke-width:2.9279;stroke-linecap:round;stroke-linejoin:round;stroke-miterlimit:10;}
</style>
<path class="st21" d="M1622.13,62.824c0,0-32.581,5.823-44.28,5.823c-11.699,0-83.194,4.003-100.093,4.003
	c-16.899,0-154.689-16.013-171.588-15.649c-16.899,0.364-67.595-2.547-80.594-3.275c-12.999-0.728-113.092-7.279-127.391-12.01
	s-114.392-12.373-120.892-12.01c-6.5,0.364-36.398,2.547-45.497,2.547s-97.493,7.643-126.091,6.187
	c-28.598-1.456-59.796,5.459-75.395,5.459c-15.599,0-62.34,17.367-62.34,17.367s-84.778,7.903-217.141-29.377
	c-26.639-7.503-62.396,3.535-79.294,2.132c-16.899-1.404-63.696,6.239-97.493,4.055C240.242,35.894,24.781,46.447,0,46.812v687.933
	l0,0v0.004v192.425h1.251v106.978v124.099c0,0,55.972-14.954,61.171-19.706s16.896-16.528,16.896-16.528l15.597-3.624
	c0,0,2.599,0.906,7.798-2.717s162.467-28.081,179.363-38.045c16.896-9.964,57.188-8.072,57.188-8.072s23.395-18.197,27.294-20.914
	c3.899-2.718,7.798-7.247,7.798-7.247s24.695-6.341,24.695-7.247c0-0.906,89.819-27.397,112.499-42.684s33.715-27.247,33.715-27.247
	s72.846-28.214,93.939-29.868c21.094-1.653,172.251,143.217,194.033,143.843s215.681-70.313,254.672-97.488
	c38.992-27.175,87.313-41.437,91.158-41.598c3.845-0.161,23.21-0.529,23.21-0.529s218.364,90.136,230.061,90.136
	s28.594,5.435,28.594,5.435l152.961,12.143V927.173h8.234V62.824z"/>
</svg>
