<svg id="Capa_1" data-name="Capa 1" xmlns="http://www.w3.org/2000/svg" viewBox="0 0 80.67 111.29"><defs><style>.cls-1{fill:none;stroke:#fff;stroke-linecap:round;stroke-linejoin:round;stroke-width:3px;}.cls-2{fill:#fff;}</style></defs><title>Mesa de trabajo 30</title><rect class="cls-1" x="35.44" y="59.88" width="6.87" height="49.35" rx="3.44" ry="3.44" transform="translate(43 -8.42) rotate(27.23)"/><rect class="cls-2" x="34.12" y="71.11" width="21.95" height="2.71" rx="1.36" ry="1.36" transform="translate(38.15 -12.61) rotate(27.23)"/><path class="cls-1" d="M59.2,23h0A16.46,16.46,0,0,1,75.66,39.48V56a8,8,0,0,1-8,8h-17a8,8,0,0,1-8-8V39.48A16.46,16.46,0,0,1,59.2,23Z" transform="translate(20.79 -19.13) rotate(22.18)"/><rect class="cls-2" x="41.07" y="46.56" width="32.72" height="3.86" transform="translate(22.55 -18.09) rotate(22.18)"/><rect class="cls-2" x="44.18" y="39.93" width="32.72" height="3.52" transform="translate(20.22 -19.77) rotate(22.18)"/><rect class="cls-2" x="38.08" y="53.39" width="32.72" height="3.52" transform="translate(24.84 -16.47) rotate(22.18)"/><path class="cls-1" d="M66.67,23c-5.92-6.47-13-13.18-21.09-16.74-7.89-3.47-12,.12-16.71,6.34a102.63,102.63,0,0,1-17.6,18C9.64,32,7.9,33.32,7.19,35.27a10.32,10.32,0,0,0-.29,4.37,115.06,115.06,0,0,0,5,25.33,18.1,18.1,0,0,0,2.61,5.65c1.61,2.1,4.18,3.48,6.77,2.5,11.09-4.19,16.39-.83,16.39-.83l3,1.23"/></svg>