<svg id="Capa_1" data-name="Capa 1" xmlns="http://www.w3.org/2000/svg" viewBox="0 0 102.18 79.76"><defs><style>.cls-1{fill:#fff;}</style></defs><title>Mesa de trabajo 28</title><path class="cls-1" d="M72.35,9.82a1.19,1.19,0,0,1-.58-.15L67.88,7.54a1,1,0,0,1-.41-1.47A1.18,1.18,0,0,1,69,5.69l3.88,2.13a1,1,0,0,1,.41,1.47A1.16,1.16,0,0,1,72.35,9.82Z"/><path class="cls-1" d="M71.62,12a1.16,1.16,0,0,1-1,.53,1.19,1.19,0,0,1-.58-.15l-3.88-2.13a1,1,0,0,1-.41-1.47,1.18,1.18,0,0,1,1.56-.39l3.88,2.13A1,1,0,0,1,71.62,12Z"/><path class="cls-1" d="M69.92,14.77a1.16,1.16,0,0,1-1,.53,1.19,1.19,0,0,1-.58-.15L64.48,13a1,1,0,0,1-.41-1.47,1.18,1.18,0,0,1,1.56-.39l3.88,2.13A1,1,0,0,1,69.92,14.77Z"/><path class="cls-1" d="M68.22,17.51a1.16,1.16,0,0,1-1,.53,1.19,1.19,0,0,1-.58-.15l-3.88-2.13a1,1,0,0,1-.41-1.47,1.18,1.18,0,0,1,1.56-.39L67.81,16A1,1,0,0,1,68.22,17.51Z"/><path class="cls-1" d="M66.52,20.26a1.16,1.16,0,0,1-1,.53,1.19,1.19,0,0,1-.58-.15l-3.88-2.13a1,1,0,0,1-.41-1.47,1.18,1.18,0,0,1,1.56-.39l3.88,2.13A1,1,0,0,1,66.52,20.26Z"/><path class="cls-1" d="M64.81,23a1.16,1.16,0,0,1-1,.53,1.19,1.19,0,0,1-.58-.15l-3.88-2.13A1,1,0,0,1,59,19.79a1.18,1.18,0,0,1,1.56-.39l3.88,2.13A1,1,0,0,1,64.81,23Z"/><path class="cls-1" d="M63.11,25.74a1.16,1.16,0,0,1-1,.53,1.19,1.19,0,0,1-.58-.15L57.67,24a1,1,0,0,1-.41-1.47,1.18,1.18,0,0,1,1.56-.39l3.88,2.13A1,1,0,0,1,63.11,25.74Z"/><path class="cls-1" d="M61.41,28.49a1.16,1.16,0,0,1-1,.53,1.19,1.19,0,0,1-.58-.15L56,26.75a1,1,0,0,1-.41-1.47,1.18,1.18,0,0,1,1.56-.39L61,27A1,1,0,0,1,61.41,28.49Z"/><path class="cls-1" d="M23.48,31a1.15,1.15,0,0,1,1.42.7,1.07,1.07,0,0,1-.75,1.34c-.36.11-8.89,2.82-11.49,16.76a1.13,1.13,0,0,1-1.11.89l-.21,0a1.08,1.08,0,0,1-.93-1.24C13.28,34.13,23.07,31.13,23.48,31Z"/><path class="cls-1" d="M26.5,32.81a1.15,1.15,0,0,1,1.43.71,1.06,1.06,0,0,1-.76,1.34c-.09,0-8.87,2.72-11.49,16.76a1.13,1.13,0,0,1-1.11.89l-.21,0a1.08,1.08,0,0,1-.93-1.24C16.29,35.93,26.08,32.93,26.5,32.81Z"/><path class="cls-1" d="M7.53,47.56c2.86-15.31,12.65-18.32,13.07-18.44a1.15,1.15,0,0,1,1.43.71,1.06,1.06,0,0,1-.76,1.34c-.09,0-8.87,2.72-11.49,16.76a1.13,1.13,0,0,1-1.11.89l-.21,0A1.08,1.08,0,0,1,7.53,47.56Z"/><path class="cls-1" d="M28.51,35.11l.1,10a4.65,4.65,0,0,0,4,4.44l.25,25.13a2.22,2.22,0,0,0,4.44,0l-.25-25.06,1.84,0,.25,25.06a2.22,2.22,0,0,0,4.44,0l-.25-25.06,21.82-.22.25,25.06a2.22,2.22,0,0,0,4.44,0l-.25-25.06,2,0h.14l8.65,8-8.82,8.46a2,2,0,0,0,0,2.95,2.32,2.32,0,0,0,3.14,0L85.13,58.6a2,2,0,0,0,0-2.95L75.72,47a4.33,4.33,0,0,0,.71-2.22l6.64-24,10-.1A4.72,4.72,0,0,0,97.88,16l0-4.56A4.72,4.72,0,0,0,92.94,7l-14.75.15A5,5,0,0,0,75,8.27l-.17.15a4.51,4.51,0,0,0-1.26,2L61.1,30.23l-13.9.14a3.61,3.61,0,0,1,.34,1.27l-2.57,0a1,1,0,0,0,0,2l4,0h1.07a1.38,1.38,0,1,1,0,2.75l-2.51,0v.87a3.6,3.6,0,0,1-.26,1.36l-2.92,0a1,1,0,1,0,0,1.92h1.21a4.23,4.23,0,0,1-2.07.56l-5.71.06a4.32,4.32,0,0,1-.74-.06,1,1,0,0,0,.16-.55,1.1,1.1,0,0,0-1.14-1l-1.59,0h-.07l-1.88,0a1,1,0,1,1,0-2.09h1.19s0,0,0-.05l0-1.86h-.53a1.44,1.44,0,1,1,0-2.87h.53V32a3.6,3.6,0,0,1,.33-1.53h-.74A4.72,4.72,0,0,0,28.51,35.11ZM79.77,12a2.33,2.33,0,0,1,2.38-2.28h.39A2.33,2.33,0,0,1,85,11.91a2.33,2.33,0,0,1-2.38,2.28h-.39A2.33,2.33,0,0,1,79.77,12Z"/><path class="cls-1" d="M37,36.13a1.33,1.33,0,0,1,1.36-1.3h.22a1.29,1.29,0,1,1,0,2.57h-.22A1.33,1.33,0,0,1,37,36.13Z"/><path class="cls-1" d="M37.42,31.36l2.07,0a1.19,1.19,0,1,1,0,2.37l-2.07,0a1.19,1.19,0,1,1,0-2.37Z"/></svg>