<?xml version="1.0" encoding="utf-8"?>
<!-- Generator: Adobe Illustrator 21.1.0, SVG Export Plug-In . SVG Version: 6.00 Build 0)  -->
<svg version="1.1" id="Capa_1" xmlns="http://www.w3.org/2000/svg" xmlns:xlink="http://www.w3.org/1999/xlink" x="0px" y="0px"
	 viewBox="0 0 252.549 95.366" style="enable-background:new 0 0 252.549 95.366;" xml:space="preserve">
<style type="text/css">
	.st0{opacity:0.7;fill:#3B2011;}
	.st1{opacity:0.7;}
	.st2{fill:#A35230;}
	.st3{fill:#513628;}
	.st4{fill:#9F684F;}
	.st5{fill:#C3002F;}
	.st6{fill:#DBC79D;}
	.st7{fill:#CFA175;}
	.st8{fill:#646569;}
	.st9{fill:#FFFFFF;}
	.st10{fill:#369040;}
	
		.st11{opacity:0.7;fill:none;stroke:#FFFFFF;stroke-width:8.2967;stroke-linecap:round;stroke-linejoin:round;stroke-miterlimit:10;}
	.st12{fill:#513528;}
	
		.st13{opacity:0.7;fill:none;stroke:#FFFFFF;stroke-width:4.8855;stroke-linecap:round;stroke-linejoin:round;stroke-miterlimit:10;}
	
		.st14{opacity:0.7;fill:none;stroke:#FFFFFF;stroke-width:4.0904;stroke-linecap:round;stroke-linejoin:round;stroke-miterlimit:10;}
	.st15{opacity:0.7;fill:none;stroke:#FFFFFF;stroke-width:2.225;stroke-linecap:round;stroke-linejoin:round;stroke-miterlimit:10;}
	.st16{fill:#DBC6B4;}
	.st17{fill:#BAA99A;}
	
		.st18{opacity:0.7;fill:none;stroke:#FFFFFF;stroke-width:9.5453;stroke-linecap:round;stroke-linejoin:round;stroke-miterlimit:10;}
	.st19{fill:none;stroke:#369040;stroke-width:5.4545;stroke-miterlimit:10;}
	.st20{fill:#2A8258;}
	.st21{fill:#F7EAE2;}
	.st22{fill:none;}
	.st23{fill:#A55330;}
	.st24{fill:none;stroke:#369040;stroke-width:3.9579;stroke-miterlimit:10;}
	.st25{clip-path:url(#SVGID_12_);}
	.st26{fill:#010202;}
	.st27{fill:none;stroke:#010202;stroke-width:0.2619;stroke-miterlimit:10;}
	.st28{fill:#C31632;}
	.st29{fill:#603726;}
	.st30{fill:none;stroke:#603726;stroke-width:1.2614;stroke-miterlimit:10;}
	.st31{fill:#81A77D;}
	.st32{fill:#F9EEE8;}
	.st33{fill:none;stroke:#369040;stroke-width:3.759;stroke-miterlimit:10;}
	.st34{fill:#414141;}
	.st35{opacity:0.7;fill:#D4C0AB;}
	.st36{fill:#D4C0AB;}
	.st37{opacity:0.7;fill:none;stroke:#796E63;stroke-width:5.012;stroke-linecap:round;stroke-linejoin:round;stroke-miterlimit:10;}
	.st38{opacity:0.7;fill:#796E63;}
	.st39{fill:#796E63;}
	.st40{opacity:0.7;fill:#1C0E08;}
	.st41{fill:none;stroke:#369040;stroke-width:5.7607;stroke-miterlimit:10;}
	.st42{fill:#FFFFFF;stroke:#FFFFFF;stroke-miterlimit:10;}
	.st43{fill:#369040;stroke:#369040;stroke-miterlimit:10;}
	.st44{fill:none;stroke:#369040;stroke-width:1.4402;stroke-miterlimit:10;}
	.st45{fill:#369040;stroke:#FFFFFF;stroke-width:2.9279;stroke-linecap:round;stroke-linejoin:round;stroke-miterlimit:10;}
</style>
<g>
	<g>
		<path class="st10" d="M19.391,85.191h3.742c-0.156,0.801-0.539,1.534-1.141,2.188c-0.928,1.018-2.123,1.513-3.654,1.513
			c-1.432,0-2.59-0.452-3.536-1.38c-0.928-0.926-1.378-2.077-1.378-3.52c0-1.431,0.456-2.582,1.394-3.52
			c0.939-0.939,2.091-1.395,3.521-1.395c1.754,0,3.079,0.648,4.048,1.982l0.208,0.285l1.086-0.823l-0.206-0.275
			c-1.244-1.661-2.971-2.503-5.136-2.503c-1.803,0-3.314,0.597-4.493,1.774c-1.167,1.167-1.758,2.673-1.758,4.476
			c0,1.825,0.592,3.342,1.758,4.508c1.156,1.157,2.667,1.743,4.493,1.743c1.913,0,3.475-0.627,4.643-1.861
			c1.077-1.133,1.624-2.544,1.624-4.196V83.84h-5.213V85.191z"/>
		<path class="st10" d="M33.766,84.156c0.428-0.124,0.809-0.322,1.131-0.589c0.326-0.271,0.58-0.617,0.757-1.031
			c0.173-0.406,0.261-0.891,0.261-1.439c0-0.51-0.095-0.972-0.282-1.37c-0.187-0.396-0.44-0.736-0.755-1.008
			c-0.316-0.272-0.692-0.478-1.118-0.614c-0.419-0.133-0.866-0.201-1.328-0.201H29.43v12.179h1.336v-5.744h0.703l3.652,5.744h1.596
			l-3.706-5.777C33.276,84.275,33.528,84.225,33.766,84.156z M30.766,79.254h1.649c0.306,0,0.598,0.041,0.865,0.122
			c0.259,0.079,0.486,0.194,0.675,0.344c0.184,0.144,0.325,0.324,0.432,0.55c0.106,0.226,0.16,0.499,0.16,0.811
			c0,0.633-0.171,1.097-0.522,1.418c-0.361,0.329-0.829,0.489-1.432,0.489h-1.826V79.254z"/>
		<path class="st10" d="M40.486,90.082h1.385l1.336-3.443h4.754l1.32,3.443h1.403L45.576,76.92L40.486,90.082z M43.732,85.288
			l1.845-4.776l1.844,4.776H43.732z"/>
		<polygon class="st10" points="63.539,87.285 54.964,77.23 54.964,90.082 56.299,90.082 56.299,80.916 64.892,90.859 
			64.892,77.903 63.539,77.903 		"/>
		<path class="st10" d="M72.823,87.42c0,1.439-0.603,1.439-0.86,1.439c-0.398,0-0.68-0.178-0.887-0.56L70.9,87.975l-1.149,0.723
			l0.153,0.284c0.438,0.816,1.136,1.228,2.075,1.228c1.002,0,2.196-0.478,2.196-2.759v-9.549h-1.352V87.42z"/>
		<path class="st10" d="M78.07,90.082h1.385l1.335-3.443h4.754l1.319,3.443h1.403L83.16,76.92L78.07,90.082z M81.316,85.288
			l1.844-4.776l1.844,4.776H81.316z"/>
		<polygon class="st10" points="106.039,90.082 112.251,90.082 112.251,88.731 107.392,88.731 107.392,84.145 112.251,84.145 
			112.251,82.745 107.392,82.745 107.392,79.254 112.251,79.254 112.251,77.903 106.039,77.903 		"/>
		<path class="st10" d="M125.924,78.197c-0.828-0.302-1.767-0.455-2.789-0.455c-1.825,0-3.342,0.591-4.509,1.759
			c-1.156,1.156-1.742,2.667-1.742,4.491c0,1.825,0.592,3.342,1.758,4.508c1.156,1.157,2.667,1.743,4.493,1.743
			c0.155,0,0.304-0.003,0.449-0.008c0.146-0.006,0.281-0.014,0.404-0.025c1.088-0.101,1.968-0.394,2.618-0.869l0.914-0.667v-1.61
			l-0.549,0.398c-0.603,0.437-1.106,0.757-1.493,0.951c-0.658,0.319-1.446,0.48-2.343,0.48c-1.452,0-2.608-0.451-3.537-1.38
			c-0.917-0.915-1.362-2.067-1.362-3.52c0-1.452,0.451-2.608,1.378-3.537c0.928-0.927,2.08-1.378,3.521-1.378
			c0.841,0,1.658,0.16,2.424,0.473c0.503,0.21,0.971,0.495,1.392,0.848l0.568,0.474v-1.73l-0.133-0.104
			C126.92,78.674,126.43,78.392,125.924,78.197z"/>
		<path class="st10" d="M137.036,77.742c-1.825,0-3.342,0.591-4.509,1.759c-1.156,1.156-1.742,2.667-1.742,4.491
			c0,1.825,0.592,3.341,1.759,4.508c1.156,1.157,2.667,1.743,4.492,1.743c1.825,0,3.342-0.592,4.507-1.757
			c1.168-1.158,1.76-2.669,1.76-4.494c0-1.824-0.592-3.34-1.761-4.51C140.365,78.327,138.849,77.742,137.036,77.742z
			 M137.036,79.077c1.462,0,2.625,0.451,3.553,1.378c0.917,0.918,1.362,2.075,1.362,3.537c0,1.473-0.445,2.636-1.36,3.551
			c-0.929,0.908-2.092,1.349-3.555,1.349c-1.452,0-2.608-0.451-3.536-1.38c-0.917-0.916-1.363-2.067-1.363-3.52
			c0-1.452,0.451-2.608,1.379-3.537C134.443,79.528,135.594,79.077,137.036,79.077z"/>
		<polygon class="st10" points="146.182,79.254 148.725,79.254 148.725,90.082 150.077,90.082 150.077,79.254 152.619,79.254 
			152.619,77.903 146.182,77.903 		"/>
		<path class="st10" d="M163.011,86.873c0,0.612-0.225,1.085-0.688,1.45c-0.446,0.35-0.987,0.521-1.653,0.521
			c-0.668,0-1.224-0.171-1.653-0.506c-0.452-0.352-0.671-0.832-0.671-1.465v-8.97h-1.336v8.97c0,1.035,0.372,1.872,1.11,2.489
			c0.684,0.553,1.541,0.833,2.551,0.833c1.044,0,1.903-0.276,2.553-0.819c0.756-0.623,1.14-1.466,1.14-2.503v-8.97h-1.352V86.873z"
			/>
		<path class="st10" d="M173.558,84.156c0.428-0.124,0.809-0.322,1.131-0.589c0.326-0.271,0.58-0.617,0.757-1.031
			c0.173-0.406,0.261-0.891,0.261-1.439c0-0.509-0.095-0.97-0.282-1.37c-0.187-0.396-0.44-0.736-0.755-1.008
			c-0.316-0.272-0.692-0.478-1.118-0.614c-0.42-0.133-0.866-0.201-1.328-0.201h-3.001v12.179h1.336v-5.744h0.703l3.652,5.744h1.596
			l-3.706-5.777C173.068,84.275,173.32,84.225,173.558,84.156z M170.558,79.254h1.649c0.306,0,0.598,0.041,0.865,0.122
			c0.259,0.079,0.486,0.194,0.675,0.344c0.184,0.144,0.325,0.324,0.432,0.55c0.106,0.226,0.16,0.499,0.16,0.811
			c0,0.633-0.171,1.097-0.522,1.418c-0.361,0.329-0.829,0.489-1.432,0.489h-1.826V79.254z"/>
		<polygon class="st10" points="183.218,75.002 180.913,77.306 181.543,77.903 181.176,77.903 181.176,90.082 182.512,90.082 
			182.512,77.903 181.924,77.903 184.001,75.824 		"/>
		<path class="st10" d="M193.253,83.512c-0.374-0.226-0.813-0.451-1.339-0.687c-0.965-0.438-1.368-0.69-1.526-0.816
			c-0.396-0.341-0.588-0.724-0.588-1.17c0-0.508,0.18-0.906,0.553-1.217c0.356-0.302,0.799-0.448,1.353-0.448
			c0.531,0,0.962,0.101,1.292,0.308c0.247,0.141,0.465,0.365,0.648,0.667l0.157,0.258l1.254-0.546l-0.185-0.333
			c-0.621-1.122-1.686-1.69-3.167-1.69c-0.898,0-1.668,0.278-2.283,0.822c-0.647,0.549-0.975,1.281-0.975,2.178
			c0,0.895,0.322,1.627,0.951,2.171c0.363,0.329,1.003,0.695,1.958,1.122c0.472,0.209,0.86,0.398,1.165,0.567
			c0.353,0.194,0.534,0.334,0.629,0.421c0.496,0.441,0.736,0.976,0.736,1.641c0,0.706-0.197,1.221-0.603,1.572
			c-0.405,0.35-0.984,0.527-1.721,0.527c-1.283,0-2.069-0.591-2.402-1.805l-0.097-0.356l-1.324,0.455l0.097,0.319
			c0.551,1.817,1.804,2.738,3.726,2.738c0.605,0,1.142-0.082,1.602-0.246c1.377-0.515,2.076-1.594,2.076-3.204
			c0-1.003-0.349-1.856-1.035-2.529C193.96,83.987,193.64,83.744,193.253,83.512z"/>
		<polygon class="st10" points="199.26,79.254 201.803,79.254 201.803,90.082 203.155,90.082 203.155,79.254 205.697,79.254 
			205.697,77.903 199.26,77.903 		"/>
		<rect x="210.105" y="77.903" class="st10" width="1.336" height="12.179"/>
		<path class="st10" d="M225.162,78.197c-0.828-0.302-1.767-0.455-2.789-0.455c-1.825,0-3.342,0.591-4.509,1.759
			c-1.156,1.156-1.742,2.667-1.742,4.491c0,1.825,0.592,3.342,1.758,4.508c1.156,1.157,2.667,1.743,4.493,1.743
			c0.155,0,0.304-0.003,0.449-0.008c0.146-0.006,0.281-0.014,0.404-0.025c1.088-0.101,1.968-0.394,2.618-0.869l0.914-0.667v-1.61
			l-0.549,0.398c-0.603,0.437-1.106,0.757-1.493,0.951c-0.658,0.319-1.446,0.48-2.343,0.48c-1.452,0-2.608-0.451-3.537-1.38
			c-0.917-0.915-1.362-2.067-1.362-3.52c0-1.452,0.451-2.608,1.378-3.537c0.928-0.927,2.08-1.378,3.521-1.378
			c0.841,0,1.658,0.16,2.424,0.473c0.502,0.21,0.97,0.495,1.392,0.848l0.568,0.474v-1.73l-0.133-0.104
			C226.158,78.674,225.668,78.392,225.162,78.197z"/>
		<path class="st10" d="M235.356,76.92l-5.09,13.162h1.385l1.335-3.443h4.754l1.319,3.443h1.403L235.356,76.92z M233.512,85.288
			l1.845-4.776l1.844,4.776H233.512z"/>
	</g>
	<g>
		<g>
			<path class="st12" d="M5.59,16.38l2.752,45.908c4.295,0,8.604-0.277,12.924-0.832c4.321-0.555,8.751-1.075,13.287-1.558
				l0.291,2.39c-0.05,0-0.496,0.06-1.341,0.181c-0.844,0.121-1.956,0.265-3.33,0.434c-1.377,0.171-2.932,0.352-4.671,0.543
				c-1.739,0.195-3.475,0.388-5.214,0.581c-1.739,0.193-3.403,0.386-4.997,0.579c-1.592,0.193-2.969,0.338-4.126,0.434
				c-0.048,0-0.171,0.012-0.362,0.036c-0.195,0.024-0.412,0.036-0.653,0.036s-0.482,0-0.724,0c-0.241,0-0.434,0-0.579,0
				c-1.063,0-1.932-0.567-2.607-1.702c-0.677-1.134-1.232-2.679-1.666-4.633c-0.434-1.956-0.748-4.201-0.941-6.735
				c-0.193-2.534-0.338-5.178-0.434-7.929c-0.098-2.752-0.135-5.527-0.109-8.327c0.024-2.8,0.036-5.441,0.036-7.929
				c0-2.486-0.012-4.743-0.036-6.769c-0.026-2.028-0.109-3.596-0.253-4.707H5.59z"/>
			<path class="st12" d="M37.957,58.813c0-2.752,0.76-4.755,2.279-6.012c1.521-1.254,3.513-1.881,5.975-1.881
				c0.965,0,1.869,0.024,2.715,0.072c0.844,0.048,1.652,0.169,2.424,0.362s1.534,0.482,2.281,0.868
				c0.748,0.388,1.534,0.943,2.354,1.666c0-0.145,0.012-0.446,0.036-0.904c0.024-0.458,0.036-0.953,0.036-1.485
				c0-0.531,0-1.025,0-1.485c0-0.458,0-0.784,0-0.977c-0.048-0.868-0.072-1.992-0.072-3.367c0-1.377-0.109-2.788-0.326-4.237
				c-0.217-1.447-0.651-2.824-1.302-4.126c-0.653-1.304-1.702-2.293-3.152-2.969c-1.013,0-1.954,0.169-2.824,0.506
				c-0.868,0.338-1.737,0.699-2.607,1.085c-0.868,0.388-1.737,0.738-2.607,1.051c-0.868,0.314-1.809,0.47-2.824,0.47
				c0-1.206,0.374-2.209,1.124-3.005c0.748-0.798,1.652-1.413,2.715-1.847c1.061-0.434,2.173-0.724,3.33-0.868
				c1.158-0.145,2.173-0.217,3.041-0.217c0.87,0.145,1.676,0.314,2.426,0.506c0.748,0.193,1.449,0.579,2.1,1.158
				c0.651,0.579,1.254,1.461,1.811,2.643c0.553,1.184,1.037,2.836,1.447,4.96c0.41,2.124,0.772,4.816,1.085,8.074
				c0.314,3.258,0.567,7.254,0.762,11.983c0.096,0.629-0.109,1.172-0.615,1.63c-0.509,0.46-1.196,0.846-2.064,1.158
				c-0.87,0.316-1.847,0.581-2.932,0.798c-1.087,0.217-2.185,0.374-3.296,0.47c-1.109,0.096-2.171,0.169-3.186,0.217
				c-1.013,0.048-1.859,0.072-2.534,0.072c-0.868,0-1.751-0.145-2.643-0.434c-0.892-0.289-1.712-0.712-2.462-1.268
				c-0.748-0.553-1.351-1.23-1.809-2.026C38.184,60.658,37.957,59.778,37.957,58.813z M47.369,53.744
				c-2.414,0.675-4.104,1.483-5.069,2.426c-0.967,0.941-1.389,1.845-1.266,2.715c0.119,0.868,0.687,1.654,1.7,2.354
				c1.015,0.699,2.245,1.158,3.694,1.375c1.447,0.217,3.015,0.098,4.705-0.362c1.69-0.458,3.306-1.363,4.852-2.715
				c-0.579-1.399-1.158-2.474-1.737-3.222c-0.581-0.748-1.208-1.314-1.883-1.702c-0.677-0.386-1.425-0.627-2.245-0.724
				C49.299,53.792,48.382,53.744,47.369,53.744z"/>
			<path class="st12" d="M109.791,60.26c-1.883,0.967-3.547,1.739-4.997,2.317c-1.449,0.579-2.848,1.027-4.201,1.341
				c-1.351,0.314-2.715,0.519-4.09,0.615c-1.377,0.096-2.959,0.145-4.743,0.145c-2.366,0-4.488-0.277-6.371-0.832
				c-1.883-0.555-3.489-1.401-4.816-2.534c-1.329-1.134-2.354-2.583-3.077-4.345c-0.724-1.761-1.085-3.897-1.085-6.408
				c0-2.269,0.227-4.659,0.687-7.169c0.458-2.51,1.134-5.009,2.028-7.495c0.892-2.486,2.002-4.874,3.33-7.167
				c1.327-2.293,2.884-4.309,4.669-6.048c1.787-1.737,3.791-3.123,6.012-4.163c2.219-1.037,4.681-1.558,7.384-1.558
				c1.015,0,2.221,0.109,3.622,0.326c1.399,0.217,2.739,0.581,4.018,1.087c1.278,0.506,2.354,1.23,3.222,2.171
				c0.87,0.943,1.304,2.137,1.304,3.586c0,0.531-0.253,0.784-0.76,0.76c-0.509-0.024-1.136-0.205-1.883-0.543
				c-0.75-0.338-1.594-0.772-2.534-1.304c-0.941-0.531-1.847-1.037-2.715-1.519c-0.868-0.482-1.666-0.892-2.39-1.232
				c-0.724-0.336-1.28-0.458-1.664-0.362c-2.317,0-4.418,0.448-6.301,1.341c-1.883,0.892-3.584,2.088-5.105,3.584
				c-1.519,1.497-2.848,3.222-3.982,5.177c-1.136,1.956-2.076,3.996-2.824,6.118c-0.75,2.124-1.304,4.237-1.666,6.337
				c-0.362,2.098-0.543,4.09-0.543,5.973c-0.338,2.269-0.205,4.235,0.398,5.901c0.603,1.666,1.507,3.041,2.715,4.128
				c1.206,1.085,2.655,1.893,4.345,2.424c1.688,0.533,3.439,0.834,5.25,0.906c1.809,0.072,3.608-0.096,5.395-0.506
				c1.785-0.41,3.415-1.025,4.886-1.847c1.473-0.82,2.679-1.835,3.622-3.041c0.941-1.206,1.483-2.559,1.628-4.056
				c0-1.544-0.301-2.848-0.904-3.909c-0.605-1.061-1.401-1.956-2.39-2.679c-0.989-0.724-2.124-1.304-3.403-1.739
				c-1.28-0.434-2.583-0.772-3.911-1.013c-1.327-0.241-2.655-0.41-3.982-0.506c-1.329-0.096-2.547-0.217-3.656-0.362v-1.304
				c0-0.096,0.639-0.265,1.917-0.506c1.278-0.241,2.8-0.506,4.562-0.796c1.763-0.291,3.584-0.581,5.467-0.87
				c1.883-0.289,3.475-0.506,4.78-0.651c0.482-0.048,0.868-0.072,1.158-0.072c0.289,0,0.581,0,0.87,0c0.289,0,0.531,0,0.724,0
				c0.096,0,0.277,0,0.543,0c0.265,0,0.543,0,0.832,0c0.291,0,0.567,0.012,0.834,0.036c0.263,0.024,0.446,0.036,0.543,0.036
				c0.048,0.677,0.109,1.751,0.181,3.222c0.072,1.473,0.157,3.113,0.253,4.924c0.096,1.811,0.193,3.728,0.289,5.756
				c0.096,2.028,0.193,3.947,0.289,5.756c0.096,1.811,0.181,3.441,0.253,4.888C113.881,64.027,109.791,60.26,109.791,60.26z"/>
			<path class="st12" d="M117.105,36.945c0-0.241,0.155-0.482,0.47-0.726c0.314-0.241,0.699-0.434,1.158-0.579
				c0.458-0.145,0.904-0.241,1.341-0.289c0.434-0.048,0.748,0.024,0.941,0.217c0.289,5.985,0.856,10.753,1.702,14.3
				c0.844,3.549,1.809,6.144,2.896,7.784c1.085,1.642,2.255,2.474,3.511,2.498c1.254,0.026,2.486-0.506,3.692-1.592
				c1.206-1.087,2.329-2.571,3.369-4.454c1.037-1.883,1.881-3.911,2.534-6.082c0.651-2.173,1.049-4.345,1.194-6.518
				c0.145-2.173-0.048-4.102-0.579-5.793l4.343-0.506c0.048,0.724,0.181,1.919,0.4,3.584c0.217,1.666,0.456,3.549,0.724,5.648
				c0.265,2.1,0.567,4.285,0.904,6.554c0.338,2.269,0.627,4.38,0.868,6.335s0.458,3.62,0.653,4.997
				c0.191,1.377,0.289,2.233,0.289,2.571h-3.113l-3.405-12.528c-0.675,1.69-1.495,3.308-2.462,4.852
				c-0.965,1.546-2.016,2.896-3.15,4.056c-1.134,1.158-2.329,2.062-3.584,2.715c-1.256,0.651-2.498,0.917-3.728,0.796
				c-1.232-0.121-2.426-0.687-3.586-1.702c-1.158-1.013-2.233-2.617-3.222-4.816c-0.991-2.195-1.847-5.031-2.571-8.508
				C117.973,46.285,117.441,42.012,117.105,36.945z"/>
			<path class="st12" d="M150.268,58.813c0-2.752,0.76-4.755,2.279-6.012c1.521-1.254,3.513-1.881,5.975-1.881
				c0.965,0,1.869,0.024,2.715,0.072c0.844,0.048,1.652,0.169,2.424,0.362c0.772,0.193,1.534,0.482,2.281,0.868
				c0.748,0.388,1.534,0.943,2.354,1.666c0-0.145,0.012-0.446,0.036-0.904c0.024-0.458,0.036-0.953,0.036-1.485
				c0-0.531,0-1.025,0-1.485c0-0.458,0-0.784,0-0.977c-0.048-0.868-0.072-1.992-0.072-3.367c0-1.377-0.109-2.788-0.326-4.237
				c-0.217-1.447-0.651-2.824-1.302-4.126c-0.653-1.304-1.702-2.293-3.152-2.969c-1.013,0-1.954,0.169-2.824,0.506
				c-0.868,0.338-1.737,0.699-2.607,1.085c-0.868,0.388-1.737,0.738-2.607,1.051c-0.868,0.314-1.809,0.47-2.824,0.47
				c0-1.206,0.374-2.209,1.124-3.005c0.748-0.798,1.652-1.413,2.715-1.847c1.061-0.434,2.173-0.724,3.33-0.868
				c1.158-0.145,2.173-0.217,3.041-0.217c0.87,0.145,1.676,0.314,2.426,0.506c0.748,0.193,1.449,0.579,2.1,1.158
				c0.651,0.579,1.254,1.461,1.811,2.643c0.553,1.184,1.037,2.836,1.447,4.96c0.41,2.124,0.772,4.816,1.085,8.074
				c0.314,3.258,0.567,7.254,0.762,11.983c0.096,0.629-0.109,1.172-0.615,1.63c-0.509,0.46-1.196,0.846-2.064,1.158
				c-0.87,0.316-1.847,0.581-2.932,0.798c-1.087,0.217-2.185,0.374-3.296,0.47c-1.109,0.096-2.171,0.169-3.186,0.217
				c-1.013,0.048-1.859,0.072-2.534,0.072c-0.868,0-1.751-0.145-2.643-0.434c-0.892-0.289-1.712-0.712-2.462-1.268
				c-0.748-0.553-1.351-1.23-1.809-2.026C150.495,60.658,150.268,59.778,150.268,58.813z M159.681,53.744
				c-2.414,0.675-4.104,1.483-5.069,2.426c-0.967,0.941-1.389,1.845-1.266,2.715c0.119,0.868,0.687,1.654,1.7,2.354
				c1.015,0.699,2.245,1.158,3.694,1.375c1.447,0.217,3.015,0.098,4.705-0.362c1.69-0.458,3.306-1.363,4.852-2.715
				c-0.579-1.399-1.158-2.474-1.737-3.222c-0.581-0.748-1.208-1.314-1.883-1.702c-0.677-0.386-1.425-0.627-2.245-0.724
				C161.61,53.792,160.694,53.744,159.681,53.744z"/>
			<path class="st12" d="M175.322,52.657c0-1.785,0.289-3.765,0.868-5.937c0.579-2.173,1.423-4.187,2.534-6.046
				c1.109-1.857,2.486-3.415,4.126-4.671c1.642-1.254,3.549-1.881,5.72-1.881c1.111-0.147,2.004-0.036,2.679,0.326
				c0.675,0.362,1.196,0.929,1.558,1.7c0.362,0.774,0.603,1.654,0.724,2.643c0.121,0.991,0.193,2.004,0.217,3.041
				c0.024,1.039,0.024,2.004,0,2.896c-0.024,0.894,0.012,1.63,0.109,2.209h-1.809c-0.048-0.289-0.135-0.977-0.253-2.062
				c-0.123-1.087-0.328-2.209-0.617-3.369c-0.289-1.158-0.687-2.195-1.194-3.113c-0.507-0.917-1.22-1.375-2.137-1.375
				c-1.353,0-2.619,0.531-3.801,1.592c-1.184,1.063-2.209,2.342-3.077,3.839c-0.87,1.495-1.57,3.041-2.1,4.633
				c-0.533,1.594-0.796,2.922-0.796,3.984c0.046,1.206,0.217,2.522,0.507,3.945c0.289,1.425,0.76,2.715,1.411,3.875
				c0.651,1.158,1.509,2.098,2.571,2.824c1.061,0.724,2.366,0.941,3.911,0.651c1.158,0,2.267-0.241,3.33-0.724
				c1.061-0.482,2.1-0.989,3.113-1.521c1.013-0.531,2.038-1.037,3.077-1.519c1.037-0.482,2.137-0.726,3.294-0.726
				c0,1.256-0.458,2.354-1.375,3.296c-0.919,0.941-2.04,1.7-3.367,2.279c-1.329,0.581-2.729,1.015-4.201,1.304
				c-1.473,0.289-2.715,0.434-3.728,0.434c-1.642,0-3.15-0.338-4.526-1.013c-1.375-0.675-2.571-1.582-3.584-2.715
				c-1.015-1.134-1.799-2.462-2.354-3.984C175.597,55.953,175.322,54.347,175.322,52.657z"/>
			<path class="st12" d="M205.444,15.367l1.881,23.749c0.338-0.289,0.772-0.724,1.304-1.302c0.531-0.579,1.158-1.124,1.881-1.63
				c0.726-0.506,1.521-0.941,2.39-1.302c0.87-0.362,1.811-0.519,2.824-0.47c1.98,0.193,3.56,0.989,4.743,2.39
				c1.182,1.399,2.076,3.113,2.679,5.139c0.603,2.028,1.001,4.237,1.196,6.627c0.191,2.39,0.253,4.671,0.181,6.842
				c-0.072,2.173-0.195,4.104-0.362,5.795c-0.171,1.69-0.303,2.848-0.4,3.475l-2.607-0.362c0-0.434,0.012-1.124,0.036-2.064
				c0.024-0.941,0.06-2.052,0.109-3.33c0.048-1.278,0.074-2.619,0.074-4.02c0-1.399,0.01-2.715,0.036-3.945
				c0.022-1.232,0.022-2.329,0-3.294c-0.026-0.967-0.062-1.642-0.111-2.028c0.048-1.351-0.217-2.655-0.796-3.911
				c-0.579-1.254-1.351-2.207-2.317-2.86c-0.965-0.651-2.124-0.868-3.475-0.651c-1.353,0.217-2.8,1.172-4.345,2.86
				c-1.351,2.028-2.342,4.02-2.969,5.973c-0.627,1.956-1.037,3.887-1.23,5.793c-0.193,1.909-0.265,3.863-0.217,5.867
				c0.046,2.004,0.046,4.116,0,6.335l-2.824-0.434c0.145-0.531,0.253-1.509,0.326-2.932c0.072-1.423,0.133-3.137,0.181-5.141
				c0.048-2.004,0.084-4.237,0.109-6.699c0.024-2.462,0.024-5.007,0-7.638c-0.024-2.631-0.06-5.274-0.109-7.929
				c-0.048-2.655-0.109-5.19-0.181-7.603c-0.072-2.414-0.145-4.635-0.217-6.663c-0.072-2.026-0.135-3.692-0.181-4.997
				L205.444,15.367z"/>
			<path class="st12" d="M227.459,58.813c0-2.752,0.76-4.755,2.279-6.012c1.521-1.254,3.513-1.881,5.975-1.881
				c0.965,0,1.869,0.024,2.715,0.072c0.844,0.048,1.652,0.169,2.424,0.362c0.772,0.193,1.534,0.482,2.281,0.868
				c0.748,0.388,1.534,0.943,2.354,1.666c0-0.145,0.012-0.446,0.036-0.904c0.024-0.458,0.036-0.953,0.036-1.485
				c0-0.531,0-1.025,0-1.485c0-0.458,0-0.784,0-0.977c-0.048-0.868-0.072-1.992-0.072-3.367c0-1.377-0.109-2.788-0.326-4.237
				c-0.217-1.447-0.651-2.824-1.302-4.126c-0.653-1.304-1.702-2.293-3.152-2.969c-1.013,0-1.954,0.169-2.824,0.506
				c-0.868,0.338-1.737,0.699-2.607,1.085c-0.868,0.388-1.737,0.738-2.607,1.051c-0.868,0.314-1.809,0.47-2.824,0.47
				c0-1.206,0.374-2.209,1.124-3.005c0.748-0.798,1.652-1.413,2.715-1.847c1.061-0.434,2.173-0.724,3.33-0.868
				c1.158-0.145,2.173-0.217,3.041-0.217c0.87,0.145,1.676,0.314,2.426,0.506c0.748,0.193,1.449,0.579,2.1,1.158
				c0.651,0.579,1.254,1.461,1.811,2.643c0.553,1.184,1.037,2.836,1.447,4.96c0.41,2.124,0.772,4.816,1.085,8.074
				c0.314,3.258,0.567,7.254,0.762,11.983c0.096,0.629-0.109,1.172-0.615,1.63c-0.508,0.46-1.196,0.846-2.064,1.158
				c-0.87,0.316-1.847,0.581-2.932,0.798c-1.087,0.217-2.185,0.374-3.296,0.47c-1.109,0.096-2.171,0.169-3.186,0.217
				c-1.013,0.048-1.859,0.072-2.534,0.072c-0.868,0-1.751-0.145-2.643-0.434c-0.892-0.289-1.712-0.712-2.462-1.268
				c-0.748-0.553-1.351-1.23-1.809-2.026C227.686,60.658,227.459,59.778,227.459,58.813z M236.871,53.744
				c-2.414,0.675-4.104,1.483-5.069,2.426c-0.967,0.941-1.389,1.845-1.266,2.715c0.119,0.868,0.687,1.654,1.7,2.354
				c1.015,0.699,2.245,1.158,3.694,1.375c1.447,0.217,3.015,0.098,4.705-0.362c1.69-0.458,3.306-1.363,4.852-2.715
				c-0.579-1.399-1.158-2.474-1.737-3.222c-0.581-0.748-1.208-1.314-1.883-1.702c-0.677-0.386-1.425-0.627-2.245-0.724
				C238.801,53.792,237.884,53.744,236.871,53.744z"/>
		</g>
		<g>
			<path class="st12" d="M95.205,84.334c-0.862,0-1.598-0.655-1.681-1.531c-1.061-11.16,6.455-12.441,11.429-13.29
				c2.061-0.35,3.479-1.228,4.337-2.681c1.847-3.131,0.675-8.336,0.067-10.077c-0.307-0.882,0.158-1.846,1.04-2.154
				c0.882-0.305,1.846,0.158,2.153,1.039c0.11,0.317,2.667,7.802-0.348,12.91c-1.375,2.329-3.623,3.774-6.681,4.296
				c-5.846,0.997-9.344,2.142-8.632,9.636c0.089,0.929-0.593,1.754-1.523,1.843C95.312,84.332,95.258,84.334,95.205,84.334z"/>
		</g>
	</g>
</g>
</svg>
