<?xml version="1.0" encoding="utf-8"?>
<!-- Generator: Adobe Illustrator 21.1.0, SVG Export Plug-In . SVG Version: 6.00 Build 0)  -->
<svg version="1.1" id="Capa_1" xmlns="http://www.w3.org/2000/svg" xmlns:xlink="http://www.w3.org/1999/xlink" x="0px" y="0px"
	 viewBox="0 0 101.49 99.52" style="enable-background:new 0 0 101.49 99.52;" xml:space="preserve">
<style type="text/css">
	.st0{opacity:0.7;fill:#3B2011;}
	.st1{opacity:0.7;}
	.st2{fill:#A35230;}
	.st3{fill:#513628;}
	.st4{fill:#9F684F;}
	.st5{fill:#C3002F;}
	.st6{fill:#DBC79D;}
	.st7{fill:#CFA175;}
	.st8{fill:#646569;}
	.st9{fill:#FFFFFF;}
	.st10{fill:#369040;}
	
		.st11{opacity:0.7;fill:none;stroke:#FFFFFF;stroke-width:8.2967;stroke-linecap:round;stroke-linejoin:round;stroke-miterlimit:10;}
	.st12{fill:#513528;}
	
		.st13{opacity:0.7;fill:none;stroke:#FFFFFF;stroke-width:4.8855;stroke-linecap:round;stroke-linejoin:round;stroke-miterlimit:10;}
	
		.st14{opacity:0.7;fill:none;stroke:#FFFFFF;stroke-width:4.0904;stroke-linecap:round;stroke-linejoin:round;stroke-miterlimit:10;}
	.st15{opacity:0.7;fill:none;stroke:#FFFFFF;stroke-width:2.225;stroke-linecap:round;stroke-linejoin:round;stroke-miterlimit:10;}
	.st16{fill:#DBC6B4;}
	.st17{fill:#BAA99A;}
	
		.st18{opacity:0.7;fill:none;stroke:#FFFFFF;stroke-width:9.5453;stroke-linecap:round;stroke-linejoin:round;stroke-miterlimit:10;}
	.st19{fill:none;stroke:#369040;stroke-width:5.4545;stroke-miterlimit:10;}
	.st20{fill:#2A8258;}
	.st21{fill:#F7EAE2;}
	.st22{fill:none;}
	.st23{fill:#A55330;}
	.st24{fill:none;stroke:#369040;stroke-width:3.9579;stroke-miterlimit:10;}
	.st25{clip-path:url(#SVGID_12_);}
	.st26{fill:#010202;}
	.st27{fill:none;stroke:#010202;stroke-width:0.2619;stroke-miterlimit:10;}
	.st28{fill:#C31632;}
	.st29{fill:#603726;}
	.st30{fill:none;stroke:#603726;stroke-width:1.2614;stroke-miterlimit:10;}
	.st31{fill:#81A77D;}
	.st32{fill:#F9EEE8;}
	.st33{fill:none;stroke:#369040;stroke-width:3.759;stroke-miterlimit:10;}
	.st34{fill:#414141;}
	.st35{opacity:0.7;fill:#D4C0AB;}
	.st36{fill:#D4C0AB;}
	.st37{opacity:0.7;fill:none;stroke:#796E63;stroke-width:5.012;stroke-linecap:round;stroke-linejoin:round;stroke-miterlimit:10;}
	.st38{opacity:0.7;fill:#796E63;}
	.st39{fill:#796E63;}
	.st40{opacity:0.7;fill:#1C0E08;}
	.st41{fill:none;stroke:#369040;stroke-width:5.7607;stroke-miterlimit:10;}
	.st42{fill:#FFFFFF;stroke:#FFFFFF;stroke-miterlimit:10;}
	.st43{fill:#369040;stroke:#369040;stroke-miterlimit:10;}
	.st44{fill:none;stroke:#369040;stroke-width:1.4402;stroke-miterlimit:10;}
	.st45{fill:#369040;stroke:#FFFFFF;stroke-width:2.9279;stroke-linecap:round;stroke-linejoin:round;stroke-miterlimit:10;}
</style>
<g>
	<g>
		<g class="st1">
			<path class="st2" d="M59.769,18.582H22.312c-0.655,0-1.186-0.531-1.186-1.186s0.531-1.186,1.186-1.186h37.457
				c0.655,0,1.186,0.531,1.186,1.186S60.423,18.582,59.769,18.582z"/>
		</g>
		<g class="st1">
			<path class="st2" d="M57.167,26.638H24.913c-0.655,0-1.186-0.531-1.186-1.186s0.531-1.186,1.186-1.186h32.254
				c0.655,0,1.186,0.531,1.186,1.186S57.822,26.638,57.167,26.638z"/>
		</g>
		<g class="st1">
			<path class="st2" d="M59.769,34.694H22.312c-0.655,0-1.186-0.531-1.186-1.186c0-0.655,0.531-1.186,1.186-1.186h37.457
				c0.655,0,1.186,0.531,1.186,1.186C60.954,34.163,60.423,34.694,59.769,34.694z"/>
		</g>
	</g>
	<g>
		<path class="st3" d="M53.346,74.029c-0.319,1.901-0.632,4.682-0.039,5.595c1.139,1.753,1.646,10.082,1.667,10.435l0.016,0.269
			l-5.379,1.655c-0.589,0.372,0.164,0.315,0.868,0.315c0.652,0,1.582-0.241,2.124-0.3c0.556-0.061,1.635-0.439,2.362-0.3
			c1.235,0.237,2.553,0.877,4.317,1.217c2.71,0.523,6.615,2.111,7.941,1.697c1.28-0.4-4.062-1.468-6.378-2.614
			c0,0-1.385-0.69,0.111-0.648c1.497,0.043,9.238,0.107,5.201-0.798c-0.714-0.041-1.622-0.071-2.424-0.097
			c-2.961-0.097-4.946-0.184-5.53-0.499c-1.161-0.625-2.507-8.206-2.891-10.515l-0.017-0.102l0.043-0.094
			c0.065-0.146,1.393-3.098,2.413-5.039c-0.435,0.022-0.856,0.033-1.261,0.033C55.383,74.24,54.324,74.161,53.346,74.029z"/>
		<path class="st3" d="M63.007,76.795c1.139,1.753,1.646,10.082,1.667,10.435l0.016,0.269l-5.379,1.655
			c-0.589,0.372,0.164,0.315,0.868,0.315c0.652,0,2.402-0.284,2.944-0.343c0.555-0.061,1.203-0.036,1.93,0.103
			c1.235,0.237,2.165,0.516,3.929,0.857c2.71,0.523,6.615,2.111,7.941,1.697c1.28-0.4-4.062-1.468-6.378-2.614
			c0,0-1.385-0.69,0.112-0.648c1.497,0.043,9.238,0.107,5.201-0.798c-0.714-0.041-1.622-0.071-2.424-0.097
			c-2.961-0.097-4.946-0.185-5.53-0.499c-1.161-0.625-2.507-8.206-2.891-10.515l-0.017-0.102l0.043-0.094
			c0.062-0.138,1.248-2.776,2.239-4.704c-1.574,0.786-3.124,1.345-4.606,1.734C62.515,74.587,62.477,75.979,63.007,76.795z"/>
		<path class="st4" d="M73.166,66.192c-1.885,0.793-3.66,1.195-5.304,1.195c-0.954,0-1.876-0.135-2.741-0.401
			c-3.108-0.956-4.726-3.39-5.277-4.393l-0.122-0.221c-5.047,1.388-10.68,2.45-14.693,2.45c-0.597,0-1.158-0.024-1.677-0.073
			c-0.056-0.005-0.107-0.013-0.161-0.018c-0.109-0.012-0.22-0.023-0.325-0.037c-0.006-0.001-0.012-0.001-0.017-0.002l-1.205,0.808
			c-0.543,0.364-2.23,2.049-4.675,4.643c1.183-0.252,2.504-0.446,4.053-0.446c0.193,0,0.391,0.003,0.592,0.009
			c1.971,0.061,4.119,0.453,6.272,1.95c0.942,0.655,3.977,1.64,7.985,1.64C60.853,73.295,67.337,71.768,73.166,66.192z"/>
		<path class="st5" d="M24.046,82.753c6.912-7.802,15.414-17.098,16.994-18.157c-6.305,0.13-13.148,4.731-13.429,4.922
			c-0.659,0.56-19.848,18.238-20.884,25.492c-0.142,0.993,0.015,1.417,0.172,1.598c0.113,0.13,0.283,0.194,0.52,0.194
			c2.853,0,11.625-8.466,14.802-11.997C22.655,84.324,23.281,83.617,24.046,82.753z"/>
		<path class="st3" d="M41.287,63.866c0.563,0,1.124,0.035,1.677,0.109c0.604,0.082,1.286,0.12,2.029,0.12
			c3.39,0,8.059-0.801,12.511-1.91c-1.432-0.08-2.71-0.384-3.805-0.911c-2.021-0.974-2.936-2.447-3.288-3.192
			c-2.258-0.281-3.847-1.188-4.728-2.7c-1.176-2.019-0.75-4.619-0.268-6.281c-8.399,6.039-16.367,13.32-18.934,19.767h0.798
			C28.178,68.264,34.927,63.866,41.287,63.866z"/>
		<path class="st2" d="M46.948,48.016c-0.231,0.536-1.773,4.339-0.327,6.821c0.749,1.286,2.205,2.029,4.326,2.211l0.245,0.021
			l0.071,0.235c0.006,0.017,0.605,1.883,2.908,2.993c1.147,0.552,2.524,0.827,4.104,0.827c0.845,0,1.752-0.083,2.708-0.24
			c3.476-1.028,6.438-2.156,8.165-3.099l-0.014-0.019l1.018-0.611c6.242-3.751,10.497-10.003,9.898-14.543l-0.141-1.07
			c-0.138-0.22-0.271-0.451-0.395-0.707c-1.573-3.251-5.892-3.974-7.913-4.133l0.001,0.059l-1.162-0.061
			c-0.154-0.008-0.312-0.015-0.471-0.02l-1.996-0.07c-1.57,0.719-3.086,1.289-4.335,1.758c-1.006,0.378-1.875,0.704-2.404,0.975
			C57.147,41.433,52.025,44.476,46.948,48.016z"/>
		<path class="st6" d="M85.929,44.18c-0.38,0.084-0.776,0.126-1.176,0.126c-0.737,0-2.226-0.161-3.577-1.287
			c0.285,4.993-4.221,11.312-10.465,15.065l0.003,0.004c-1.646,1.197-5.483,2.699-9.918,3.981c0.481,0.875,1.908,3.037,4.645,3.878
			c0.766,0.236,1.573,0.353,2.422,0.353c2.504,0,5.362-1.025,8.529-3.062c1.376-0.713,10.038-8.402,11.541-20.006
			C87.393,43.678,86.714,44.007,85.929,44.18z"/>
		<path class="st7" d="M84.479,20.336c-0.328,0-0.621-0.077-0.871-0.23c-0.506-0.309-0.785-0.752-0.805-1.282
			c-0.051-1.295,1.565-2.808,2.517-3.586l1.126-1.32c0.07-0.082,0.144-0.163,0.222-0.245c-0.19,0.019-0.375,0.032-0.55,0.032
			c-1.753,0-2.479-0.946-2.574-1.831c-0.114-1.056,0.656-2.389,2.096-2.703c0.552-0.12,1.121-0.182,1.69-0.182
			c1.385,0,2.587,0.363,3.473,0.741c-1.044-0.97-2.642-2.047-4.594-2.047c-0.597,0-1.204,0.101-1.802,0.301
			c-4.673,1.558-6.911,7.164-6.649,16.664c0.148,5.365-3.674,8.727-7.753,10.945c0.165,0.006,0.329,0.013,0.49,0.021l-0.001-0.042
			c0.016,0,0.05-0.001,0.101-0.001c0.946,0,7.662,0.178,9.893,4.79c1.032,2.132,2.778,2.861,4.263,2.861
			c0.331,0,0.648-0.036,0.942-0.101c1.381-0.305,2.318-1.209,2.462-2.341c0.038-0.642,0.066-1.296,0.074-1.975
			c0.087-7.306-0.883-11.723-1.525-14.646c-0.434-1.978-0.721-3.322-0.384-4.385C85.615,20.132,85,20.336,84.479,20.336z"/>
		<path class="st3" d="M85.834,10.055c-0.921,0.201-1.462,1.053-1.389,1.723c0.07,0.65,0.68,1.023,1.675,1.023h0
			c0.487,0,1.186-0.094,2.143-0.403c0.247-0.159,0.51-0.315,0.788-0.469l0.047-0.026l0.05-0.02c0.594-0.241,1.238-0.544,1.916-0.902
			l0.041-0.022l0.043-0.017c0.017-0.007,0.033-0.013,0.05-0.02c-0.78-0.426-2.177-1.029-3.867-1.029
			C86.827,9.894,86.323,9.948,85.834,10.055z M86.145,12.166c-0.427,0-0.774-0.347-0.774-0.774c0-0.427,0.347-0.774,0.774-0.774
			c0.427,0,0.774,0.347,0.774,0.774C86.919,11.819,86.572,12.166,86.145,12.166z"/>
		<path class="st5" d="M89.846,16.38c0.218-0.158,0.432-0.312,0.644-0.465c0.801-0.638,1.58-1.202,2.407-1.617
			c-2.224,0.116-4.35,0.702-5.484,1.068l-1.348,0.435c-1.062,0.843-2.389,2.173-2.357,2.987c0.005,0.14,0.05,0.349,0.371,0.545
			c0.11,0.067,0.244,0.097,0.401,0.097C85.631,19.431,87.943,17.757,89.846,16.38z"/>
		<path class="st8" d="M92.862,11.392c-0.114,0-0.232,0.004-0.354,0.012c-0.125,0.041-0.506,0.17-1.022,0.377
			c-0.707,0.373-1.374,0.686-1.998,0.94c-0.878,0.484-1.757,1.086-2.353,1.784c1.366-0.441,3.93-1.134,6.517-1.134
			c0.706,0,1.413,0.052,2.099,0.174C95.587,12.794,94.987,11.392,92.862,11.392z"/>
		<circle class="st9" cx="86.145" cy="11.392" r="0.774"/>
	</g>
</g>
</svg>
