<?xml version="1.0" encoding="utf-8"?>
<!-- Generator: Adobe Illustrator 21.1.0, SVG Export Plug-In . SVG Version: 6.00 Build 0)  -->
<svg version="1.1" id="Capa_1" xmlns="http://www.w3.org/2000/svg" xmlns:xlink="http://www.w3.org/1999/xlink" x="0px" y="0px"
	 viewBox="0 0 720.699 227.209" style="enable-background:new 0 0 720.699 227.209;" xml:space="preserve">
<style type="text/css">
	.st0{opacity:0.7;fill:#3B2011;}
	.st1{opacity:0.7;}
	.st2{fill:#A35230;}
	.st3{fill:#513628;}
	.st4{fill:#9F684F;}
	.st5{fill:#C3002F;}
	.st6{fill:#DBC79D;}
	.st7{fill:#CFA175;}
	.st8{fill:#646569;}
	.st9{fill:#FFFFFF;}
	.st10{fill:#369040;}
	
		.st11{opacity:0.7;fill:none;stroke:#FFFFFF;stroke-width:8.2967;stroke-linecap:round;stroke-linejoin:round;stroke-miterlimit:10;}
	.st12{fill:#513528;}
	
		.st13{opacity:0.7;fill:none;stroke:#FFFFFF;stroke-width:4.8855;stroke-linecap:round;stroke-linejoin:round;stroke-miterlimit:10;}
	
		.st14{opacity:0.7;fill:none;stroke:#FFFFFF;stroke-width:4.0904;stroke-linecap:round;stroke-linejoin:round;stroke-miterlimit:10;}
	.st15{opacity:0.7;fill:none;stroke:#FFFFFF;stroke-width:2.225;stroke-linecap:round;stroke-linejoin:round;stroke-miterlimit:10;}
	.st16{fill:#DBC6B4;}
	.st17{fill:#BAA99A;}
	
		.st18{opacity:0.7;fill:none;stroke:#FFFFFF;stroke-width:9.5453;stroke-linecap:round;stroke-linejoin:round;stroke-miterlimit:10;}
	.st19{fill:none;stroke:#369040;stroke-width:5.4545;stroke-miterlimit:10;}
	.st20{fill:#2A8258;}
	.st21{fill:#F7EAE2;}
	.st22{fill:none;}
	.st23{fill:#A55330;}
	.st24{fill:none;stroke:#369040;stroke-width:3.9579;stroke-miterlimit:10;}
	.st25{clip-path:url(#SVGID_12_);}
	.st26{fill:#010202;}
	.st27{fill:none;stroke:#010202;stroke-width:0.2619;stroke-miterlimit:10;}
	.st28{fill:#C31632;}
	.st29{fill:#603726;}
	.st30{fill:none;stroke:#603726;stroke-width:1.2614;stroke-miterlimit:10;}
	.st31{fill:#81A77D;}
	.st32{fill:#F9EEE8;}
	.st33{fill:none;stroke:#369040;stroke-width:3.759;stroke-miterlimit:10;}
	.st34{fill:#414141;}
	.st35{opacity:0.7;fill:#D4C0AB;}
	.st36{fill:#D4C0AB;}
	.st37{opacity:0.7;fill:none;stroke:#796E63;stroke-width:5.012;stroke-linecap:round;stroke-linejoin:round;stroke-miterlimit:10;}
	.st38{opacity:0.7;fill:#796E63;}
	.st39{fill:#796E63;}
	.st40{opacity:0.7;fill:#1C0E08;}
	.st41{fill:none;stroke:#369040;stroke-width:5.7607;stroke-miterlimit:10;}
	.st42{fill:#FFFFFF;stroke:#FFFFFF;stroke-miterlimit:10;}
	.st43{fill:#369040;stroke:#369040;stroke-miterlimit:10;}
	.st44{fill:none;stroke:#369040;stroke-width:1.4402;stroke-miterlimit:10;}
	.st45{fill:#369040;stroke:#FFFFFF;stroke-width:2.9279;stroke-linecap:round;stroke-linejoin:round;stroke-miterlimit:10;}
</style>
<g>
	<g>
		<path class="st9" d="M59.093,206.798h10.649c-0.445,2.278-1.533,4.367-3.247,6.228c-2.641,2.896-6.042,4.305-10.399,4.305
			c-4.076,0-7.371-1.286-10.063-3.928c-2.641-2.636-3.923-5.912-3.923-10.017c0-4.072,1.297-7.348,3.967-10.017
			c2.673-2.671,5.95-3.971,10.019-3.971c4.992,0,8.761,1.845,11.521,5.639l0.591,0.81l3.09-2.342l-0.586-0.784
			c-3.539-4.728-8.456-7.123-14.616-7.123c-5.13,0-9.431,1.698-12.785,5.048c-3.32,3.321-5.004,7.607-5.004,12.739
			c0,5.193,1.685,9.511,5.004,12.83c3.29,3.292,7.591,4.96,12.785,4.96c5.444,0,9.89-1.784,13.213-5.297
			c3.066-3.225,4.621-7.241,4.621-11.942v-0.984H59.093V206.798z"/>
		<path class="st9" d="M100.003,203.852c1.218-0.353,2.301-0.917,3.218-1.677c0.927-0.77,1.651-1.757,2.154-2.933
			c0.492-1.155,0.742-2.535,0.742-4.097c0-1.452-0.27-2.765-0.802-3.899c-0.531-1.128-1.253-2.094-2.15-2.869
			c-0.898-0.773-1.969-1.361-3.182-1.749c-1.194-0.38-2.465-0.572-3.78-0.572h-8.541v34.66h3.802V204.37h2l10.392,16.346h4.543
			l-10.546-16.439C98.609,204.191,99.327,204.05,100.003,203.852z M91.465,189.902h4.693c0.872,0,1.701,0.118,2.463,0.348
			c0.737,0.225,1.382,0.553,1.92,0.979c0.523,0.409,0.925,0.923,1.229,1.564c0.302,0.644,0.455,1.42,0.455,2.308
			c0,1.802-0.485,3.123-1.485,4.035c-1.027,0.936-2.36,1.39-4.076,1.39h-5.197V189.902z"/>
		<path class="st9" d="M119.127,220.716h3.941l3.801-9.797h13.53l3.756,9.797h3.992l-14.534-37.457L119.127,220.716z
			 M128.364,207.074l5.25-13.592l5.248,13.592H128.364z"/>
		<polygon class="st9" points="184.734,212.759 160.33,184.142 160.33,220.716 164.131,220.716 164.131,194.632 188.583,222.928 
			188.583,186.057 184.734,186.057 		"/>
		<path class="st9" d="M211.154,213.141c0,4.097-1.715,4.097-2.448,4.097c-1.132,0-1.935-0.505-2.524-1.594l-0.5-0.923l-3.269,2.059
			l0.434,0.808c1.247,2.321,3.233,3.495,5.904,3.495c2.852,0,6.25-1.361,6.25-7.851v-27.175h-3.848V213.141z"/>
		<path class="st9" d="M226.086,220.716h3.943l3.8-9.797h13.53l3.754,9.797h3.994l-14.534-37.457L226.086,220.716z M235.325,207.074
			l5.249-13.592l5.248,13.592H235.325z"/>
		<polygon class="st9" points="305.684,220.716 323.362,220.716 323.362,216.871 309.532,216.871 309.532,203.822 323.362,203.822 
			323.362,199.838 309.532,199.838 309.532,189.902 323.362,189.902 323.362,186.057 305.684,186.057 		"/>
		<path class="st9" d="M362.273,186.894c-2.357-0.858-5.028-1.294-7.938-1.294c-5.193,0-9.51,1.682-12.831,5.006
			c-3.29,3.289-4.959,7.589-4.959,12.781c0,5.193,1.685,9.511,5.004,12.83c3.29,3.292,7.591,4.96,12.786,4.96
			c0.44,0,0.865-0.008,1.277-0.024c0.414-0.016,0.799-0.04,1.148-0.072c3.095-0.289,5.602-1.12,7.451-2.473l2.602-1.898v-4.583
			l-1.563,1.134c-1.715,1.243-3.147,2.155-4.248,2.706c-1.873,0.906-4.115,1.366-6.668,1.366c-4.131,0-7.423-1.283-10.065-3.928
			c-2.61-2.604-3.877-5.883-3.877-10.017c0-4.131,1.282-7.423,3.923-10.065c2.641-2.639,5.919-3.923,10.019-3.923
			c2.393,0,4.718,0.455,6.899,1.345c1.431,0.599,2.764,1.409,3.963,2.412l1.616,1.348v-4.923l-0.38-0.297
			C365.107,188.252,363.714,187.45,362.273,186.894z"/>
		<path class="st9" d="M393.895,185.599c-5.193,0-9.51,1.682-12.831,5.006c-3.29,3.289-4.959,7.589-4.959,12.781
			c0,5.193,1.685,9.508,5.006,12.83c3.29,3.292,7.591,4.96,12.784,4.96c5.194,0,9.511-1.685,12.826-5
			c3.324-3.294,5.01-7.597,5.01-12.789c0-5.19-1.685-9.506-5.012-12.835C403.37,187.265,399.056,185.599,393.895,185.599z
			 M393.895,189.399c4.162,0,7.47,1.283,10.11,3.923c2.61,2.612,3.877,5.904,3.877,10.065c0,4.193-1.267,7.5-3.869,10.105
			c-2.643,2.583-5.952,3.84-10.118,3.84c-4.131,0-7.423-1.283-10.063-3.928c-2.61-2.607-3.879-5.883-3.879-10.017
			c0-4.131,1.284-7.423,3.924-10.065C386.516,190.682,389.793,189.399,393.895,189.399z"/>
		<polygon class="st9" points="419.925,189.902 427.16,189.902 427.16,220.716 431.008,220.716 431.008,189.902 438.243,189.902 
			438.243,186.057 419.925,186.057 		"/>
		<path class="st9" d="M467.819,211.585c0,1.741-0.64,3.088-1.959,4.126c-1.27,0.997-2.809,1.484-4.703,1.484
			c-1.9,0-3.483-0.487-4.705-1.441c-1.286-1.003-1.911-2.366-1.911-4.169v-25.528h-3.802v25.528c0,2.947,1.059,5.326,3.159,7.083
			c1.945,1.575,4.387,2.372,7.258,2.372c2.971,0,5.416-0.786,7.265-2.332c2.152-1.773,3.245-4.171,3.245-7.123v-25.528h-3.848
			V211.585z"/>
		<path class="st9" d="M497.833,203.852c1.218-0.353,2.301-0.917,3.218-1.677c0.927-0.77,1.651-1.757,2.154-2.933
			c0.492-1.155,0.742-2.535,0.742-4.097c0-1.449-0.27-2.759-0.802-3.899c-0.531-1.128-1.253-2.094-2.15-2.869
			c-0.898-0.773-1.969-1.361-3.182-1.749c-1.194-0.38-2.465-0.572-3.78-0.572h-8.541v34.66h3.802V204.37h2l10.392,16.346h4.543
			l-10.546-16.439C496.438,204.191,497.156,204.05,497.833,203.852z M489.295,189.902h4.693c0.872,0,1.701,0.118,2.463,0.348
			c0.737,0.225,1.383,0.553,1.92,0.979c0.523,0.409,0.925,0.923,1.229,1.564c0.302,0.644,0.455,1.42,0.455,2.308
			c0,1.802-0.485,3.123-1.487,4.035c-1.027,0.936-2.36,1.39-4.075,1.39h-5.197V189.902z"/>
		<polygon class="st9" points="525.325,177.802 518.766,184.359 520.559,186.057 519.514,186.057 519.514,220.716 523.315,220.716 
			523.315,186.057 521.642,186.057 527.554,180.142 		"/>
		<path class="st9" d="M553.884,202.02c-1.064-0.644-2.313-1.283-3.812-1.955c-2.746-1.246-3.892-1.963-4.342-2.324
			c-1.126-0.971-1.673-2.062-1.673-3.329c0-1.447,0.513-2.578,1.575-3.463c1.013-0.858,2.273-1.275,3.849-1.275
			c1.511,0,2.737,0.289,3.678,0.877c0.703,0.401,1.324,1.04,1.844,1.898l0.447,0.735l3.57-1.554l-0.526-0.947
			c-1.766-3.193-4.798-4.81-9.012-4.81c-2.556,0-4.748,0.792-6.498,2.34c-1.841,1.562-2.774,3.645-2.774,6.198
			c0,2.548,0.916,4.631,2.706,6.18c1.032,0.936,2.854,1.979,5.571,3.193c1.342,0.594,2.447,1.134,3.314,1.612
			c1.005,0.551,1.519,0.949,1.789,1.198c1.411,1.254,2.095,2.778,2.095,4.669c0,2.008-0.561,3.473-1.717,4.474
			c-1.152,0.995-2.801,1.5-4.899,1.5c-3.653,0-5.888-1.682-6.835-5.137l-0.277-1.013l-3.768,1.294l0.275,0.909
			c1.568,5.171,5.135,7.792,10.604,7.792c1.721,0,3.249-0.233,4.558-0.701c3.919-1.465,5.907-4.535,5.907-9.118
			c0-2.856-0.993-5.281-2.945-7.198C555.895,203.37,554.984,202.68,553.884,202.02z"/>
		<polygon class="st9" points="570.979,189.902 578.214,189.902 578.214,220.716 582.062,220.716 582.062,189.902 589.296,189.902 
			589.296,186.057 570.979,186.057 		"/>
		<rect x="601.84" y="186.057" class="st9" width="3.801" height="34.66"/>
		<path class="st9" d="M644.691,186.894c-2.357-0.858-5.028-1.294-7.938-1.294c-5.193,0-9.51,1.682-12.831,5.006
			c-3.29,3.289-4.959,7.589-4.959,12.781c0,5.193,1.685,9.511,5.004,12.83c3.29,3.292,7.591,4.96,12.785,4.96
			c0.44,0,0.865-0.008,1.277-0.024c0.414-0.016,0.799-0.04,1.148-0.072c3.095-0.289,5.602-1.12,7.451-2.473l2.602-1.898v-4.583
			l-1.563,1.134c-1.715,1.243-3.147,2.155-4.248,2.706c-1.873,0.906-4.115,1.366-6.667,1.366c-4.131,0-7.423-1.283-10.065-3.928
			c-2.61-2.604-3.877-5.883-3.877-10.017c0-4.131,1.282-7.423,3.923-10.065c2.641-2.639,5.919-3.923,10.019-3.923
			c2.393,0,4.718,0.455,6.899,1.345c1.428,0.596,2.761,1.409,3.963,2.412l1.616,1.348v-4.923l-0.38-0.297
			C647.526,188.252,646.133,187.45,644.691,186.894z"/>
		<path class="st9" d="M673.702,183.26l-14.486,37.457h3.943l3.8-9.797h13.53l3.754,9.797h3.994L673.702,183.26z M668.453,207.074
			l5.25-13.592l5.248,13.592H668.453z"/>
	</g>
	<g>
		<g>
			<path class="st9" d="M19.817,10.971l7.831,130.649c12.223,0,24.487-0.789,36.779-2.368c12.298-1.579,24.905-3.06,37.814-4.433
				l0.829,6.801c-0.143,0-1.413,0.172-3.815,0.515c-2.402,0.343-5.565,0.755-9.478,1.236c-3.918,0.486-8.345,1.001-13.293,1.544
				c-4.948,0.555-9.89,1.104-14.837,1.653c-4.948,0.549-9.684,1.098-14.22,1.647c-4.53,0.549-8.448,0.961-11.743,1.236
				c-0.137,0-0.486,0.034-1.03,0.103c-0.555,0.069-1.173,0.103-1.859,0.103s-1.373,0-2.059,0s-1.236,0-1.647,0
				c-3.026,0-5.497-1.613-7.419-4.845c-1.928-3.226-3.506-7.625-4.742-13.184c-1.236-5.566-2.128-11.955-2.677-19.167
				c-0.549-7.213-0.961-14.735-1.236-22.565c-0.28-7.831-0.383-15.73-0.309-23.698c0.069-7.968,0.103-15.484,0.103-22.565
				c0-7.076-0.034-13.499-0.103-19.265c-0.074-5.771-0.309-10.233-0.721-13.396H19.817z"/>
			<path class="st9" d="M111.931,131.73c0-7.831,2.162-13.533,6.486-17.108c4.33-3.569,9.998-5.354,17.005-5.354
				c2.746,0,5.32,0.069,7.728,0.206c2.402,0.137,4.702,0.48,6.898,1.03c2.196,0.549,4.364,1.373,6.492,2.471
				c2.128,1.104,4.364,2.683,6.698,4.742c0-0.412,0.034-1.27,0.103-2.574c0.069-1.304,0.103-2.711,0.103-4.227
				c0-1.51,0-2.917,0-4.227c0-1.304,0-2.231,0-2.78c-0.137-2.471-0.206-5.668-0.206-9.581c0-3.918-0.309-7.933-0.927-12.058
				c-0.618-4.118-1.853-8.037-3.706-11.743c-1.859-3.712-4.845-6.526-8.969-8.448c-2.883,0-5.56,0.481-8.036,1.441
				c-2.471,0.961-4.942,1.991-7.419,3.089c-2.471,1.104-4.942,2.099-7.419,2.992c-2.471,0.892-5.148,1.338-8.037,1.338
				c0-3.432,1.064-6.286,3.197-8.551c2.128-2.271,4.702-4.021,7.728-5.257c3.02-1.236,6.183-2.059,9.478-2.471
				c3.295-0.412,6.183-0.618,8.654-0.618c2.477,0.412,4.77,0.892,6.904,1.441c2.128,0.549,4.124,1.647,5.977,3.295
				c1.853,1.647,3.569,4.158,5.154,7.522c1.573,3.369,2.952,8.071,4.118,14.117c1.167,6.046,2.196,13.705,3.089,22.977
				c0.892,9.272,1.613,20.643,2.168,34.102c0.275,1.79-0.309,3.335-1.75,4.639c-1.447,1.31-3.403,2.408-5.874,3.295
				c-2.477,0.898-5.257,1.653-8.345,2.271c-3.094,0.618-6.218,1.064-9.381,1.339c-3.157,0.275-6.177,0.481-9.066,0.618
				c-2.883,0.137-5.291,0.206-7.213,0.206c-2.471,0-4.982-0.412-7.522-1.235c-2.54-0.824-4.873-2.025-7.007-3.609
				c-2.128-1.573-3.844-3.501-5.148-5.766C112.577,136.981,111.931,134.475,111.931,131.73z M138.717,117.304
				c-6.87,1.922-11.68,4.221-14.426,6.904c-2.751,2.677-3.952,5.251-3.604,7.728c0.337,2.471,1.956,4.707,4.839,6.698
				c2.889,1.991,6.389,3.295,10.513,3.912c4.118,0.618,8.58,0.28,13.39-1.03c4.81-1.304,9.409-3.878,13.808-7.728
				c-1.647-3.981-3.295-7.041-4.942-9.169c-1.653-2.128-3.438-3.741-5.36-4.845c-1.928-1.098-4.055-1.785-6.389-2.059
				C144.208,117.441,141.6,117.304,138.717,117.304z"/>
			<path class="st9" d="M316.361,135.848c-5.359,2.751-10.096,4.948-14.22,6.595c-4.124,1.647-8.105,2.923-11.955,3.815
				c-3.844,0.892-7.728,1.476-11.64,1.75c-3.918,0.275-8.42,0.412-13.499,0.412c-6.732,0-12.773-0.789-18.132-2.368
				c-5.36-1.579-9.93-3.987-13.705-7.213c-3.781-3.226-6.698-7.35-8.757-12.366c-2.059-5.011-3.089-11.091-3.089-18.235
				c0-6.458,0.646-13.259,1.956-20.403c1.304-7.144,3.226-14.254,5.771-21.33c2.54-7.076,5.697-13.871,9.478-20.397
				c3.775-6.526,8.208-12.264,13.287-17.211c5.085-4.942,10.788-8.889,17.108-11.846c6.315-2.951,13.322-4.433,21.015-4.433
				c2.889,0,6.321,0.309,10.307,0.927c3.981,0.618,7.796,1.653,11.434,3.094s6.698,3.501,9.169,6.177
				c2.477,2.683,3.712,6.08,3.712,10.204c0,1.51-0.721,2.231-2.162,2.162c-1.447-0.069-3.232-0.584-5.36-1.544
				c-2.133-0.961-4.536-2.196-7.213-3.712c-2.677-1.51-5.257-2.952-7.728-4.324c-2.471-1.373-4.742-2.54-6.801-3.506
				c-2.059-0.955-3.644-1.304-4.736-1.03c-6.595,0-12.572,1.276-17.932,3.815c-5.36,2.54-10.199,5.943-14.529,10.199
				c-4.324,4.261-8.105,9.169-11.331,14.734c-3.232,5.565-5.909,11.371-8.036,17.411c-2.134,6.046-3.712,12.058-4.742,18.035
				c-1.03,5.972-1.544,11.64-1.544,17c-0.961,6.458-0.583,12.052,1.133,16.794c1.716,4.742,4.29,8.654,7.728,11.749
				c3.432,3.089,7.556,5.388,12.366,6.898c4.805,1.516,9.787,2.374,14.94,2.58c5.148,0.206,10.267-0.275,15.352-1.441
				c5.079-1.167,9.718-2.917,13.905-5.257c4.193-2.334,7.625-5.222,10.307-8.654c2.677-3.432,4.221-7.282,4.633-11.543
				c0-4.393-0.858-8.105-2.574-11.125c-1.722-3.02-3.987-5.565-6.801-7.625c-2.814-2.059-6.046-3.712-9.684-4.948
				c-3.644-1.236-7.35-2.196-11.131-2.883c-3.775-0.686-7.556-1.167-11.331-1.441c-3.781-0.275-7.247-0.618-10.405-1.03v-3.712
				c0-0.275,1.819-0.755,5.457-1.441s7.968-1.441,12.984-2.265c5.016-0.829,10.199-1.653,15.558-2.477
				c5.36-0.824,9.89-1.441,13.602-1.853c1.373-0.137,2.471-0.206,3.295-0.206c0.824,0,1.653,0,2.477,0s1.51,0,2.059,0
				c0.275,0,0.789,0,1.544,0c0.755,0,1.544,0,2.368,0c0.829,0,1.613,0.034,2.374,0.103c0.749,0.069,1.27,0.103,1.544,0.103
				c0.137,1.928,0.309,4.982,0.515,9.169c0.206,4.193,0.446,8.86,0.721,14.014c0.275,5.154,0.549,10.61,0.824,16.382
				c0.275,5.771,0.549,11.234,0.824,16.382c0.275,5.154,0.515,9.792,0.721,13.911C328.001,146.567,316.361,135.848,316.361,135.848z
				"/>
			<path class="st9" d="M337.175,69.497c0-0.686,0.44-1.373,1.339-2.065c0.892-0.686,1.991-1.236,3.295-1.647
				c1.304-0.412,2.574-0.686,3.815-0.824c1.236-0.137,2.128,0.069,2.677,0.618c0.824,17.034,2.437,30.602,4.845,40.697
				c2.402,10.101,5.148,17.486,8.242,22.153c3.089,4.673,6.418,7.041,9.993,7.11c3.569,0.074,7.076-1.441,10.507-4.53
				c3.432-3.094,6.629-7.316,9.587-12.675c2.951-5.36,5.354-11.131,7.213-17.308c1.853-6.183,2.986-12.367,3.398-18.55
				c0.412-6.183-0.137-11.674-1.647-16.485l12.361-1.441c0.137,2.059,0.515,5.463,1.138,10.199
				c0.618,4.742,1.298,10.101,2.059,16.073c0.755,5.977,1.613,12.195,2.574,18.653c0.961,6.458,1.785,12.464,2.471,18.029
				c0.686,5.566,1.304,10.302,1.859,14.22c0.543,3.918,0.824,6.355,0.824,7.316h-8.86l-9.69-35.652
				c-1.922,4.81-4.256,9.415-7.007,13.808c-2.746,4.399-5.737,8.242-8.963,11.543c-3.226,3.295-6.629,5.869-10.199,7.728
				c-3.575,1.853-7.11,2.608-10.611,2.265c-3.506-0.343-6.904-1.956-10.204-4.845c-3.295-2.883-6.355-7.447-9.169-13.705
				c-2.82-6.246-5.257-14.317-7.316-24.212C339.646,96.078,338.131,83.917,337.175,69.497z"/>
			<path class="st9" d="M431.554,131.73c0-7.831,2.162-13.533,6.486-17.108c4.33-3.569,9.998-5.354,17.005-5.354
				c2.746,0,5.319,0.069,7.728,0.206c2.402,0.137,4.702,0.48,6.898,1.03s4.364,1.373,6.492,2.471
				c2.128,1.104,4.364,2.683,6.698,4.742c0-0.412,0.034-1.27,0.103-2.574c0.069-1.304,0.103-2.711,0.103-4.227
				c0-1.51,0-2.917,0-4.227c0-1.304,0-2.231,0-2.78c-0.137-2.471-0.206-5.668-0.206-9.581c0-3.918-0.309-7.933-0.927-12.058
				c-0.618-4.118-1.853-8.037-3.707-11.743c-1.859-3.712-4.845-6.526-8.969-8.448c-2.883,0-5.56,0.481-8.036,1.441
				c-2.471,0.961-4.942,1.991-7.419,3.089c-2.471,1.104-4.942,2.099-7.419,2.992c-2.471,0.892-5.148,1.338-8.036,1.338
				c0-3.432,1.064-6.286,3.197-8.551c2.128-2.271,4.702-4.021,7.728-5.257c3.02-1.236,6.183-2.059,9.478-2.471
				c3.295-0.412,6.183-0.618,8.654-0.618c2.477,0.412,4.77,0.892,6.904,1.441c2.128,0.549,4.124,1.647,5.977,3.295
				c1.853,1.647,3.569,4.158,5.154,7.522c1.573,3.369,2.951,8.071,4.118,14.117c1.167,6.046,2.196,13.705,3.089,22.977
				c0.892,9.272,1.613,20.643,2.168,34.102c0.275,1.79-0.309,3.335-1.75,4.639c-1.447,1.31-3.403,2.408-5.874,3.295
				c-2.477,0.898-5.257,1.653-8.345,2.271c-3.094,0.618-6.218,1.064-9.381,1.339c-3.157,0.275-6.178,0.481-9.066,0.618
				c-2.883,0.137-5.291,0.206-7.213,0.206c-2.471,0-4.982-0.412-7.522-1.235c-2.54-0.824-4.873-2.025-7.007-3.609
				c-2.128-1.573-3.844-3.501-5.148-5.766C432.2,136.981,431.554,134.475,431.554,131.73z M458.34,117.304
				c-6.87,1.922-11.68,4.221-14.426,6.904c-2.751,2.677-3.952,5.251-3.604,7.728c0.337,2.471,1.956,4.707,4.839,6.698
				c2.889,1.991,6.389,3.295,10.513,3.912c4.118,0.618,8.58,0.28,13.39-1.03c4.81-1.304,9.409-3.878,13.808-7.728
				c-1.647-3.981-3.295-7.041-4.942-9.169c-1.653-2.128-3.438-3.741-5.359-4.845c-1.928-1.098-4.055-1.785-6.389-2.059
				C463.831,117.441,461.223,117.304,458.34,117.304z"/>
			<path class="st9" d="M502.853,114.21c0-5.079,0.824-10.713,2.471-16.897s4.05-11.915,7.213-17.205
				c3.157-5.285,7.076-9.718,11.743-13.293c4.673-3.569,10.101-5.354,16.279-5.354c3.163-0.418,5.703-0.103,7.625,0.927
				c1.922,1.03,3.403,2.643,4.433,4.839c1.03,2.202,1.716,4.707,2.059,7.522c0.343,2.82,0.549,5.703,0.618,8.654
				c0.069,2.957,0.069,5.703,0,8.242c-0.069,2.545,0.034,4.639,0.309,6.286h-5.148c-0.137-0.824-0.383-2.78-0.721-5.869
				c-0.349-3.094-0.932-6.286-1.756-9.587c-0.824-3.295-1.956-6.246-3.398-8.86c-1.441-2.608-3.472-3.912-6.08-3.912
				c-3.849,0-7.453,1.51-10.816,4.53c-3.369,3.026-6.286,6.664-8.757,10.925c-2.477,4.256-4.467,8.654-5.977,13.184
				c-1.516,4.536-2.265,8.317-2.265,11.337c0.132,3.432,0.618,7.179,1.441,11.228c0.824,4.055,2.162,7.728,4.016,11.028
				c1.853,3.295,4.296,5.972,7.316,8.037c3.02,2.059,6.732,2.677,11.131,1.853c3.295,0,6.452-0.686,9.478-2.059
				c3.02-1.373,5.977-2.814,8.86-4.33c2.883-1.51,5.8-2.952,8.757-4.324c2.952-1.373,6.08-2.065,9.375-2.065
				c0,3.575-1.304,6.698-3.912,9.381c-2.614,2.677-5.806,4.839-9.581,6.486c-3.781,1.653-7.768,2.889-11.955,3.712
				c-4.193,0.824-7.728,1.235-10.61,1.235c-4.673,0-8.963-0.961-12.881-2.883c-3.912-1.922-7.316-4.501-10.199-7.728
				c-2.889-3.226-5.119-7.007-6.698-11.337C503.636,123.59,502.853,119.02,502.853,114.21z"/>
			<path class="st9" d="M588.577,8.088l5.354,67.586c0.961-0.824,2.197-2.059,3.712-3.706c1.51-1.647,3.295-3.197,5.354-4.639
				c2.065-1.441,4.33-2.677,6.801-3.706c2.477-1.03,5.154-1.476,8.037-1.339c5.634,0.549,10.13,2.814,13.499,6.801
				c3.363,3.981,5.909,8.86,7.625,14.626c1.716,5.771,2.849,12.058,3.403,18.859c0.543,6.801,0.721,13.293,0.515,19.471
				c-0.206,6.183-0.555,11.68-1.03,16.491c-0.486,4.81-0.864,8.105-1.138,9.89l-7.419-1.03c0-1.236,0.034-3.197,0.103-5.874
				c0.069-2.677,0.172-5.84,0.309-9.478c0.137-3.638,0.212-7.453,0.212-11.44c0-3.981,0.029-7.728,0.103-11.228
				c0.063-3.506,0.063-6.629,0-9.375c-0.074-2.751-0.177-4.673-0.315-5.771c0.137-3.844-0.618-7.556-2.265-11.131
				c-1.647-3.569-3.844-6.28-6.595-8.139c-2.746-1.853-6.046-2.471-9.89-1.853c-3.85,0.618-7.968,3.335-12.367,8.139
				c-3.844,5.771-6.664,11.44-8.448,17c-1.785,5.565-2.952,11.062-3.501,16.485c-0.549,5.434-0.755,10.994-0.618,16.696
				c0.132,5.703,0.132,11.714,0,18.029l-8.036-1.236c0.412-1.51,0.721-4.296,0.927-8.345c0.206-4.05,0.378-8.929,0.515-14.632
				c0.137-5.703,0.24-12.058,0.309-19.064c0.069-7.007,0.069-14.248,0-21.736c-0.069-7.487-0.172-15.009-0.309-22.565
				c-0.137-7.556-0.309-14.769-0.515-21.638c-0.206-6.87-0.412-13.19-0.618-18.962c-0.206-5.766-0.383-10.507-0.515-14.22
				L588.577,8.088z"/>
			<path class="st9" d="M651.227,131.73c0-7.831,2.162-13.533,6.486-17.108c4.33-3.569,9.998-5.354,17.005-5.354
				c2.746,0,5.319,0.069,7.728,0.206c2.402,0.137,4.702,0.48,6.898,1.03c2.196,0.549,4.364,1.373,6.492,2.471
				c2.128,1.104,4.364,2.683,6.698,4.742c0-0.412,0.034-1.27,0.103-2.574c0.069-1.304,0.103-2.711,0.103-4.227
				c0-1.51,0-2.917,0-4.227c0-1.304,0-2.231,0-2.78c-0.137-2.471-0.206-5.668-0.206-9.581c0-3.918-0.309-7.933-0.927-12.058
				c-0.618-4.118-1.853-8.037-3.707-11.743c-1.859-3.712-4.845-6.526-8.969-8.448c-2.883,0-5.56,0.481-8.037,1.441
				c-2.471,0.961-4.942,1.991-7.419,3.089c-2.471,1.104-4.942,2.099-7.419,2.992c-2.471,0.892-5.148,1.338-8.036,1.338
				c0-3.432,1.064-6.286,3.197-8.551c2.128-2.271,4.702-4.021,7.728-5.257c3.02-1.236,6.183-2.059,9.478-2.471
				c3.295-0.412,6.183-0.618,8.654-0.618c2.477,0.412,4.77,0.892,6.904,1.441c2.128,0.549,4.124,1.647,5.977,3.295
				c1.853,1.647,3.569,4.158,5.154,7.522c1.573,3.369,2.951,8.071,4.118,14.117c1.167,6.046,2.196,13.705,3.089,22.977
				c0.892,9.272,1.613,20.643,2.168,34.102c0.275,1.79-0.309,3.335-1.75,4.639c-1.447,1.31-3.403,2.408-5.874,3.295
				c-2.477,0.898-5.257,1.653-8.345,2.271c-3.095,0.618-6.218,1.064-9.381,1.339c-3.157,0.275-6.177,0.481-9.066,0.618
				c-2.883,0.137-5.291,0.206-7.213,0.206c-2.471,0-4.982-0.412-7.522-1.235c-2.54-0.824-4.873-2.025-7.007-3.609
				c-2.128-1.573-3.844-3.501-5.148-5.766C651.874,136.981,651.227,134.475,651.227,131.73z M678.014,117.304
				c-6.87,1.922-11.68,4.221-14.426,6.904c-2.751,2.677-3.952,5.251-3.603,7.728c0.337,2.471,1.956,4.707,4.839,6.698
				c2.889,1.991,6.389,3.295,10.513,3.912c4.118,0.618,8.58,0.28,13.39-1.03c4.81-1.304,9.409-3.878,13.808-7.728
				c-1.647-3.981-3.295-7.041-4.942-9.169c-1.653-2.128-3.438-3.741-5.359-4.845c-1.928-1.098-4.055-1.785-6.389-2.059
				C683.505,117.441,680.896,117.304,678.014,117.304z"/>
		</g>
		<g>
			<path class="st9" d="M274.85,204.36c-2.452,0-4.547-1.864-4.784-4.356c-3.02-31.758,18.371-35.406,32.526-37.82
				c5.865-0.997,9.902-3.495,12.343-7.629c5.257-8.91,1.921-23.723,0.191-28.678c-0.874-2.511,0.449-5.254,2.959-6.129
				c2.51-0.869,5.253,0.449,6.127,2.957c0.314,0.901,7.589,22.204-0.991,36.74c-3.912,6.629-10.309,10.741-19.013,12.225
				c-16.636,2.837-26.591,6.097-24.564,27.424c0.253,2.645-1.689,4.992-4.333,5.244C275.156,204.355,275.003,204.36,274.85,204.36z"
				/>
		</g>
	</g>
</g>
</svg>
