<?xml version="1.0" encoding="utf-8"?>
<!-- Generator: Adobe Illustrator 21.1.0, SVG Export Plug-In . SVG Version: 6.00 Build 0)  -->
<svg version="1.1" id="Capa_1" xmlns="http://www.w3.org/2000/svg" xmlns:xlink="http://www.w3.org/1999/xlink" x="0px" y="0px"
	 viewBox="0 0 1602.703 1188.956" style="enable-background:new 0 0 1602.703 1188.956;" xml:space="preserve">
<style type="text/css">
	.st0{opacity:0.7;fill:#3B2011;}
	.st1{opacity:0.7;}
	.st2{fill:#A35230;}
	.st3{fill:#513628;}
	.st4{fill:#9F684F;}
	.st5{fill:#C3002F;}
	.st6{fill:#DBC79D;}
	.st7{fill:#CFA175;}
	.st8{fill:#646569;}
	.st9{fill:#FFFFFF;}
	.st10{fill:#369040;}
	
		.st11{opacity:0.7;fill:none;stroke:#FFFFFF;stroke-width:8.2967;stroke-linecap:round;stroke-linejoin:round;stroke-miterlimit:10;}
	.st12{fill:#513528;}
	
		.st13{opacity:0.7;fill:none;stroke:#FFFFFF;stroke-width:4.8855;stroke-linecap:round;stroke-linejoin:round;stroke-miterlimit:10;}
	
		.st14{opacity:0.7;fill:none;stroke:#FFFFFF;stroke-width:4.0904;stroke-linecap:round;stroke-linejoin:round;stroke-miterlimit:10;}
	.st15{opacity:0.7;fill:none;stroke:#FFFFFF;stroke-width:2.225;stroke-linecap:round;stroke-linejoin:round;stroke-miterlimit:10;}
	.st16{fill:#DBC6B4;}
	.st17{fill:#BAA99A;}
	
		.st18{opacity:0.7;fill:none;stroke:#FFFFFF;stroke-width:9.5453;stroke-linecap:round;stroke-linejoin:round;stroke-miterlimit:10;}
	.st19{fill:none;stroke:#369040;stroke-width:5.4545;stroke-miterlimit:10;}
	.st20{fill:#2A8258;}
	.st21{fill:#F7EAE2;}
	.st22{fill:none;}
	.st23{fill:#A55330;}
	.st24{fill:none;stroke:#369040;stroke-width:3.9579;stroke-miterlimit:10;}
	.st25{clip-path:url(#SVGID_12_);}
	.st26{fill:#010202;}
	.st27{fill:none;stroke:#010202;stroke-width:0.2619;stroke-miterlimit:10;}
	.st28{fill:#C31632;}
	.st29{fill:#603726;}
	.st30{fill:none;stroke:#603726;stroke-width:1.2614;stroke-miterlimit:10;}
	.st31{fill:#81A77D;}
	.st32{fill:#F9EEE8;}
	.st33{fill:none;stroke:#369040;stroke-width:3.759;stroke-miterlimit:10;}
	.st34{fill:#414141;}
	.st35{opacity:0.7;fill:#D4C0AB;}
	.st36{fill:#D4C0AB;}
	.st37{opacity:0.7;fill:none;stroke:#796E63;stroke-width:5.012;stroke-linecap:round;stroke-linejoin:round;stroke-miterlimit:10;}
	.st38{opacity:0.7;fill:#796E63;}
	.st39{fill:#796E63;}
	.st40{opacity:0.7;fill:#1C0E08;}
	.st41{fill:none;stroke:#369040;stroke-width:5.7607;stroke-miterlimit:10;}
	.st42{fill:#FFFFFF;stroke:#FFFFFF;stroke-miterlimit:10;}
	.st43{fill:#369040;stroke:#369040;stroke-miterlimit:10;}
	.st44{fill:none;stroke:#369040;stroke-width:1.4402;stroke-miterlimit:10;}
	.st45{fill:#369040;stroke:#FFFFFF;stroke-width:2.9279;stroke-linecap:round;stroke-linejoin:round;stroke-miterlimit:10;}
</style>
<path class="st0" d="M136.237,1101.038c0,0,17.018,4.787,28.799,4.787c11.781,0,231.711,79.394,231.711,79.394
	s19.504-0.324,23.377-0.466c3.873-0.142,52.54-12.704,91.812-36.64c39.272-23.936,234.56-86.422,256.499-85.87
	c21.939,0.552,174.18,128.157,195.425,126.701c21.245-1.457,94.613-26.309,94.613-26.309s11.114-10.534,33.957-24
	s113.305-36.8,113.305-37.597c0-0.798,24.872-6.383,24.872-6.383s3.927-3.989,7.854-6.383c3.927-2.394,27.49-18.422,27.49-18.422
	s40.581,1.667,57.598-7.11c17.018-8.777,175.413-30.319,180.65-33.511c5.236-3.191,7.854-2.394,7.854-2.394l15.709-3.192
	c0,0,11.782-10.372,17.018-14.558c4.422-3.535,45.312-13.478,57.923-16.484V97.837L1460.8,87.918c0,0-16.901-4.787-28.602-4.787
	S1202.07,3.737,1202.07,3.737s-19.371,0.324-23.217,0.466c-3.846,0.142-52.181,12.704-91.184,36.64
	c-39.003,23.936-232.957,86.422-254.746,85.87C811.135,126.161,659.934-1.444,638.834,0.012
	c-21.1,1.457-93.966,26.309-93.966,26.309s-11.039,10.534-33.724,24s-112.531,36.8-112.531,37.597
	c0,0.798-24.702,6.383-24.702,6.383s-3.9,3.989-7.801,6.383c-3.9,2.394-27.302,18.422-27.302,18.422s-40.303-1.667-57.205,7.11
	c-16.901,8.777-174.214,30.319-179.415,33.511c-5.2,3.192-7.8,2.394-7.8,2.394l-15.601,3.192c0,0-11.701,10.372-16.902,14.558
	c-5.2,4.186-61.188,17.357-61.188,17.357L0,1091.58L136.237,1101.038z"/>
</svg>
