<?xml version="1.0" encoding="utf-8"?>
<!-- Generator: Adobe Illustrator 21.1.0, SVG Export Plug-In . SVG Version: 6.00 Build 0)  -->
<svg version="1.1" id="Capa_1" xmlns="http://www.w3.org/2000/svg" xmlns:xlink="http://www.w3.org/1999/xlink" x="0px" y="0px"
	 viewBox="0 0 1604.248 132.626" style="enable-background:new 0 0 1604.248 132.626;" xml:space="preserve">
<style type="text/css">
	.st0{opacity:0.7;fill:#3B2011;}
	.st1{opacity:0.7;}
	.st2{fill:#A35230;}
	.st3{fill:#513628;}
	.st4{fill:#9F684F;}
	.st5{fill:#C3002F;}
	.st6{fill:#DBC79D;}
	.st7{fill:#CFA175;}
	.st8{fill:#646569;}
	.st9{fill:#FFFFFF;}
	.st10{fill:#369040;}
	
		.st11{opacity:0.7;fill:none;stroke:#FFFFFF;stroke-width:8.2967;stroke-linecap:round;stroke-linejoin:round;stroke-miterlimit:10;}
	.st12{fill:#513528;}
	
		.st13{opacity:0.7;fill:none;stroke:#FFFFFF;stroke-width:4.8855;stroke-linecap:round;stroke-linejoin:round;stroke-miterlimit:10;}
	
		.st14{opacity:0.7;fill:none;stroke:#FFFFFF;stroke-width:4.0904;stroke-linecap:round;stroke-linejoin:round;stroke-miterlimit:10;}
	.st15{opacity:0.7;fill:none;stroke:#FFFFFF;stroke-width:2.225;stroke-linecap:round;stroke-linejoin:round;stroke-miterlimit:10;}
	.st16{fill:#DBC6B4;}
	.st17{fill:#BAA99A;}
	
		.st18{opacity:0.7;fill:none;stroke:#FFFFFF;stroke-width:9.5453;stroke-linecap:round;stroke-linejoin:round;stroke-miterlimit:10;}
	.st19{fill:none;stroke:#369040;stroke-width:5.4545;stroke-miterlimit:10;}
	.st20{fill:#2A8258;}
	.st21{fill:#F7EAE2;}
	.st22{fill:none;}
	.st23{fill:#A55330;}
	.st24{fill:none;stroke:#369040;stroke-width:3.9579;stroke-miterlimit:10;}
	.st25{clip-path:url(#SVGID_12_);}
	.st26{fill:#010202;}
	.st27{fill:none;stroke:#010202;stroke-width:0.2619;stroke-miterlimit:10;}
	.st28{fill:#C31632;}
	.st29{fill:#603726;}
	.st30{fill:none;stroke:#603726;stroke-width:1.2614;stroke-miterlimit:10;}
	.st31{fill:#81A77D;}
	.st32{fill:#F9EEE8;}
	.st33{fill:none;stroke:#369040;stroke-width:3.759;stroke-miterlimit:10;}
	.st34{fill:#414141;}
	.st35{opacity:0.7;fill:#D4C0AB;}
	.st36{fill:#D4C0AB;}
	.st37{opacity:0.7;fill:none;stroke:#796E63;stroke-width:5.012;stroke-linecap:round;stroke-linejoin:round;stroke-miterlimit:10;}
	.st38{opacity:0.7;fill:#796E63;}
	.st39{fill:#796E63;}
	.st40{opacity:0.7;fill:#1C0E08;}
	.st41{fill:none;stroke:#369040;stroke-width:5.7607;stroke-miterlimit:10;}
	.st42{fill:#FFFFFF;stroke:#FFFFFF;stroke-miterlimit:10;}
	.st43{fill:#369040;stroke:#369040;stroke-miterlimit:10;}
	.st44{fill:none;stroke:#369040;stroke-width:1.4402;stroke-miterlimit:10;}
	.st45{fill:#369040;stroke:#FFFFFF;stroke-width:2.9279;stroke-linecap:round;stroke-linejoin:round;stroke-miterlimit:10;}
</style>
<path class="st9" d="M1407.981,68.179c-6.485,1.071-15.525,5.829-15.525,5.829s-25.833,13.306-63.532,11.789
	c-37.7-1.517-9.132-3.159-48.026,4.325c-38.894,7.485-128.567,6.065-158.514,0.828c-29.947-5.237-81.827-19.208-92.351-30.305
	c-10.524-11.097-102.443-45.697-120.566-39.84c-18.123,5.857-98.577,56.858-107.66,57.934
	c-9.083,1.076-115.916,20.445-141.897,21.024c-25.981,0.579-105.376-10.918-105.376-10.918s-9.194-8.452-14.397-8.972
	c-5.204-0.52-3.978-6.874-17.027-11.614c-13.049-4.739-105.388-11.976-123.696-22c-18.308-10.023-161.322-17.164-205.599-25.598
	c-44.277-8.433-55.908-3.024-68.895-2.47C111.931,18.747,0,9.959,0,9.959l0.598,51.347l0.83,71.324v-0.003h1600.215V47.454
	C1550.308,52.692,1413.297,67.301,1407.981,68.179z"/>
</svg>
