<svg id="Capa_1" data-name="Capa 1" xmlns="http://www.w3.org/2000/svg" viewBox="0 0 81.85 88.2"><defs><style>.cls-1{fill:none;stroke-width:3.55px;}.cls-1,.cls-3{stroke:#fff;stroke-miterlimit:10;}.cls-2,.cls-3{fill:#fff;}.cls-3{stroke-width:2px;}</style></defs><title>Mesa de trabajo 27</title><rect class="cls-1" x="3.48" y="13.63" width="74.97" height="70.62" rx="15.72" ry="15.72"/><rect class="cls-2" x="17.89" y="3.69" width="3.8" height="11.13" rx="1.57" ry="1.57"/><rect class="cls-2" x="38.24" y="3.69" width="3.8" height="11.13" rx="1.57" ry="1.57"/><rect class="cls-2" x="58.6" y="3.69" width="3.8" height="11.13" rx="1.57" ry="1.57"/><path class="cls-3" d="M23.64,36.31l3.46,4.18a.21.21,0,0,0,.24.06l5-2a.21.21,0,0,1,.25.3l-2.91,4.59a.21.21,0,0,0,0,.24l3.46,4.18a.21.21,0,0,1-.21.33l-5.26-1.35a.21.21,0,0,0-.23.09l-2.91,4.59a.21.21,0,0,1-.38-.1L23.88,46a.21.21,0,0,0-.16-.19l-5.26-1.35a.21.21,0,0,1,0-.39l5-2a.21.21,0,0,0,.13-.21l-.35-5.42A.21.21,0,0,1,23.64,36.31Z"/><path class="cls-2" d="M27.81,46.59a25.48,25.48,0,0,1,4.6,6.33,63.1,63.1,0,0,1,3.3,7c.5,1.19.92,2.4,1.38,3.61l1.23,3.66,1.12,3.69,1,3.72a1.78,1.78,0,1,1-3.43.94l0-.15v0l-.68-3.71-.78-3.69-.89-3.66c-.35-1.2-.65-2.43-1-3.62a61.22,61.22,0,0,0-2.6-7,24.83,24.83,0,0,0-3.78-6.33l-.06-.06a.45.45,0,0,1,.65-.63Z"/><path class="cls-3" d="M58.26,36.33l-3.62,4a.21.21,0,0,1-.24.05l-5-2.2a.21.21,0,0,0-.26.29l2.73,4.7a.21.21,0,0,1,0,.24l-3.62,4a.21.21,0,0,0,.2.34l5.31-1.14a.21.21,0,0,1,.22.1l2.73,4.7a.21.21,0,0,0,.39-.08l.55-5.4a.21.21,0,0,1,.16-.18l5.31-1.14a.21.21,0,0,0,0-.39l-5-2.2a.21.21,0,0,1-.12-.21l.55-5.4A.21.21,0,0,0,58.26,36.33Z"/><path class="cls-2" d="M54.1,47.28a25.71,25.71,0,0,0-3.63,6.39,65.31,65.31,0,0,0-2.51,7c-.37,1.19-.67,2.41-1,3.61L46.08,68l-.76,3.68-.67,3.69v0a1.78,1.78,0,0,1-3.5-.64c0-.05,0-.1,0-.15l1-3.7,1.1-3.68,1.21-3.64c.45-1.2.86-2.41,1.35-3.6A67.17,67.17,0,0,1,49,53a26.33,26.33,0,0,1,4.44-6.38.45.45,0,0,1,.66.62Z"/><path class="cls-3" d="M40.85,24.08l-1.74,5.14a.21.21,0,0,1-.2.14l-5.43-.06a.21.21,0,0,0-.13.37l4.35,3.24a.21.21,0,0,1,.07.23L36,38.3a.21.21,0,0,0,.32.24l4.43-3.14a.21.21,0,0,1,.24,0l4.35,3.24a.21.21,0,0,0,.32-.23L44.1,33.23a.21.21,0,0,1,.08-.23l4.43-3.14a.21.21,0,0,0-.12-.38l-5.43-.06a.21.21,0,0,1-.2-.15l-1.62-5.18A.21.21,0,0,0,40.85,24.08Z"/><path class="cls-2" d="M41.44,35.71,42.57,75a1.78,1.78,0,0,1-3.55.1s0-.07,0-.1l1.13-39.26a.65.65,0,0,1,1.3,0Z"/></svg>