<svg id="Capa_1" data-name="Capa 1" xmlns="http://www.w3.org/2000/svg" viewBox="0 0 44.16 91.32"><defs><style>.cls-1{fill:none;stroke:#fff;stroke-linecap:round;stroke-linejoin:round;stroke-width:0.99px;}.cls-2{fill:#fff;}</style></defs><title>Mesa de trabajo 33</title><path class="cls-1" d="M21.91,86.46s-.92-36.6,4-71.89"/><path class="cls-2" d="M25.48,18S15.49,5,23.89,2.6,25.48,18,25.48,18Z"/><path class="cls-2" d="M24.31,28.79s6.13-14.55,11.31-9.91S24.31,28.79,24.31,28.79Z"/><path class="cls-2" d="M24.31,28S18.18,13.45,13,18.09,24.31,28,24.31,28Z"/><path class="cls-2" d="M23.89,44.49s7.52-17.84,13.88-12.15S23.89,44.49,23.89,44.49Z"/><path class="cls-2" d="M23.89,43.51S16.37,25.66,10,31.35,23.89,43.51,23.89,43.51Z"/><path class="cls-2" d="M22.42,60.28s8.85-21,16.33-14.3S22.42,60.28,22.42,60.28Z"/><path class="cls-2" d="M22.42,59.13s-8.85-21-16.33-14.3S22.42,59.13,22.42,59.13Z"/><path class="cls-2" d="M22.42,74.93S32,52.29,40,59.51,22.42,74.93,22.42,74.93Z"/><path class="cls-2" d="M22.42,73.69S12.88,51,4.81,58.26,22.42,73.69,22.42,73.69Z"/></svg>