<svg id="Capa_1" data-name="Capa 1" xmlns="http://www.w3.org/2000/svg" viewBox="0 0 150.75 91.99"><defs><style>.cls-1,.cls-3{fill:none;stroke:#fff;stroke-linecap:round;stroke-linejoin:round;}.cls-1{stroke-width:3px;}.cls-2{fill:#fff;}.cls-3{stroke-width:2.4px;}</style></defs><title>Mesa de trabajo 35</title><path class="cls-1" d="M53.06,81.95,8.21,45.52a14.67,14.67,0,0,1,4.55-25.29L66.89,1.93A14.67,14.67,0,0,1,86.05,18.29L76.78,73A14.67,14.67,0,0,1,53.06,81.95Z"/><path class="cls-1" d="M20.62,44.6A15.41,15.41,0,0,1,49.91,35"/><path class="cls-1" d="M49.91,35a15.41,15.41,0,0,1,29.29-9.58"/><circle class="cls-2" cx="35.06" cy="39.18" r="2.98" transform="translate(-10.45 12.85) rotate(-18.12)"/><circle class="cls-2" cx="65.11" cy="29.34" r="2.98" transform="translate(-5.9 21.71) rotate(-18.12)"/><line class="cls-1" x1="49.37" y1="33.37" x2="56.86" y2="56.25"/><line class="cls-1" x1="48.68" y1="66.93" x2="69.18" y2="60.22"/><path class="cls-3" d="M100.69,81.19,92.5,43.41a9.82,9.82,0,0,1,12.95-11.3l35.91,13.08a9.82,9.82,0,0,1,3.17,16.55l-27.72,24.7A9.82,9.82,0,0,1,100.69,81.19Z"/><path class="cls-3" d="M99.36,48.12a10.31,10.31,0,0,1,19.3,7.24"/><path class="cls-3" d="M118.66,55.36A10.31,10.31,0,1,1,138,62.6"/><circle class="cls-2" cx="109.17" cy="51.33" r="1.99" transform="matrix(0.35, -0.94, 0.94, 0.35, 22.77, 135.52)"/><circle class="cls-2" cx="128.97" cy="58.75" r="1.99" transform="translate(28.67 158.88) rotate(-69.44)"/><line class="cls-3" x1="119.07" y1="54.28" x2="113.41" y2="69.36"/><line class="cls-3" x1="104.68" y1="71.51" x2="118.19" y2="76.58"/></svg>