<svg id="Capa_1" data-name="Capa 1" xmlns="http://www.w3.org/2000/svg" xmlns:xlink="http://www.w3.org/1999/xlink" viewBox="0 0 94.22 72.23"><defs><style>.cls-1,.cls-2,.cls-3{fill:none;}.cls-2,.cls-3{stroke:#fff;stroke-miterlimit:10;}.cls-2{stroke-width:3.55px;}.cls-3{stroke-width:3.05px;}.cls-4{clip-path:url(#clip-path);}.cls-5{fill:#fff;}</style><clipPath id="clip-path"><circle class="cls-1" cx="47.52" cy="41.22" r="20.92"/></clipPath></defs><title>Mesa de trabajo 26</title><rect class="cls-2" x="4.08" y="11.22" width="86.88" height="60.02" rx="17.68" ry="17.68"/><circle class="cls-3" cx="47.52" cy="41.22" r="20.92"/><g class="cls-4"><path class="cls-5" d="M44.93,68.15a25.12,25.12,0,0,1-19.44-34,21.81,21.81,0,0,1,3-5,22.59,22.59,0,0,1,4.25-4,21.33,21.33,0,0,1,10.88-3.83,20.86,20.86,0,0,1,2.93,0c.49,0,1,.12,1.45.18a10.63,10.63,0,0,1,1.45.26,16.59,16.59,0,0,1,5.49,2.26A17.23,17.23,0,0,1,63,39.19a19.49,19.49,0,0,1-.32,3c-.12.49-.24,1-.38,1.48s-.33,1-.54,1.43A14.32,14.32,0,0,1,53,53a14.16,14.16,0,0,1-6,.49,11.58,11.58,0,0,1-9.38-7.08,11.44,11.44,0,0,1-.69-6,9.24,9.24,0,0,1,8.27-8,9.48,9.48,0,0,1,3,.25A7.42,7.42,0,0,1,51,34a7.3,7.3,0,0,1,2.77,5.28,7,7,0,0,1-.48,3,5.85,5.85,0,0,1-1.84,2.39,5.66,5.66,0,0,1-5.67.73,4.51,4.51,0,0,1-2.55-4.84,3.52,3.52,0,0,1,1.52-2.34,3.39,3.39,0,0,1,2.66-.48,3.28,3.28,0,0,0-2.53.67,3.17,3.17,0,0,0-1.2,2.22,3.88,3.88,0,0,0,2.41,4,4.69,4.69,0,0,0,4.62-.88,4.61,4.61,0,0,0,1.33-2,5.58,5.58,0,0,0,.22-2.38,5.72,5.72,0,0,0-2.34-4,6.3,6.3,0,0,0-4.52-1,7.38,7.38,0,0,0-4.18,2.1,7,7,0,0,0-2,4.19A9,9,0,0,0,42.91,49a8.84,8.84,0,0,0,4.4,1.65,11.32,11.32,0,0,0,4.79-.48A11.5,11.5,0,0,0,59,43.88c.16-.37.27-.76.42-1.13s.19-.78.29-1.17A16.53,16.53,0,0,0,60,39.12a14.72,14.72,0,0,0-.73-4.86,14.53,14.53,0,0,0-5.94-7.67,13.63,13.63,0,0,0-4.54-1.91,8.41,8.41,0,0,0-1.23-.23c-.42-.05-.83-.14-1.25-.17a20.4,20.4,0,0,0-2.53,0,18.55,18.55,0,0,0-9.53,3.14,20.72,20.72,0,0,0-3.8,3.39,19.35,19.35,0,0,0-2.76,4.3A18.25,18.25,0,0,0,26.15,40a17.29,17.29,0,0,0-.31,2.59l-.08,1.31,0,1.31a24.16,24.16,0,0,0,2.67,10.11,24.8,24.8,0,0,0,6.76,8.16A25.75,25.75,0,0,0,44.93,68.15Z"/></g><path class="cls-5" d="M76.79,11.22H48l3.73-8.44a2.74,2.74,0,0,1,2.5-1.63H70.56a2.74,2.74,0,0,1,2.5,1.63Z"/></svg>