<svg id="Capa_1" data-name="Capa 1" xmlns="http://www.w3.org/2000/svg" viewBox="0 0 67.72 97.41"><defs><style>.cls-1{fill:#fff;}.cls-2{fill:none;stroke:#fff;stroke-linecap:round;stroke-linejoin:round;stroke-width:4.47px;}</style></defs><title>Mesa de trabajo 29</title><path class="cls-1" d="M23.53,26.44a6,6,0,0,1-6.11,5.86,6,6,0,0,1-6.23-5.74A6,6,0,0,1,17.3,20.7,6,6,0,0,1,23.53,26.44Zm-1.52,0a4.52,4.52,0,0,0-4.69-4.32,4.52,4.52,0,0,0-4.6,4.41,4.52,4.52,0,0,0,4.69,4.32A4.52,4.52,0,0,0,22,26.45Z"/><path class="cls-1" d="M29.15,47.48l.3.42.15.21.18.23.38.45.39.41c.25.28.55.53.83.79s.59.49.9.71.63.43,1,.64.66.39,1,.55.69.33,1,.48.71.28,1.08.4a20.19,20.19,0,0,0,4.46.93q1.13.11,2.27.11c.38,0,.76,0,1.14,0s.74,0,1.18-.1h0a1,1,0,0,0,.92-1.12,1,1,0,0,0-.12-.34c-.25-.44-.5-.89-.76-1.32s-.55-.86-.85-1.28-.6-.84-1-1.23l-.51-.59-.55-.56c-.36-.39-.78-.72-1.17-1.07s-.84-.66-1.3-.95-.92-.56-1.39-.83-1-.48-1.49-.67c-.25-.11-.51-.2-.77-.28s-.52-.17-.79-.24c-.53-.15-1.07-.26-1.61-.35l-.81-.11-.82-.07-.82,0h-.82c-.54,0-1.09.05-1.63.11s-1.07.14-1.6.24-1.06.22-1.58.37l-.78.24c-.27.09-.5.17-.8.29h0a1,1,0,0,0-.56,1.24c.24.6.44,1.2.71,1.79s.53,1.18.87,1.73c.16.28.32.57.49.85l.56.81a8.3,8.3,0,0,0,.6.79c.21.25.41.52.64.76l.69.72c.22.25.49.45.74.68l.38.34.4.31c.27.2.53.42.81.6l.85.55c.29.17.59.33.89.5s.61.3.91.45l.46.22.47.19c.63.26,1.28.47,1.93.66l1,.26,1,.21c.67.12,1.34.23,2,.3s1.35.12,2,.15a31.33,31.33,0,0,0,4-.12c.67-.07,1.33-.15,2-.25s1.31-.22,2-.4h0a1,1,0,0,0,.79-1c0-.43-.05-.78-.1-1.16s-.11-.74-.18-1.1-.16-.73-.24-1.09l-.3-1.08-.36-1.06c-.13-.35-.28-.69-.43-1s-.33-.68-.49-1a10.06,10.06,0,0,0-.55-1,19.91,19.91,0,0,0-1.29-1.89,18.27,18.27,0,0,0-1.57-1.7c-.29-.26-.55-.55-.86-.78l-.93-.71a9,9,0,0,0-1-.65l-.5-.31-.25-.15-.13-.08h0l-.06,0,0,0-.06,0-1-.49-.5-.24-.56-.22-1.12-.44-1.12-.36-.56-.17-.57-.14L35.23,39c-.77-.13-1.54-.29-2.32-.36s-1.56-.14-2.34-.17l-1.17,0-1.17,0-1.17.08-1.17.13c-.39.05-.78.11-1.16.18s-.76.14-1.19.25h0l1.27.53L24.54,39c-.09-.22-.18-.43-.27-.65-.17-.44-.35-.87-.5-1.31-.08-.22-.16-.44-.23-.66s-.16-.44-.22-.67c-.14-.45-.26-.89-.37-1.34-.06-.22-.09-.45-.14-.67s-.1-.45-.12-.67-.07-.45-.1-.68l-.06-.67c0-.23,0-.45,0-.67s0-.23,0-.34l0-.33a5.26,5.26,0,0,1,.06-.67c0-.22.08-.44.11-.67v-.08a.54.54,0,0,0-.5-.6.58.58,0,0,0-.58.29c-.12.24-.24.48-.35.72a4.61,4.61,0,0,0-.27.75l-.11.39c0,.13,0,.26-.07.39s-.1.52-.12.78l0,.78c0,.26,0,.52,0,.78a6.89,6.89,0,0,0,.06.77c0,.25.05.52.1.77l.14.76.18.75c.06.25.13.49.21.74s.15.49.24.73.17.48.26.72.19.48.29.71.21.47.32.7.23.45.37.7l0,.06a1.07,1.07,0,0,0,1.24.47h0a20.15,20.15,0,0,1,2.06-.37l1.07-.12,1.08-.07,1.08,0H30.5c.72,0,1.44.06,2.15.16s1.42.21,2.12.33l1,.25.52.13.51.16,1,.32,1,.38.48.19.5.24,1,.49.06,0,0,0,0,0h0l.11.07.22.14.44.27a7.33,7.33,0,0,1,.86.57l.81.62c.28.2.5.46.75.68A16.21,16.21,0,0,1,45.43,47a17.93,17.93,0,0,1,1.13,1.67,8.47,8.47,0,0,1,.49.88c.14.3.32.59.44.91s.26.62.38.93l.33,1,.27,1c.07.33.16.65.21,1s.12.66.16,1,.07.67.08,1l.79-1c-.54.14-1.18.26-1.79.35s-1.23.17-1.85.23a29,29,0,0,1-3.73.11c-.62,0-1.24-.07-1.85-.13s-1.22-.16-1.83-.27l-.9-.19-.88-.24c-.58-.18-1.16-.36-1.72-.59l-.42-.17-.41-.19c-.27-.13-.55-.24-.8-.4l-.78-.44L32,52.86c-.25-.16-.47-.35-.71-.53L31,52.06l-.33-.29c-.21-.2-.45-.38-.65-.6l-.61-.64c-.2-.21-.37-.45-.56-.67a6.87,6.87,0,0,1-.53-.7l-.49-.72c-.15-.25-.29-.51-.44-.76-.31-.5-.53-1-.79-1.56s-.43-1.09-.65-1.63l-.59,1.25.63-.23.68-.21c.46-.13.92-.24,1.4-.33s.95-.16,1.42-.22,1-.08,1.43-.1h.71l.71,0,.71.06.7.1c.46.08.93.17,1.38.3.23.05.45.13.67.2a6.69,6.69,0,0,1,.66.24c.44.16.85.37,1.27.57s.81.45,1.19.71.75.54,1.12.82.71.6,1,.94l.49.49.45.53c.31.34.57.73.85,1.1s.51.77.77,1.16l.69,1.21.82-1.47c-.28,0-.65.06-1,.08l-1,0c-.68,0-1.37,0-2-.1a17.9,17.9,0,0,1-4-.82c-.32-.1-.62-.22-.93-.34s-.61-.26-.9-.41-.57-.31-.86-.47-.55-.34-.81-.54-.51-.39-.76-.59-.48-.42-.69-.66l-.33-.34-.29-.35L31.41,47l-.15-.21-.3-.42a1.13,1.13,0,0,0-1.51-.27A1,1,0,0,0,29.15,47.48Z"/><path class="cls-1" d="M16.1,31.4a1.08,1.08,0,0,0-1.05.81c-.15.65-3.52,16,5.48,24.31s25.15,1.68,25.83,1.39a1,1,0,0,0,.54-1.35A1.12,1.12,0,0,0,45.47,56c-.15.06-15.36,6.42-23.41-1s-4.91-22.28-4.88-22.42a1,1,0,0,0-.84-1.21Z"/><path class="cls-1" d="M13.26,31.16a.75.75,0,0,0-.74.57c0,.15-.8,3.81,1.77,9.79a.78.78,0,0,0,1,.39A.7.7,0,0,0,15.7,41C13.33,35.45,14,32.05,14,32a.72.72,0,0,0-.59-.84Z"/><path class="cls-1" d="M4.52,22a.76.76,0,0,0-.71.49.69.69,0,0,0,.29.82l6.31,4-5,2.15a.71.71,0,0,0-.44.76.74.74,0,0,0,.66.6l9.42,1a.75.75,0,0,0,.84-.63.73.73,0,0,0-.67-.79l-6.7-.73,3.77-1.61a.72.72,0,0,0,.44-.59.7.7,0,0,0-.33-.65L7.26,23.56l6,.34a.75.75,0,0,0,.81-.67.73.73,0,0,0-.71-.76L4.58,22Z"/><path class="cls-1" d="M19.88,26.6a2.65,2.65,0,1,1-2.67-2.46A2.58,2.58,0,0,1,19.88,26.6Zm-1.52,0a1.13,1.13,0,1,0-1.11,1.07A1.09,1.09,0,0,0,18.36,26.61Z"/><path class="cls-1" d="M37.86,58.81a.74.74,0,0,0-.75.72l.13,12.73a.76.76,0,0,0,1.52,0l-.13-12.73A.74.74,0,0,0,37.86,58.81Z"/><path class="cls-1" d="M37.95,67.86A3.58,3.58,0,0,0,34,72.45.76.76,0,0,0,35,73a.72.72,0,0,0,.57-.86A2.72,2.72,0,0,1,35.91,70,2.61,2.61,0,0,1,38,69.3a2.79,2.79,0,0,1,3.18,2.9.74.74,0,0,0,.74.74.75.75,0,0,0,.79-.69A4.56,4.56,0,0,0,41.38,69,4.7,4.7,0,0,0,37.95,67.86Z"/><path class="cls-1" d="M28.17,58.9a.74.74,0,0,0-.75.72l.13,12.73a.76.76,0,0,0,1.52,0l-.13-12.73A.74.74,0,0,0,28.17,58.9Z"/><path class="cls-1" d="M28.26,68A4.06,4.06,0,0,0,25,69.23a4.07,4.07,0,0,0-.66,3.32.76.76,0,0,0,.91.53.72.72,0,0,0,.57-.86,2.72,2.72,0,0,1,.38-2.11,2.61,2.61,0,0,1,2.05-.72,2.79,2.79,0,0,1,3.18,2.9.74.74,0,0,0,.74.74.75.75,0,0,0,.79-.69,4.56,4.56,0,0,0-1.28-3.19A4.7,4.7,0,0,0,28.26,68Z"/><path class="cls-1" d="M50,55.22a1.09,1.09,0,0,0-1,.63,1,1,0,0,0,.58,1.34c4.82,1.92,12.69,6,13.31,9a1.49,1.49,0,0,1-.54,1.47,3.8,3.8,0,0,1-3.11,1C54.4,68.22,47.3,61.84,44,57.38a1.13,1.13,0,0,0-1.51-.26,1,1,0,0,0-.28,1.42c3.48,4.74,11,11.64,16.81,12.1A6,6,0,0,0,63.9,69,3.45,3.45,0,0,0,65,65.74c-1-4.92-13.21-9.88-14.59-10.43A1.15,1.15,0,0,0,50,55.22Z"/><line class="cls-2" x1="8.14" y1="10.97" x2="59.62" y2="10.97"/><path class="cls-2" d="M52.89,3.4C53.12,3.4,63.14,11,63.14,11L52.89,18.12"/><line class="cls-2" x1="63.14" y1="85.07" x2="11.65" y2="85.07"/><path class="cls-2" d="M18.39,77.5c-.23,0-10.25,7.57-10.25,7.57l10.25,7.15"/></svg>