<svg id="Capa_1" data-name="Capa 1" xmlns="http://www.w3.org/2000/svg" viewBox="0 0 84.87 78.1"><defs><style>.cls-1{fill:none;stroke:#fff;stroke-linecap:round;stroke-linejoin:round;stroke-width:2.37px;}.cls-2{fill:#fff;}</style></defs><title>Mesa de trabajo 32</title><path class="cls-1" d="M84.87,51.94,67.25,14.84a4.92,4.92,0,0,0-9.11.52L45.64,51.94"/><path class="cls-1" d="M68.06,64.15,44.35,8.45a5.31,5.31,0,0,0-9.92.42L16.22,64.15"/><path class="cls-2" d="M42.24,54.38l-6.74-9.09a4.84,4.84,0,0,0,2.37-7.47l-4.73-6.38a3.63,3.63,0,0,0,1-5.24l-9.7-13.08a3.63,3.63,0,0,0-6.12.45l-7,13.08a3.61,3.61,0,0,0,.34,3.94L7.51,38.42a4.84,4.84,0,0,0,1.78,6.43L3.8,55.15a6.12,6.12,0,0,0,5.4,9h5.61v9a2.8,2.8,0,0,0,2.8,2.8H27a2.8,2.8,0,0,0,2.8-2.8v-9h7.5A6.12,6.12,0,0,0,42.24,54.38Z"/></svg>