<?xml version="1.0" encoding="utf-8"?>
<!-- Generator: Adobe Illustrator 21.1.0, SVG Export Plug-In . SVG Version: 6.00 Build 0)  -->
<svg version="1.1" id="Capa_1" xmlns="http://www.w3.org/2000/svg" xmlns:xlink="http://www.w3.org/1999/xlink" x="0px" y="0px"
	 viewBox="0 0 1619.258 1050.196" style="enable-background:new 0 0 1619.258 1050.196;" preserveAspectRatio="none" xml:space="preserve">
<style type="text/css">
	.st0{opacity:0.7;fill:#3B2011;}
	.st1{opacity:0.7;}
	.st2{fill:#A35230;}
	.st3{fill:#513628;}
	.st4{fill:#9F684F;}
	.st5{fill:#C3002F;}
	.st6{fill:#DBC79D;}
	.st7{fill:#CFA175;}
	.st8{fill:#646569;}
	.st9{fill:#FFFFFF;}
	.st10{fill:#369040;}
	
		.st11{opacity:0.7;fill:none;stroke:#FFFFFF;stroke-width:8.2967;stroke-linecap:round;stroke-linejoin:round;stroke-miterlimit:10;}
	.st12{fill:#513528;}
	
		.st13{opacity:0.7;fill:none;stroke:#FFFFFF;stroke-width:4.8855;stroke-linecap:round;stroke-linejoin:round;stroke-miterlimit:10;}
	
		.st14{opacity:0.7;fill:none;stroke:#FFFFFF;stroke-width:4.0904;stroke-linecap:round;stroke-linejoin:round;stroke-miterlimit:10;}
	.st15{opacity:0.7;fill:none;stroke:#FFFFFF;stroke-width:2.225;stroke-linecap:round;stroke-linejoin:round;stroke-miterlimit:10;}
	.st16{fill:#DBC6B4;}
	.st17{fill:#BAA99A;}
	
		.st18{opacity:0.7;fill:none;stroke:#FFFFFF;stroke-width:9.5453;stroke-linecap:round;stroke-linejoin:round;stroke-miterlimit:10;}
	.st19{fill:none;stroke:#369040;stroke-width:5.4545;stroke-miterlimit:10;}
	.st20{fill:#2A8258;}
	.st21{fill:#F7EAE2;}
	.st22{fill:none;}
	.st23{fill:#A55330;}
	.st24{fill:none;stroke:#369040;stroke-width:3.9579;stroke-miterlimit:10;}
	.st25{fill:#010202;}
	.st26{fill:none;stroke:#010202;stroke-width:0.262;stroke-miterlimit:10;}
	.st27{fill:#C31632;}
	.st28{fill:#603726;}
	.st29{fill:none;stroke:#603726;stroke-width:1.2614;stroke-miterlimit:10;}
	.st30{fill:#81A77D;}
	.st31{fill:#F9EEE8;}
	.st32{fill:none;stroke:#369040;stroke-width:3.759;stroke-miterlimit:10;}
	.st33{fill:#414141;}
	.st34{opacity:0.7;fill:#D4C0AB;}
	.st35{fill:#D4C0AB;}
	.st36{opacity:0.7;fill:none;stroke:#796E63;stroke-width:5.012;stroke-linecap:round;stroke-linejoin:round;stroke-miterlimit:10;}
	.st37{opacity:0.7;fill:#796E63;}
	.st38{fill:#796E63;}
	.st39{opacity:0.7;fill:#1C0E08;}
	.st40{fill:none;stroke:#369040;stroke-width:5.7607;stroke-miterlimit:10;}
	.st41{fill:#FFFFFF;stroke:#FFFFFF;stroke-miterlimit:10;}
	.st42{fill:#369040;stroke:#369040;stroke-miterlimit:10;}
	.st43{fill:none;stroke:#369040;stroke-width:1.4402;stroke-miterlimit:10;}
	.st44{fill:#369040;stroke:#FFFFFF;stroke-width:2.9279;stroke-linecap:round;stroke-linejoin:round;stroke-miterlimit:10;}
</style>
<path class="st28" d="M1612.913,0h-0.984v55.638l-47.298,4.066c0,0-24.026-0.097-98.679,22.276
	c-74.653,22.373-189.304-44.235-189.304-44.235S1169.404-1.565,1143.329,88.5c-26.075,90.065-102.255,86.411-102.255,86.411
	l-226.498-45.189c0,0-161.961-110.826-259.361-15.484c-97.4,95.342-185.273,3.549-239.007,24.139
	c-53.734,20.589-94.991-32.836-94.991-32.836L7.931,48.366v771.477H3.37c0,0-7.583,102.008,0,102.008l217.636,58.65
	c0,0,41.218,53.659,94.901,32.979c53.683-20.679,141.472,71.514,238.78-24.244c97.307-95.758,259.114,15.552,259.114,15.552
	l226.283,45.387c0,0,76.107,3.67,102.158-86.788c26.051-90.458,133.191-50.976,133.191-50.976s114.542,66.899,189.124,44.429
	c74.583-22.471,98.585-22.374,98.585-22.374l47.253-4.084v-38.665h2.518V0z"/>
</svg>
