<?xml version="1.0" encoding="utf-8"?>
<!-- Generator: Adobe Illustrator 21.1.0, SVG Export Plug-In . SVG Version: 6.00 Build 0)  -->
<svg version="1.1" id="Capa_1" xmlns="http://www.w3.org/2000/svg" xmlns:xlink="http://www.w3.org/1999/xlink" x="0px" y="0px"
	 viewBox="0 0 256 480" style="enable-background:new 0 0 256 480;" xml:space="preserve">
<style type="text/css">
	.st0{opacity:0.7;fill:#3B2011;}
	.st1{opacity:0.7;}
	.st2{fill:#A35230;}
	.st3{fill:#513628;}
	.st4{fill:#9F684F;}
	.st5{fill:#C3002F;}
	.st6{fill:#DBC79D;}
	.st7{fill:#CFA175;}
	.st8{fill:#646569;}
	.st9{fill:#FFFFFF;}
	.st10{fill:#369040;}
	
		.st11{opacity:0.7;fill:none;stroke:#FFFFFF;stroke-width:8.2967;stroke-linecap:round;stroke-linejoin:round;stroke-miterlimit:10;}
	.st12{fill:#513528;}
	
		.st13{opacity:0.7;fill:none;stroke:#FFFFFF;stroke-width:4.8855;stroke-linecap:round;stroke-linejoin:round;stroke-miterlimit:10;}
	
		.st14{opacity:0.7;fill:none;stroke:#FFFFFF;stroke-width:4.0904;stroke-linecap:round;stroke-linejoin:round;stroke-miterlimit:10;}
	.st15{opacity:0.7;fill:none;stroke:#FFFFFF;stroke-width:2.225;stroke-linecap:round;stroke-linejoin:round;stroke-miterlimit:10;}
	.st16{fill:#DBC6B4;}
	.st17{fill:#BAA99A;}
	
		.st18{opacity:0.7;fill:none;stroke:#FFFFFF;stroke-width:9.5453;stroke-linecap:round;stroke-linejoin:round;stroke-miterlimit:10;}
	.st19{fill:none;stroke:#369040;stroke-width:5.4545;stroke-miterlimit:10;}
	.st20{fill:#2A8258;}
	.st21{fill:#F7EAE2;}
	.st22{fill:none;}
	.st23{fill:#A55330;}
	.st24{fill:none;stroke:#369040;stroke-width:3.9579;stroke-miterlimit:10;}
	.st25{fill:#010202;}
	.st26{fill:none;stroke:#010202;stroke-width:0.262;stroke-miterlimit:10;}
	.st27{fill:#C31632;}
	.st28{fill:#603726;}
	.st29{fill:none;stroke:#603726;stroke-width:1.2614;stroke-miterlimit:10;}
	.st30{fill:#81A77D;}
	.st31{fill:#F9EEE8;}
	.st32{fill:none;stroke:#369040;stroke-width:3.759;stroke-miterlimit:10;}
	.st33{fill:#414141;}
	.st34{opacity:0.7;fill:#D4C0AB;}
	.st35{fill:#D4C0AB;}
	.st36{opacity:0.7;fill:none;stroke:#796E63;stroke-width:5.012;stroke-linecap:round;stroke-linejoin:round;stroke-miterlimit:10;}
	.st37{opacity:0.7;fill:#796E63;}
	.st38{fill:#796E63;}
	.st39{opacity:0.7;fill:#1C0E08;}
	.st40{fill:none;stroke:#369040;stroke-width:5.7607;stroke-miterlimit:10;}
	.st41{fill:#FFFFFF;stroke:#FFFFFF;stroke-miterlimit:10;}
	.st42{fill:#369040;stroke:#369040;stroke-miterlimit:10;}
	.st43{fill:none;stroke:#369040;stroke-width:1.4402;stroke-miterlimit:10;}
	.st44{fill:#369040;stroke:#FFFFFF;stroke-width:2.9279;stroke-linecap:round;stroke-linejoin:round;stroke-miterlimit:10;}
</style>
<path class="st30" d="M116.622,179.762c-0.133,0.011-0.266,0.023-0.398,0.034c-0.862-2.486-1.724-4.972-2.586-7.458
	c-0.078,0.005-0.156,0.011-0.234,0.016c-0.088,0.486-0.176,0.972-0.264,1.457c-0.157,0.02-0.314,0.039-0.47,0.058
	c-1.139-3.746-2.568-7.433-1.843-11.304c-0.289,0.519-0.665,1.194-1.048,1.882c-1.263-1.056-1.459-2.074-0.834-3.495
	c0.369-0.84,0.599-1.741,0.957-2.811c-0.937,0.268-1.66,0.474-2.669,0.762c0.047-1.818,0.088-3.423,0.12-4.649
	c-0.618-1.481-1.132-2.711-1.712-4.1c-0.004,1.47-0.008,2.822-0.012,4.175c-0.166,0.05-0.332,0.1-0.499,0.15
	c-0.453-1.077-0.906-2.154-1.414-3.362c0.192,2.116,0.374,4.114,0.555,6.112c-0.199,0.046-0.398,0.093-0.597,0.139
	c-0.609-1.449-1.218-2.898-1.777-4.228c0.28,3.102,0.576,6.376,0.91,10.073c-0.652-0.639-0.985-0.965-1.392-1.363
	c0.119,0.972,0.225,1.84,0.332,2.709c-0.047,0.016-0.095,0.031-0.142,0.046c0.125,0.106,0.236,0.219,0.367,0.321
	c11.376,8.815,15.193,20.708,13.627,34.796c-0.225,2.026-0.6,4.071-0.514,6.079c0.046,1.058,0.939,2.055,1.45,3.08
	c0.383-0.335,0.807-0.647,1.218-0.966v-28.027c-0.249-0.98-0.501-1.971-0.765-3.011
	C116.859,177.889,116.741,178.826,116.622,179.762z"/>
<path class="st30" d="M114.465,96.203c-0.141-0.99-0.281-1.979-0.422-2.969c-0.153,0.019-0.306,0.039-0.459,0.058
	c0.1,0.982,0.199,1.965,0.299,2.947C114.077,96.227,114.271,96.215,114.465,96.203z"/>
<path class="st30" d="M99.265,161.466c0.047,0.228,0.095,0.457,0.142,0.685c0.387,0.585,0.831,1.14,1.336,1.662
	c-0.413-0.797-0.826-1.594-1.239-2.392C99.424,161.437,99.344,161.451,99.265,161.466z"/>
<path class="st30" d="M96.347,151.048c-0.911,1.085-1.822,2.17-2.733,3.255c0.095,0.084,0.19,0.169,0.284,0.253
	c0.587-0.633,1.173-1.266,1.76-1.899c0.032-0.076,0.065-0.151,0.096-0.227c0.032,0.006,0.064,0.013,0.097,0.019
	c0.313-0.337,0.626-0.675,0.939-1.013C96.642,151.307,96.494,151.178,96.347,151.048z"/>
<path class="st30" d="M117.752,242.282v-4.111c-1.148-0.721-2.301-1.433-3.442-2.169
	C115.859,237.995,117.007,240.09,117.752,242.282z"/>
<path class="st30" d="M91.187,165.778c0.105,0.063,0.21,0.126,0.316,0.189c0.339-0.513,0.678-1.027,1.016-1.539
	c0.035-0.334,0.078-0.667,0.116-1.001c-0.06-0.035-0.119-0.071-0.179-0.106C92.033,164.139,91.61,164.959,91.187,165.778z"/>
<path class="st30" d="M107.327,147.756c0.097,1.463,0.186,2.813,0.293,4.428C108.381,150.482,108.239,148.489,107.327,147.756z"/>
<path class="st30" d="M93.579,157.641c0.083-0.278,0.176-0.555,0.277-0.83c-0.71,0.804-1.419,1.608-2.129,2.411
	C92.344,158.695,92.961,158.168,93.579,157.641z"/>
<path class="st30" d="M117.752,234.634v-0.939c-0.522-0.297-1.085-0.6-1.695-0.971C116.251,233.187,116.849,233.844,117.752,234.634
	z"/>
<path class="st30" d="M93.477,148.736c2.21-1.592,4.243-3.056,6.29-4.53C97.971,144.547,94.606,146.916,93.477,148.736z"/>
<path class="st30" d="M97.945,111.969c-0.075-0.494-0.142-0.941-0.228-1.509c-0.59-0.042-1.079-0.077-1.54-0.11
	c-0.417-1.627-0.417-1.627-1.508-1.758c0.621,1.254,1.22,2.463,1.815,3.667C97.037,112.149,97.475,112.062,97.945,111.969z"/>
<path class="st30" d="M91.41,264.258c3.893,4.059,7.495,8.404,10.93,12.927c-1.874-4.732-3.674-9.486-5.323-14.287
	c-0.729,0.27-1.501,0.491-2.314,0.668C93.607,263.805,92.508,264.033,91.41,264.258z"/>
<path class="st30" d="M99.402,118.48c0.124-0.086,0.248-0.171,0.372-0.256c-0.462-0.715-0.924-1.43-1.386-2.144
	C98.257,117.203,98.37,118.161,99.402,118.48z"/>
<path class="st30" d="M91.682,84.53c0.076,0.853,0.152,1.706,0.227,2.559c0.163-0.01,0.327-0.02,0.49-0.031
	c-0.022-0.854-0.043-1.709-0.065-2.564C92.117,84.507,91.9,84.518,91.682,84.53z"/>
<path class="st30" d="M91.877,115.528c-0.887-1.553-1.774-3.107-2.66-4.66C89.804,112.585,89.743,114.649,91.877,115.528z"/>
<path class="st30" d="M106.773,104.061c-0.676,3.457-0.447,6.329,0.504,7.549C107.104,109.008,106.939,106.534,106.773,104.061z"/>
<path class="st30" d="M104.106,105.753c-0.314-1.341-0.561-2.397-0.808-3.454c-0.127,0.016-0.254,0.033-0.381,0.049
	C102.952,103.475,102.731,104.67,104.106,105.753z"/>
<path class="st30" d="M83.684,133.136c-1.272,0.026-2.29,0.047-3.44,0.07C81.12,134.463,81.897,134.442,83.684,133.136z"/>
<path class="st30" d="M80.503,367.345c1.089,1.723,2.321,3.365,3.608,4.949c0.388,0.478,1.088,0.801,1.706,0.972
	c0.956,0.264,1.536-0.295,1.522-1.484c-0.089-0.294-0.1-0.89-0.4-1.235c-1.449-1.666-2.932-3.311-4.513-4.85
	c-0.206-0.2-0.725-0.302-1.13-0.284c-0.251,0.21-0.502,0.422-0.755,0.631C80.375,366.497,80.322,367.059,80.503,367.345z"/>
<path class="st30" d="M122.547,406.17c0.141-0.61,0.028-1.026-0.434-1.22v2.041C122.331,406.711,122.487,406.43,122.547,406.17z"/>
<path class="st30" d="M122.114,386.468v3.041C122.496,388.542,122.505,387.422,122.114,386.468z"/>
<path class="st30" d="M106.317,256.092c-0.109-1.047-0.2-2.096-0.276-3.148c-1.904,0.714-2.638,2.07-3.01,3.476
	c-0.443,1.678-1.181,2.99-2.15,4.022c0.425,0.747,0.858,1.489,1.27,2.243c1.424,2.606,2.75,5.267,4.052,7.936
	c1.321,2.707,2.559,5.455,3.938,8.158c-0.943-4.911-1.944-9.814-2.746-14.739C105.911,261.671,105.775,258.981,106.317,256.092z"/>
<path class="st30" d="M146.203,417.498c0.045,0.196,0.087,0.37,0.13,0.545h0.566C146.665,417.86,146.441,417.684,146.203,417.498z"
	/>
<path class="st30" d="M133.693,431.293c0.224,0.13,0.927-0.27,1.221-0.603c1.536-1.738,1.341-3.738,0.764-5.943
	c-0.342,0.118-0.599,0.126-0.704,0.256c-1.181,1.459-2.002,3.096-2.029,5C132.937,430.45,133.31,431.07,133.693,431.293z"/>
<path class="st30" d="M117.397,407.091c-0.661,0.866-0.478,1.582,0.355,1.884v-2.304C117.63,406.804,117.51,406.942,117.397,407.091
	z"/>
<path class="st30" d="M123.131,192.831c0.57-0.878,0.712-2.199,0.625-3.271c-0.134-1.646-0.067-3.242,0.177-4.802
	c-0.278-0.385-0.552-0.777-0.821-1.185c0.256,1.275,0.436,2.173,0.617,3.072c-0.185,0.086-0.37,0.173-0.555,0.259
	c-0.355-0.553-0.707-1.101-1.061-1.653v9.411C122.414,194.044,122.742,193.431,123.131,192.831z"/>
<path class="st30" d="M117.752,348.643v-6.71c-0.554,2.21-1.122,4.417-1.696,6.621C116.622,348.57,117.187,348.601,117.752,348.643z
	"/>
<path class="st30" d="M106.534,349.154c-0.429,0.626-0.855,1.253-1.294,1.872c2.21,0.391,3.901,1.564,5.217,3.251
	c0.076-0.541,0.16-1.082,0.245-1.622C109.441,351.407,108.057,350.238,106.534,349.154z"/>
<path class="st30" d="M114.018,356.508c-0.273,1.088-0.54,2.177-0.801,3.268c0.935,2.698,1.515,5.507,2.171,8.292
	c0.588,2.494,1.191,4.993,1.977,7.429c0.106,0.328,0.24,0.599,0.387,0.836v-13.227C116.743,360.753,115.507,358.549,114.018,356.508
	z"/>
<path class="st30" d="M116.419,278.409c0.002-4.686-0.163-10.164,0.054-15.626c0.077-1.924,0.209-3.844,0.425-5.754
	c-1.172,2.656-2.816,5.072-4.693,7.361C113.637,269.154,115.048,273.849,116.419,278.409z"/>
<path class="st30" d="M95.361,364.625c0.66,1.263,1.171,2.605,1.859,3.851c0.336,0.608,0.878,1.128,1.41,1.594
	c0.743,0.651,1.629,1.224,2.615,0.606c0.967-0.606,0.54-1.593,0.328-2.417c-0.757-2.937-1.854-5.628-3.379-8.006
	c-1.031,1.257-2.09,2.492-3.168,3.709C95.138,364.182,95.247,364.406,95.361,364.625z"/>
<path class="st30" d="M87.528,267.778c1.974,2.299,3.873,4.664,5.764,7.032c1.917,2.402,3.782,4.845,5.67,7.27
	c0.101-0.067,0.201-0.135,0.302-0.201c-3.211-4.799-6.337-9.657-9.656-14.38c-0.589-0.837-1.189-1.667-1.789-2.497
	c-0.765,0.16-1.529,0.326-2.292,0.495C86.196,266.254,86.869,267.01,87.528,267.778z"/>
<path class="st30" d="M101.012,350.842c1.775-3.308,3.475-6.662,5.164-10.031c-2.946,3.467-6.004,6.815-9.164,10.058
	C98.345,350.837,99.679,350.831,101.012,350.842z"/>
<path class="st30" d="M114.463,336.282c-2.445,4.041-4.684,8.076-7.25,11.89c-0.202,0.301-0.414,0.596-0.619,0.896
	c1.599-0.134,3.198-0.279,4.799-0.397C112.194,344.524,113.228,340.397,114.463,336.282z"/>
<path class="st30" d="M93.113,354.765c-0.735,0.715-1.48,1.42-2.226,2.125c0.212,0.214,0.418,0.443,0.606,0.705
	c1.081,1.499,1.928,3.169,2.763,4.845c0.854-1.374,1.695-2.754,2.527-4.141C95.728,356.998,94.509,355.816,93.113,354.765z"/>
<path class="st30" d="M109.888,135.714c-0.159-0.014-0.318-0.027-0.476-0.041c-0.117,1.46-0.234,2.919-0.351,4.379
	c0.084,0.003,0.167,0.006,0.251,0.009C109.503,138.612,109.695,137.162,109.888,135.714z"/>
<path class="st30" d="M82.678,383.245c-0.084-0.005-0.169-0.006-0.252,0.004c-3.962,0.472-7.557-0.744-11.07-2.376
	c-0.486-0.226-1.039-0.309-1.56-0.458c-0.091,0.13-0.182,0.261-0.272,0.391c0.336,0.48,0.589,1.057,1.021,1.425
	c3.519,2.997,7.529,4.555,12.213,3.954c0.91-0.117,1.93-0.267,2.104-1.436C84.973,384.003,83.904,383.316,82.678,383.245z"/>
<path class="st30" d="M77.087,269.823c4.822,3.518,9.395,7.386,13.908,11.363c-3.278-4.816-6.57-9.619-9.646-14.553
	C79.599,267.333,78.136,268.353,77.087,269.823z"/>
<path class="st30" d="M104.693,381.859c0.471-0.344,0.956-1.233,0.823-1.72c-0.249-0.909-0.84-1.788-1.486-2.501
	c-0.34-0.376-1.215-0.65-1.63-0.469c-0.436,0.19-0.61,0.979-0.997,1.686c0.546,0.963,0.964,1.973,1.64,2.763
	C103.333,381.956,104.355,382.106,104.693,381.859z"/>
<path class="st30" d="M109.095,411.332c-0.445,0.097-0.888,0.258-1.294,0.464c-1.572,0.801-3.127,1.636-4.693,2.449
	c-2.212,1.15-4.428,2.291-6.643,3.437c0.014,0.124,0.029,0.249,0.043,0.374c2.514-0.245,5.105-0.192,7.519-0.82
	c2.223-0.578,4.275-1.847,6.361-2.895c0.762-0.383,1.189-1.117,0.785-2.015C110.776,411.441,110.026,411.128,109.095,411.332z"/>
<path class="st30" d="M101.802,398.624c0.15,0.512,1.104,0.79,1.888,1.284c1.137-0.607,2.254-1.068,3.191-1.769
	c0.381-0.285,0.654-1.229,0.462-1.623c-0.203-0.415-1.063-0.804-1.557-0.723c-1.048,0.172-2.132,0.515-3.031,1.065
	C102.233,397.178,101.662,398.148,101.802,398.624z"/>
<path class="st30" d="M124.358,420.591c-1.131-0.818-1.912,0.374-2.651,1.043c-0.279,0.253-0.55,0.514-0.826,0.771h3.879
	C125.002,421.756,125.058,421.098,124.358,420.591z"/>
<path class="st30" d="M119.264,206.389c0.562-0.923,0.59-2.196,0.709-3.326c0.308-2.919,0.853-5.745,2.14-8.4v-9.411
	c-1.087-1.693-2.169-3.378-3.216-5.009c-0.047,0.156-0.181,0.602-0.316,1.049c-0.151,0.028-0.302,0.057-0.453,0.085
	c-0.125-0.492-0.251-0.989-0.377-1.485v28.027C118.342,207.459,118.904,206.982,119.264,206.389z"/>
<path class="st30" d="M229.905,111.342h-96.359c-0.953,0.14-1.902,0.281-2.844,0.447c0.027,0.162,0.055,0.325,0.082,0.486
	c1.911-0.086,3.823-0.171,6.014-0.27c-1.646,2.531-3.892,2.872-5.958,3.152c0.107,0.179,0.21,0.353,0.325,0.546h98.74V111.342z"/>
<path class="st30" d="M122.114,151.257v-0.173c-0.018,0.038-0.036,0.076-0.054,0.114
	C122.078,151.217,122.096,151.237,122.114,151.257z"/>
<path class="st30" d="M146.333,418.043c0.187,0.78,0.344,1.394,0.457,2.005c0.146,0.792,0.236,1.576,0.3,2.356h5.377
	c-1.788-1.399-3.608-2.826-5.568-4.362H146.333z"/>
<path class="st30" d="M229.905,422.405v-4.362h-77.113c1.786,1.453,3.577,2.908,5.365,4.362H229.905z"/>
<path class="st30" d="M120.17,153.79c0.648,0.65,1.296,1.3,1.944,1.95v-1.632c-0.576-0.243-1.152-0.485-1.728-0.728
	C120.314,153.517,120.242,153.653,120.17,153.79z"/>
<path class="st30" d="M117.752,242.282c0.629,1.853,0.966,3.778,0.998,5.773c0.157-0.491,0.313-0.982,0.492-1.47
	c0.957,10.082,1.914,20.163,2.872,30.244v-35.968c-1.461-0.883-2.914-1.782-4.362-2.691V242.282z"/>
<path class="st30" d="M119.86,376.885c0.531-0.432,1.023-1.38,0.939-2.017c-0.312-2.364-0.712-4.741-1.367-7.031
	c-0.468-1.638-1.03-3.214-1.681-4.731v13.227C118.319,377.243,119.142,377.47,119.86,376.885z"/>
<path class="st30" d="M117.752,233.696v0.939c1.072,0.938,2.578,2.067,4.362,3.292v-1.233c-0.956-0.542-1.883-1.183-2.774-1.941
	C118.873,234.356,118.34,234.03,117.752,233.696z"/>
<path class="st30" d="M117.849,348.651c-0.015-2.674,0.059-5.365,0.244-8.071c-0.111,0.452-0.229,0.902-0.342,1.353v6.71
	C117.784,348.645,117.816,348.648,117.849,348.651z"/>
<path class="st30" d="M117.752,406.671v2.304c0.163,0.059,0.342,0.108,0.554,0.132c1.069,0.124,2.944-0.998,3.808-2.115v-2.041
	c-0.22-0.093-0.512-0.139-0.907-0.124C119.957,405.008,118.723,405.607,117.752,406.671z"/>
<path class="st30" d="M119.553,385.506c-0.55,1.044-0.869,2.21-1.195,3.077c0.193,0.835,0.255,1.341,0.428,1.804
	c0.408,1.091,1.252,1.331,2.18,0.663c0.534-0.383,0.906-0.933,1.147-1.542v-3.041c-0.166-0.406-0.386-0.786-0.698-1.099
	C120.713,384.667,119.981,384.693,119.553,385.506z"/>
<path class="st30" d="M91.932,169.792c0.23-1.784,0.397-3.576,0.587-5.365c-0.339,0.513-0.678,1.026-1.016,1.539
	c-0.105-0.063-0.21-0.126-0.316-0.189c0.423-0.819,0.846-1.639,1.269-2.458c0.06,0.035,0.119,0.071,0.179,0.106
	c0.181-1.607,0.386-3.209,0.694-4.796c0.065-0.333,0.153-0.662,0.25-0.99c-0.617,0.527-1.235,1.054-1.852,1.581
	c-0.055,0.062-0.109,0.124-0.164,0.186c-0.021,0.023-0.042,0.047-0.063,0.07c-0.063,0.179-0.114,0.367-0.221,0.515
	c-1.454,1.999-2.937,3.978-4.378,5.987c-0.824,1.15-0.582,1.884,0.661,2.158c-0.471,1.402-2.02,2.42-1.52,4.257
	c0.353-0.007,0.676-0.013,1.019-0.02c-0.389,0.878-0.855,1.653-1.058,2.491c-0.117,0.484,0.191,1.071,0.308,1.612
	c0.378-0.282,0.768-0.551,1.129-0.853c0.156-0.131,0.253-0.331,0.519-0.693c-0.012,1.662-0.918,3.221,0.58,4.438
	c-0.523,1.087-0.724,2.119,0.619,2.834c0.168,0.09,0.265,0.344,0.359,0.538c0.665,1.376,1.2,2.834,2.02,4.11
	c0.449,0.698,1.087,1.274,1.716,1.856C91.316,182.808,91.071,176.467,91.932,169.792z"/>
<path class="st30" d="M91.727,159.222c0.71-0.803,1.419-1.607,2.129-2.411c0.514-1.398,1.224-2.765,1.802-4.153
	c-0.587,0.633-1.173,1.266-1.76,1.899c-0.095-0.085-0.19-0.169-0.284-0.253c0.911-1.085,1.822-2.17,2.733-3.255
	c0.148,0.129,0.295,0.259,0.443,0.388c-0.313,0.338-0.626,0.676-0.939,1.013c0.234,0.046,0.468,0.091,0.701,0.137
	c0.178,1.066,0.352,2.132,0.535,3.197c0.398,2.327,1.084,4.496,2.32,6.368c-0.047-0.228-0.095-0.457-0.142-0.685
	c0.08-0.015,0.159-0.029,0.239-0.044c0.413,0.797,0.826,1.594,1.239,2.392c0.267,0.275,0.557,0.538,0.86,0.794
	c0.047-0.015,0.095-0.031,0.142-0.046c-0.106-0.869-0.213-1.737-0.332-2.709c0.407,0.398,0.74,0.725,1.392,1.363
	c-0.334-3.697-0.63-6.971-0.91-10.073c0.559,1.33,1.168,2.779,1.777,4.228c0.199-0.046,0.398-0.093,0.597-0.139
	c-0.181-1.998-0.363-3.996-0.555-6.112c0.508,1.208,0.961,2.285,1.414,3.362c0.166-0.05,0.333-0.1,0.499-0.15
	c0.004-1.352,0.008-2.705,0.012-4.175c0.58,1.389,1.094,2.618,1.712,4.1c-0.032,1.226-0.073,2.831-0.12,4.649
	c1.009-0.288,1.731-0.495,2.669-0.762c-0.358,1.069-0.587,1.971-0.957,2.811c-0.624,1.421-0.429,2.439,0.834,3.495
	c0.383-0.688,0.759-1.363,1.048-1.882c-0.725,3.871,0.703,7.558,1.843,11.304c0.157-0.02,0.314-0.039,0.47-0.058
	c0.088-0.486,0.176-0.971,0.264-1.457c0.078-0.005,0.156-0.011,0.234-0.016c0.862,2.486,1.724,4.972,2.586,7.458
	c0.133-0.011,0.266-0.023,0.398-0.034c0.118-0.937,0.237-1.873,0.365-2.882c0.264,1.041,0.516,2.031,0.765,3.011v-68.549h15.794
	c3.381-0.497,6.821-0.984,10.231-2.569c-1.679-1.067-3.379-0.761-5.103-1.243c1.895-0.308,3.5-0.568,5.136-0.834
	c-0.375-1.941-2.111-1.122-2.908-2.033c1.255-0.051,2.509-0.077,3.706,0.174c1.903,0.399,3.512-0.242,5.488-1.058
	c-0.771-0.33-1.209-0.518-1.863-0.798c1.21-0.528,2.243-0.979,3.33-1.453c-0.2-0.397-0.328-0.652-0.525-1.042
	c1.498-0.311,2.883-0.598,4.268-0.886c-0.011-0.205-0.023-0.41-0.034-0.616c-1.332-0.222-2.665-0.444-3.997-0.666
	c2.2-0.325,4.403-0.209,6.528-0.561c2.146-0.355,4.215-1.174,6.485-1.839c-1.432-1.558-3.12-0.461-4.519-1.11
	c0.939-0.3,1.894-0.512,2.861-0.641c2.338-0.311,4.756-0.3,7.073-2.009c-1.403-0.497-2.633-0.932-3.863-1.367
	c0.031-0.141,0.062-0.282,0.092-0.423c2.619-0.908,5.237-1.816,7.856-2.724c0-0.16,0.001-0.319,0.002-0.479
	c-0.623-0.186-1.267-0.574-1.866-0.514c-1.156,0.116-1.887-0.199-2.21-1.334c0.381-0.355,0.763-0.71,1.416-1.318
	c-0.858-0.124-1.36-0.319-1.814-0.241c-1.928,0.33-3.846,0.724-5.76,1.129c-1.367,0.289-2.657,1.004-4.127,0.064
	c-0.406-0.259-1.367,0.215-2.006,0.501c-0.434,0.194-0.752,0.648-1.117,0.981c-1.129-1.055-2.196-1.016-3.213,0.304
	c-0.901,1.169-1.608,2.491-2.369,3.765c-0.763,1.277-1.488,2.578-2.229,3.869c0.665-1.735,1.448-3.395,2.072-5.111
	c0.187-0.513,0.148-1.406-0.179-1.734c-0.405-0.406-3.386,0.863-3.767,1.453c-0.274,0.425-0.518,0.869-0.562,0.943
	c-0.848,0.032-1.532-0.144-1.92,0.118c-0.668,0.451-1.363,1.084-1.675,1.801c-1.033,2.378-1.88,4.836-2.846,7.245
	c-0.204,0.507-0.611,0.933-0.925,1.397c-0.123-0.08-0.245-0.16-0.368-0.24c0.938-2.765,1.877-5.53,2.833-8.349
	c-2.514-0.604-2.699,1.809-4.136,2.487c-1.208,0.571-1.908,2.22-2.862,3.43c-1.523-0.767-1.842-0.477-3.181,3.173
	c-2.63-0.019-2.701,2.329-3.483,3.878c-0.333-0.265-0.829-0.693-0.85-0.671c-0.796,0.838-1.548,1.718-2.236,2.512
	c-0.021-0.629-1.106-1.408-0.101-2.367c0.647-0.617,1.362-1.176,1.373-2.228c0.005-0.496,0.245-0.99,0.379-1.485
	c-0.654,0.02-1.366-0.118-1.949,0.096c-0.839,0.308-1.585,0.872-2.371,1.327c0.273-0.562,0.753-0.83,1.137-1.198
	c0.56-0.537,1.335-1.07,1.516-1.741c0.482-1.792,0.697-3.656,1.062-5.742c-1.164,0.058-2.266,0.113-3.367,0.168
	c1.351-1.045,3.255-1.359,3.84-3.562c-0.939-0.012-1.68-0.022-2.39-0.031c1.246-1.709,2.486-3.41,3.807-5.222
	c-2.819,0.069-4.734,1.932-6.945,3.141c1.631-1.472,3.225-2.989,5.059-4.116c1.323-0.813,2.444-1.507,3.191-3.014
	c0.64-1.291-0.143-1.147-0.804-1.366c1.666-1.489,2.595-3.558,1.864-4.039c0.901-1.914,3.234-2.771,3.461-5.297
	c0.18-2.005,2.803-3.4,1.58-6.277c1.156-0.065,2.169-0.201,3.174-0.157c1.201,0.052,1.781-0.784,1.939-1.622
	c0.071-0.374-0.926-1.042-1.535-1.419c-0.361-0.224-0.911-0.143-1.376-0.199c0.619-0.62,1.246-1.009,1.917-1.297
	c1.028-0.442,2.169-0.682,3.102-1.263c0.564-0.351,0.825-1.187,1.223-1.805c-0.638-0.049-1.329-0.279-1.904-0.112
	c-1.819,0.53-3.594,1.209-5.422,1.843c0.169-1.839-0.042-2.002-1.771-1.537c-0.242,0.065-0.538-0.063-0.776,0.009
	c-0.621,0.189-1.435,0.264-1.794,0.697c-1.16,1.401-2.149,2.943-3.192,4.414c-1.609-0.327-2.351,0.175-2.554,1.856
	c-0.152,1.255-0.136,2.531-0.194,3.797c-0.225-0.404-0.186-0.83-0.304-1.207c-0.119-0.382-0.393-0.714-0.6-1.069
	c-0.352,0.278-0.944,0.508-1.011,0.843c-0.217,1.082-0.273,2.201-0.327,3.308c-0.041,0.85,0.014,1.704,0.027,2.556
	c-0.408-0.668-0.465-1.358-0.622-2.026c-0.076-0.324-0.301-0.82-0.523-0.857c-0.357-0.059-0.948,0.081-1.115,0.344
	c-0.3,0.474-0.499,1.102-0.493,1.663c0.017,1.58,0.201,3.157,0.232,4.737c0.011,0.551-0.232,1.108-0.358,1.662
	c-0.12-0.008-0.24-0.015-0.361-0.022c-0.063-0.436-0.129-0.872-0.19-1.309c-0.142-1.016-0.229-2.043-0.451-3.041
	c-0.072-0.325-0.519-0.819-0.752-0.796c-0.362,0.035-0.891,0.385-0.988,0.709c-0.194,0.649-0.253,1.384-0.175,2.061
	c0.226,1.942,0.582,3.868,0.815,5.809c0.075,0.628-0.073,1.282-0.119,1.924c-0.76-1.234-1.113-2.447-1.612-3.597
	c-0.197-0.455-0.716-0.769-1.088-1.147c-0.3,0.491-0.915,1.029-0.849,1.464c0.378,2.477,0.977,4.92,1.376,7.394
	c0.172,1.064,0.044,2.176,0.053,3.266c-0.159,0.002-0.317,0.004-0.476,0.006c-0.068-0.45-0.119-0.903-0.207-1.349
	c-0.308-1.554-0.585-3.116-0.981-4.647c-0.086-0.334-0.662-0.812-0.931-0.764c-0.402,0.072-0.916,0.486-1.05,0.87
	c-0.188,0.538-0.135,1.19-0.068,1.78c0.119,1.058,0.326,2.105,0.516,3.28c-1.497-0.14-1.687,0.871-1.772,1.862
	c-0.071,0.83,0.032,1.674,0.041,2.512c0.004,0.321,0.068,0.86-0.076,0.929c-1.297,0.632-0.913,1.785-0.783,2.721
	c0.416,2.996,0.974,5.973,1.455,8.96c0.077,0.476,0.044,0.969,0.062,1.455c-0.155,0.009-0.31,0.019-0.465,0.029
	c-0.276-1.797-0.553-3.594-0.853-5.548c-0.68,0.271-1.129,0.449-1.573,0.626c-1.206-3.021-1.206-3.021-2.915-2.247
	c-0.732-2.474-1.522-4.939-2.172-7.44c-0.288-1.11-0.547-1.934-1.798-1.251c-0.539-0.948-0.822-2.113-1.538-2.523
	c-0.732-0.42-0.915-0.912-1.152-1.531c-0.166-0.434-0.244-0.962-0.545-1.267c-0.361-0.365-0.917-0.536-1.388-0.791
	c-0.029,0.495-0.215,1.047-0.062,1.476c1.215,3.394,1.487,6.928,1.594,10.517c-0.436-0.692-0.704-1.433-0.871-2.196
	c-0.743-3.405-1.426-6.823-2.221-10.215c-0.092-0.394-0.745-0.657-1.139-0.98c-0.104,0.465-0.268,0.927-0.29,1.396
	c-0.015,0.306,0.167,0.624,0.273,0.933c0.437,1.27,0.879,2.538,1.319,3.807c-0.151,0.051-0.302,0.102-0.453,0.153
	c-0.511-1.473-0.937-2.983-1.554-4.41c-0.781-1.807-0.343-4.238-2.639-5.298c-0.086-0.04-0.049-0.305-0.14-0.379
	c-0.36-0.294-0.748-0.555-1.125-0.828c-0.178,0.467-0.56,0.965-0.494,1.394c0.163,1.055,0.533,2.079,0.819,3.115
	c-0.125,0.067-0.25,0.134-0.375,0.201c-0.396-0.671-0.875-1.308-1.172-2.02c-0.68-1.631-1.224-3.319-1.937-4.934
	c-0.137-0.309-0.798-0.386-1.217-0.57c-0.138,0.429-0.356,0.852-0.386,1.287c-0.022,0.319,0.201,0.656,0.349,1.083
	c-4.79-2.303-4.79-2.303-5.69-1.292c1.677,2.165,3.35,4.326,5.06,6.534c-1.091,0.032-1.988-0.051-2.829,0.13
	c-0.421,0.091-0.825,0.619-1.049,1.047c-0.068,0.129,0.439,0.691,0.78,0.878c1.579,0.87,3.191,1.677,4.792,2.507
	c-0.037,0.116-0.074,0.233-0.111,0.349c-0.661-0.125-1.335-0.394-1.977-0.332c-0.572,0.055-1.108,0.477-1.66,0.737
	c0.291,0.412,0.498,0.954,0.892,1.204c0.565,0.357,1.265,0.501,1.961,0.756c-1.47,1.977-1.435,2.143,0.47,2.968
	c-0.838,0.956-0.266,1.621,0.537,2.159c-1.458,2.118-1.363,2.318,1.2,2.96c0.384,0.096,0.829,0.238,1.08,0.511
	c0.457,0.5,0.79,1.113,1.203,1.722c-1.074,0.963-1.317,1.73-0.421,2.249c0.905,0.525,1.968,0.778,3.119,1.21
	c-0.424,0.369-0.877,1.022-1.142,0.953c-1.881-0.49-1.388,0.674-1.259,1.739c-0.714-0.573-1.277-1.223-1.911-1.792
	c-0.304-0.273-0.743-0.397-1.121-0.589c-0.14,0.441-0.425,0.895-0.386,1.319c0.054,0.578,0.356,1.133,0.552,1.698
	c-0.848-0.695-1.472-1.534-2.111-2.36c-0.801-1.035-1.671-1.834-2.911-0.676c-0.648-0.635-1.16-1.261-1.798-1.705
	c-0.294-0.205-0.837-0.054-1.267-0.064c0.042,0.404-0.041,0.883,0.149,1.199c0.816,1.358,1.777,2.63,2.562,4.004
	c0.995,1.743,1.87,3.554,2.797,5.336c-0.136,0.098-0.272,0.196-0.407,0.294c-0.336-0.246-0.802-0.419-0.988-0.749
	c-1.275-2.268-2.446-4.596-3.743-6.851c-0.993-1.727-1.918-3.565-3.868-4.459c-0.413-0.19-0.997-0.316-1.379-0.163
	c-0.314,0.125-0.446,0.707-0.722,1.199c-0.454-0.273-1.009-0.723-1.644-0.942c-0.399-0.137-0.979-0.034-1.353,0.181
	c-0.146,0.084-0.055,0.817,0.116,1.162c0.222,0.447,0.646,0.791,0.958,1.197c1.4,1.824,2.792,3.654,4.187,5.482
	c-0.098,0.105-0.196,0.21-0.293,0.316c-0.098-0.096-0.223-0.176-0.291-0.291c-2.078-3.522-4.924-6.181-8.672-7.884
	c-0.954-0.434-1.789-0.925-2.766,0.048c0.476,0.425,0.881,0.785,1.285,1.145c-0.035,0.152-0.071,0.303-0.106,0.455
	c-0.511-0.08-1.039-0.104-1.53-0.25c-1.227-0.365-2.272-1.545-3.764-0.682c-0.44,0.255-1.054,0.283-1.588,0.281
	c-0.776-0.003-1.808-0.472-2.271-0.127c-0.813,0.607-1.34,0.092-2.016,0.061c-1.006-0.047-2.025,0.17-3.035,0.299
	c-0.075,0.009-0.124,0.216-0.207,0.374c0.267,0.279,0.518,0.541,0.769,0.803c-1.047,0.203-2.134,0.296-3.126,0.653
	c-0.512,0.184-0.856,0.835-1.276,1.275c0.454,0.265,0.879,0.657,1.369,0.771c1.202,0.281,2.435,0.434,3.869,0.675
	c-0.628,0.667-1.039,1.104-1.488,1.582c1.7-0.184,3.23-0.35,5.106-0.553c-1.063,0.979-1.905,1.681-2.641,2.482
	c-0.192,0.209-0.15,0.762-0.021,1.077c0.057,0.139,0.633,0.179,0.919,0.089c1.441-0.451,2.895-1.378,4.141,0.386
	c0.088,0.125,0.431,0.104,0.653,0.096c1.671-0.06,3.341-0.135,5.313-0.218c-1.699,1.281-4.116,1.254-4.536,3.893
	c2.981-0.413,5.794-0.803,8.607-1.193c0.05,0.109,0.099,0.219,0.149,0.329c-0.526,0.321-1.098,0.587-1.564,0.979
	c-0.376,0.315-0.625,0.781-0.931,1.18c0.458,0.079,0.948,0.303,1.369,0.212c1.638-0.353,3.254-0.809,4.88-1.217
	c0.115-0.029,0.252,0.027,0.401,0.046c-0.044,0.42-0.085,0.805-0.136,1.281c0.653-0.057,1.197-0.104,1.945-0.169
	c-0.586,0.384-1.091,0.558-1.327,0.912c-0.273,0.41-0.31,0.978-0.449,1.477c0.422,0.089,0.869,0.31,1.262,0.237
	c0.631-0.118,1.235-0.409,1.835-0.664c0.869-0.37,1.723-0.773,2.824-1.27c-0.628,1.04-1.081,1.79-1.574,2.606
	c0.77,0.216,1.145,0.361,1.534,0.421c0.787,0.122,1.579,0.25,2.372,0.278c0.868,0.03,1.74-0.05,2.582-0.082
	c-0.275,0.905-0.441,1.455-0.608,2.005c0.561,0.013,1.123,0.047,1.683,0.029c0.317-0.01,0.631-0.106,1.036-0.18
	c-2.027,2.219-2.027,2.219-1.803,3.199c1.203-0.616,2.385-1.22,3.638-1.862c-0.02,0.578-0.035,1.008-0.051,1.47
	c0.809,0.128,1.511,0.239,2.578,0.408c-1.853,0.108-3.358,0.034-4.787,0.328c-1.188,0.245-2.703,0.626-3.317,1.486
	c-0.751,1.052-1.586,1.131-2.576,1.425c-1.51,0.449-3.218,0.711-3.791,2.608c-0.069,0.227-0.471,0.392-0.751,0.512
	c-0.816,0.347-1.692,0.576-2.461,1.003c-0.708,0.394-1.315,0.972-1.948,1.492c-0.305,0.25-0.522,0.648-0.859,0.813
	c-1.301,0.637-2.494,1.357-3.288,2.952c1.85-0.926,3.47-1.468,5.328-1.022c-0.419,0.514-0.873,0.958-1.415,1.212
	c-1.929,0.905-3.941,1.647-5.81,2.656c-0.82,0.442-1.372,1.379-2.045,2.092c0.104,0.094,0.207,0.188,0.311,0.282
	c1.852-0.895,3.703-1.791,5.475-2.648c-2.383,1.657-4.801,3.333-7.21,5.022c-0.264,0.185-0.594,0.404-0.686,0.677
	c-0.136,0.404-0.087,0.871-0.117,1.31c0.382,0.017,0.779,0.108,1.14,0.029c0.371-0.081,0.706-0.328,1.338-0.642
	c-0.65,1.209-1.181,2.125-1.642,3.073c-0.474,0.975-1.031,1.965-0.255,3.511c0.864-1.146,1.567-2.079,2.318-3.074
	c-0.434,1.482-0.896,2.846-1.201,4.243c-0.086,0.392,0.292,0.885,0.457,1.332c0.294-0.298,0.663-0.553,0.866-0.903
	c0.322-0.555,0.544-1.686,0.789-1.68c1.384,0.03,1.01-1.073,1.314-1.726c0.598-1.289,1.194-2.58,1.791-3.87
	c0.104,0.051,0.208,0.102,0.312,0.153c-0.258,0.891-0.519,1.78-0.773,2.672c-0.479,1.683-0.477,1.684,0.625,2.245
	c0.435-1.176,0.865-2.338,1.285-3.472c0.187,0.645,0.378,1.303,0.569,1.962c0.225,0,0.45,0.001,0.675,0.002
	c0.375-1.261,0.759-2.519,1.122-3.784c0.361-1.258,0.701-2.522,1.05-3.784c0.823,1.831-1.52,3.43,0.154,5.562
	c0.94-2.458,1.763-4.608,2.586-6.758c0.168,0.797-0.08,1.499-0.087,2.204c-0.007,0.677,0.236,1.356,0.368,2.034
	c0.159,0.002,0.317,0.003,0.476,0.005c0.331-0.89,0.662-1.78,1.092-2.938c0.035,0.437,0.023,0.575,0.06,0.698
	c0.161,0.532,0.337,1.059,0.507,1.587c0.367-0.468,0.902-0.884,1.067-1.415c0.329-1.059,0.393-2.199,0.689-3.272
	c0.195-0.709,0.605-1.358,0.918-2.034c0.104,0.056,0.208,0.112,0.312,0.168c-1.073,5.161-1.073,5.161,0.145,6.061
	c0.413-1.194,0.802-2.318,1.188-3.432c0.214,0.429,0.408,0.817,0.795,1.594c1.584-2.794,4.07-3.259,6.41-3.608
	c0.03,0.756,0.056,1.419,0.082,2.082c0.56-0.42,1.263-0.739,1.646-1.283c0.632-0.9,1.056-1.945,1.457-2.716
	c0.549-0.001,1.019,0.039,1.477-0.014c0.424-0.049,0.836-0.196,1.254-0.3c0.094,0.173,0.189,0.345,0.283,0.517
	c-1.086,1.451-2.248,2.854-3.221,4.377c-0.393,0.616-0.373,1.496-0.541,2.257c0.104,0.018,0.208,0.036,0.312,0.054
	c-0.483,0.797-0.965,1.594-1.583,2.615c0.748,0.037,1.107,0.054,1.521,0.075c-0.783,0.95-1.613,1.742-2.164,2.695
	c-0.443,0.765-1.242,1.818,0.301,2.451c-0.729,1.379-2.707,2.337-1.584,4.625c-0.538,0.908-1.859,1.807-1.308,3.847
	c0.719-0.567,1.343-0.966,1.848-1.48c0.945-0.963,1.825-1.988,2.73-2.99c0.01-0.03,0.02-0.06,0.031-0.089
	C91.596,159.333,91.661,159.278,91.727,159.222z M114.043,93.234c0.141,0.99,0.281,1.979,0.422,2.969
	c-0.194,0.012-0.388,0.024-0.582,0.036c-0.1-0.982-0.199-1.965-0.299-2.947C113.737,93.273,113.89,93.253,114.043,93.234z
	 M109.411,135.673c0.159,0.014,0.318,0.027,0.476,0.041c-0.192,1.449-0.384,2.898-0.576,4.347c-0.084-0.003-0.167-0.006-0.251-0.009
	C109.177,138.592,109.294,137.133,109.411,135.673z M107.62,152.184c-0.107-1.615-0.196-2.965-0.293-4.428
	C108.239,148.489,108.381,150.482,107.62,152.184z M106.773,104.061c0.165,2.473,0.331,4.947,0.504,7.549
	C106.326,110.39,106.098,107.518,106.773,104.061z M103.299,102.299c0.247,1.057,0.494,2.113,0.808,3.454
	c-1.375-1.083-1.154-2.278-1.189-3.405C103.045,102.331,103.172,102.315,103.299,102.299z M91.91,87.089
	c-0.076-0.853-0.152-1.706-0.227-2.559c0.217-0.012,0.435-0.024,0.652-0.036c0.022,0.855,0.043,1.709,0.065,2.564
	C92.236,87.069,92.073,87.079,91.91,87.089z M80.244,133.206c1.15-0.023,2.168-0.044,3.44-0.07
	C81.897,134.442,81.12,134.463,80.244,133.206z M89.216,110.868c0.887,1.553,1.774,3.107,2.66,4.66
	C89.743,114.649,89.804,112.585,89.216,110.868z M98.388,116.079c0.462,0.715,0.924,1.43,1.386,2.144
	c-0.124,0.086-0.248,0.171-0.372,0.256C98.37,118.161,98.257,117.203,98.388,116.079z M94.669,108.592
	c1.091,0.131,1.091,0.131,1.508,1.758c0.46,0.033,0.95,0.068,1.54,0.11c0.086,0.568,0.154,1.016,0.228,1.509
	c-0.47,0.093-0.907,0.18-1.461,0.29C95.888,111.056,95.289,109.846,94.669,108.592z M99.767,144.205
	c-2.047,1.474-4.08,2.938-6.29,4.53C94.606,146.916,97.971,144.547,99.767,144.205z"/>
<path class="st30" d="M91.727,159.222c-0.065,0.056-0.131,0.112-0.196,0.167c-0.012,0.029-0.021,0.059-0.031,0.089
	c0.021-0.023,0.042-0.047,0.063-0.07C91.617,159.346,91.672,159.284,91.727,159.222z"/>
<path class="st30" d="M136.799,112.007c-2.192,0.098-4.103,0.184-6.014,0.27c-0.027-0.162-0.055-0.324-0.082-0.486
	c0.942-0.167,1.891-0.307,2.844-0.447h-15.794v68.549c0.126,0.496,0.252,0.993,0.377,1.485c0.151-0.028,0.302-0.057,0.453-0.085
	c0.134-0.446,0.269-0.892,0.316-1.049c1.047,1.631,2.129,3.316,3.216,5.009V155.74c-0.648-0.65-1.296-1.3-1.944-1.95
	c0.072-0.136,0.144-0.273,0.216-0.41c0.576,0.243,1.152,0.485,1.728,0.728v-2.851c-0.018-0.02-0.036-0.04-0.054-0.06
	c0.018-0.038,0.036-0.076,0.054-0.114v-35.379h9.052c-0.115-0.193-0.218-0.367-0.325-0.546
	C132.907,114.878,135.153,114.538,136.799,112.007z"/>
<path class="st30" d="M91.41,264.258c1.099-0.226,2.197-0.454,3.293-0.692c0.813-0.177,1.585-0.397,2.314-0.668
	c-1.525-4.44-2.911-8.925-4.109-13.471c-0.744,0.51-1.497,1.005-2.259,1.483c-2.692,1.689-5.226,3.534-7.495,5.635
	C86.065,258.964,88.806,261.544,91.41,264.258z"/>
<path class="st30" d="M81.349,266.634c-0.975-1.564-1.933-3.138-2.855-4.734c-0.628,0.914-1.226,1.856-1.754,2.864
	c-0.645,1.231-1.134,2.499-1.402,3.799c0.588,0.413,1.169,0.837,1.749,1.26C78.136,268.353,79.599,267.333,81.349,266.634z"/>
<path class="st30" d="M85.526,265.496c0.763-0.169,1.527-0.335,2.292-0.495c-1.831-2.536-3.7-5.049-5.581-7.57
	c-0.728,0.724-1.419,1.482-2.078,2.273c0.395,0.403,0.8,0.796,1.189,1.206C82.772,262.409,84.157,263.946,85.526,265.496z"/>
<path class="st30" d="M95.658,152.658c0.064-0.069,0.129-0.139,0.193-0.208c-0.032-0.006-0.064-0.012-0.097-0.019
	C95.723,152.507,95.689,152.582,95.658,152.658z"/>
<path class="st30" d="M100.881,260.443c0.969-1.033,1.707-2.344,2.15-4.022c0.371-1.406,1.105-2.762,3.01-3.476
	c-0.188-2.583-0.276-5.178-0.217-7.791c0.186-0.046,0.372-0.093,0.558-0.139c1.955,6.504,3.909,13.003,5.824,19.374
	c1.877-2.289,3.521-4.704,4.693-7.361c0.198-1.756,0.477-3.501,0.854-5.23v-9.517c-0.744-2.192-1.893-4.287-3.442-6.281
	c1.14,0.737,2.293,1.448,3.442,2.169v-3.536c-0.903-0.791-1.501-1.447-1.695-1.91c0.609,0.371,1.173,0.674,1.695,0.971v-25.777
	c-0.41,0.319-0.835,0.63-1.218,0.966c-0.511-1.024-1.404-2.022-1.45-3.08c-0.087-2.008,0.288-4.053,0.514-6.079
	c1.566-14.088-2.251-25.982-13.627-34.796c-0.132-0.102-0.242-0.215-0.367-0.321c-0.128,0.042-0.256,0.084-0.384,0.126
	c-0.159-0.307-0.318-0.613-0.477-0.92c-0.505-0.522-0.949-1.077-1.336-1.662c0.585,2.829,1.17,5.658,1.756,8.488
	c-0.168,0.049-0.336,0.098-0.505,0.148c-2.184-2.525-2.464-5.939-3.965-9.111c-0.267,0.798-0.461,1.378-0.59,1.764
	c2.273,2.678,2.188,5.905,3.062,8.818c-0.115,0.078-0.231,0.157-0.347,0.235c-0.371-0.277-0.742-0.555-1.206-0.902
	c0.202,1.004,0.393,1.956,0.623,3.098c-1.607-0.536-2.049-1.705-2.373-2.904c-0.324-1.198-0.528-2.428-0.785-3.645
	c-0.135,0.017-0.271,0.034-0.406,0.051c0.075,0.584,0.073,1.191,0.239,1.749c0.888,2.982,1.818,5.952,2.471,9.036
	c-2.168-1.01-1.993-3.33-3.233-4.903c0.776,2.239,1.553,4.478,2.388,6.886c-0.555-0.055-0.763-0.076-1.007-0.101
	c0.125,0.451,0.247,0.89,0.411,1.479c-0.505-0.12-0.871-0.207-1.363-0.324c0.08,0.819,0.153,1.57,0.268,2.752
	c-0.619-0.517-0.933-0.78-1.455-1.215c0.34,1.955,0.649,3.739,0.959,5.523c-0.131,0.102-0.262,0.204-0.394,0.306
	c-0.225-0.23-0.463-0.452-0.702-0.673c1.287,3.921,3.315,7.649,6.287,11.144c1.814,2.132,2.733,5.067,3.808,7.74
	c0.336,0.835-0.166,2.02-0.284,3.044c-0.988-0.402-2.434-0.527-2.875-1.261c-1.181-1.965-2.126-4.126-2.817-6.324
	c-2.395-7.618-7.01-12.913-15.101-14.859c-3.73-0.897-6.393-3.245-8.715-6.178c-1.985-2.506-4.151-4.935-6.576-7.015
	c-2.56-2.196-5.524-1.693-8.169,0.987c0.424,0.034,0.708,0.089,0.99,0.075c4.761-0.248,5.836,1.088,5.71,5.794
	c-0.075,2.766,0.116,5.801,1.217,8.237c1.979,4.377,4.709,8.408,7.168,12.558c3.327,5.613,8.677,8.934,14.184,12.085
	c1.575,0.901,3.237,1.85,3.014,4.917c-1.796-0.56-3.599-0.663-4.763-1.563c-5.219-4.032-10.348-8.188-15.326-12.506
	c-2.927-2.539-5.983-4.556-9.929-5.254c-7.4-1.307-15.197-0.977-22.179-4.621c1.266,3.244,2.6,6.327,4.24,9.235
	c4.827,8.559,11.27,15.652,19.922,20.576c5.652,3.216,11.999,4.324,18.438,5.124c1.848,0.229,3.674,0.728,5.439,1.302
	c0.736,0.24,1.287,0.998,1.922,1.521c-0.758,0.675-1.504,1.881-2.278,1.922c-2.076,0.11-4.257,0.017-6.229-0.533
	c-3.551-0.991-6.938-1.646-10.473,0.353c-0.818,0.463-2.154,0.626-2.997,0.308c-4.268-1.608-8.492-1.252-12.792,0.128
	c-6.964,2.234-12.946,6.283-18.93,10.329c-0.454,0.307-0.803,0.768-1.38,1.333c4.315-1.11,5.164-0.739,9.101,0.988
	c4.427,1.943,8.964,3.881,13.68,4.93c8.223,1.83,16.42,1.303,24.254-2.851c4.315-2.288,8.787-4.288,13.262-6.243
	c0.775-0.339,1.92,0.196,2.894,0.328c-0.277,0.872-0.29,2.049-0.883,2.56c-0.753,0.648-1.546,1.255-2.359,1.838
	c1.303,1.994,2.615,3.982,3.861,6.011C98.72,256.704,99.813,258.567,100.881,260.443z"/>
<path class="st30" d="M107.395,264.042c-0.43-2.641-0.802-5.29-1.079-7.95C105.775,258.981,105.911,261.671,107.395,264.042z"/>
<path class="st30" d="M95.025,156.406c-0.144-0.144-0.287-0.288-0.431-0.432c-0.246,0.279-0.493,0.558-0.739,0.837
	c-0.101,0.275-0.194,0.552-0.277,0.83C94.061,157.229,94.543,156.818,95.025,156.406z"/>
<path class="st30" d="M93.026,163.658c-0.13-0.078-0.261-0.155-0.391-0.232c-0.038,0.334-0.081,0.667-0.116,1.001
	C92.688,164.171,92.857,163.914,93.026,163.658z"/>
<path class="st30" d="M117.752,238.17c1.448,0.909,2.901,1.808,4.362,2.691v-2.935c-1.784-1.225-3.29-2.354-4.362-3.292V238.17z"/>
<path class="st30" d="M119.973,203.064c-0.119,1.13-0.147,2.402-0.709,3.326c-0.361,0.593-0.922,1.069-1.513,1.529v25.777
	c0.588,0.334,1.122,0.66,1.588,1.057c0.891,0.758,1.817,1.399,2.774,1.941v-42.03C120.827,197.319,120.281,200.145,119.973,203.064z
	"/>
<path class="st30" d="M118.75,248.055c-0.032-1.995-0.369-3.92-0.998-5.773v9.517C118.026,250.541,118.355,249.292,118.75,248.055z"
	/>
<path class="st30" d="M100.743,163.814c0.159,0.306,0.318,0.613,0.477,0.92c0.128-0.042,0.256-0.083,0.384-0.126
	C101.3,164.352,101.01,164.089,100.743,163.814z"/>
<path class="st30" d="M94.348,189.075c-0.31-1.784-0.62-3.568-0.959-5.523c0.521,0.435,0.836,0.698,1.455,1.215
	c-0.115-1.182-0.188-1.933-0.268-2.752c0.492,0.117,0.858,0.204,1.363,0.324c-0.164-0.589-0.286-1.028-0.411-1.479
	c0.244,0.024,0.453,0.045,1.007,0.101c-0.835-2.408-1.611-4.647-2.388-6.886c1.24,1.574,1.065,3.893,3.233,4.903
	c-0.653-3.084-1.583-6.054-2.471-9.036c-0.166-0.557-0.163-1.165-0.239-1.749c0.135-0.017,0.271-0.034,0.406-0.051
	c0.257,1.217,0.46,2.447,0.785,3.645c0.324,1.199,0.766,2.368,2.373,2.904c-0.23-1.142-0.421-2.094-0.623-3.098
	c0.464,0.347,0.835,0.624,1.206,0.902c0.116-0.078,0.231-0.157,0.347-0.235c-0.874-2.914-0.789-6.141-3.062-8.818
	c0.129-0.386,0.323-0.967,0.59-1.764c1.501,3.172,1.781,6.586,3.965,9.111c0.168-0.049,0.336-0.098,0.505-0.148
	c-0.585-2.829-1.17-5.659-1.756-8.488c-1.237-1.872-1.922-4.041-2.32-6.368c-0.182-1.065-0.357-2.132-0.535-3.197
	c-0.234-0.046-0.467-0.091-0.701-0.137c-0.064,0.069-0.128,0.139-0.193,0.208c-0.578,1.388-1.288,2.754-1.802,4.153
	c0.246-0.279,0.493-0.558,0.739-0.837c0.144,0.144,0.287,0.288,0.431,0.432c-0.482,0.412-0.964,0.823-1.446,1.235
	c-0.098,0.328-0.186,0.657-0.25,0.99c-0.308,1.587-0.513,3.189-0.694,4.796c0.13,0.078,0.261,0.155,0.391,0.232
	c-0.169,0.256-0.338,0.512-0.507,0.769c-0.189,1.789-0.357,3.582-0.587,5.365c-0.862,6.675-0.616,13.016,1.321,18.915
	c0.239,0.221,0.476,0.443,0.702,0.673C94.086,189.279,94.217,189.177,94.348,189.075z"/>
<path class="st30" d="M94.256,362.44c0.254,0.509,0.512,1.016,0.77,1.522c1.078-1.217,2.137-2.451,3.168-3.709
	c-0.434-0.678-0.905-1.329-1.411-1.954C95.951,359.685,95.11,361.066,94.256,362.44z"/>
<path class="st30" d="M92.785,247.407c-0.119,0.067-0.238,0.134-0.357,0.201c0.153,0.609,0.32,1.212,0.48,1.818
	c0.276-0.189,0.549-0.38,0.821-0.575C93.414,248.371,93.098,247.89,92.785,247.407z"/>
<path class="st30" d="M74.958,254.518c-0.096,0.087-0.191,0.175-0.287,0.262c1.192,2.423,2.477,4.79,3.823,7.119
	c0.524-0.762,1.08-1.493,1.666-2.195C78.446,257.956,76.692,256.246,74.958,254.518z"/>
<path class="st30" d="M80.541,366.043c0.252-0.21,0.503-0.421,0.755-0.631c-0.23,0.009-0.424,0.057-0.499,0.148
	C80.697,365.683,80.61,365.855,80.541,366.043z"/>
<path class="st30" d="M90.887,356.89c0.746-0.705,1.491-1.41,2.226-2.125c-0.832-0.627-1.721-1.211-2.686-1.741
	c-0.279-0.153-0.551-0.345-0.848-0.549c-0.789,0.976-1.567,1.96-2.336,2.951C88.59,355.382,89.866,355.86,90.887,356.89z"/>
<path class="st30" d="M83.155,256.545c-1.242-1.033-2.506-2.045-3.815-3.015c0.964,1.307,1.931,2.605,2.898,3.9
	C82.539,257.131,82.843,256.834,83.155,256.545z"/>
<path class="st30" d="M107.22,252.61c-0.443,0.083-0.824,0.202-1.179,0.335c0.076,1.051,0.168,2.1,0.276,3.148
	C106.53,254.959,106.84,253.797,107.22,252.61z"/>
<path class="st30" d="M97.012,350.868c3.16-3.242,6.218-6.591,9.164-10.058c-1.689,3.369-3.388,6.723-5.164,10.031
	c0.936,0.008,1.872,0.021,2.808,0.044c0.496,0.012,0.969,0.06,1.42,0.14c0.439-0.619,0.865-1.246,1.294-1.872
	c-0.034-0.024-0.065-0.049-0.099-0.073c0.053-0.004,0.106-0.009,0.158-0.013c0.205-0.299,0.417-0.595,0.619-0.896
	c2.566-3.815,4.805-7.849,7.25-11.89c-1.235,4.115-2.269,8.243-3.071,12.389c0.028-0.002,0.056-0.005,0.085-0.007
	c1.53-0.112,3.057-0.153,4.579-0.11c0.574-2.204,1.142-4.411,1.696-6.621v-87.161c-0.246,0.772-0.53,1.525-0.854,2.257
	c-0.216,1.91-0.348,3.83-0.425,5.754c-0.218,5.463-0.052,10.94-0.054,15.626c-1.371-4.56-2.782-9.255-4.214-14.019
	c-0.692,0.843-1.414,1.67-2.155,2.486c-1.165-0.88-2.025-1.83-2.654-2.834c0.803,4.925,1.803,9.827,2.746,14.739
	c-1.379-2.703-2.618-5.45-3.938-8.158c-1.302-2.67-2.628-5.331-4.052-7.936c-0.412-0.754-0.845-1.496-1.27-2.243
	c-1.042,1.111-2.354,1.896-3.864,2.455c1.649,4.801,3.449,9.555,5.323,14.287c-3.435-4.523-7.036-8.868-10.93-12.927
	c-1.197,0.246-2.394,0.492-3.591,0.743c0.599,0.83,1.2,1.66,1.789,2.497c3.319,4.723,6.445,9.581,9.656,14.38
	c-0.101,0.067-0.201,0.134-0.302,0.201c-1.888-2.425-3.754-4.868-5.67-7.27c-1.89-2.369-3.79-4.733-5.764-7.032
	c-0.659-0.768-1.332-1.523-2.002-2.281c-0.65,0.144-1.301,0.287-1.949,0.441c-0.783,0.187-1.528,0.417-2.228,0.696
	c3.076,4.934,6.368,9.737,9.646,14.553c-4.513-3.977-9.086-7.845-13.908-11.363c-0.717,1.004-1.243,2.215-1.528,3.685
	c-0.544-1.698-0.553-3.346-0.222-4.945c-3.065-2.149-6.236-4.149-9.573-5.921c-0.099,0.108-0.197,0.216-0.296,0.324
	c3.933,4.212,7.866,8.423,11.8,12.634c-0.065,0.074-0.13,0.147-0.195,0.221c-4.682-3.972-9.365-7.944-14.303-12.132
	c0.206,0.507,0.269,0.723,0.375,0.916c3.779,6.834,9.102,12.426,14.37,18.139c-6.719-4.281-13.437-8.561-20.156-12.842
	c4.764,6.323,10.874,11.185,16.937,16.129c-6.923-3.228-13.846-6.456-20.769-9.683c-0.073,0.139-0.147,0.279-0.22,0.418
	c5.786,4.885,12.236,8.826,18.737,12.862c-7.558-2.256-14.992-4.475-22.425-6.694c-0.093,0.237-0.185,0.475-0.278,0.713
	c6.901,3.425,13.802,6.85,20.833,10.339c-2.567-0.629-4.982-1.256-7.414-1.807c-2.39-0.542-4.79-1.04-7.198-1.497
	c-2.398-0.456-4.81-0.837-7.216-1.252c9.763,5.719,20.448,9.044,31.031,12.773c-5.301-0.778-10.497-1.789-15.741-2.242
	c-5.204-0.45-10.457-0.339-16.093-0.485c10.261,4.2,20.668,6.442,31.043,8.877c-9.971-0.782-19.915-0.476-29.87,0.324
	c4.908,1.897,10.002,3.013,15.169,3.775c5.117,0.754,10.259,1.348,15.345,2.006c-9.932,0.677-19.906,1.357-29.88,2.037
	c0.002,0.138,0.005,0.276,0.007,0.414c11.895,4.252,24.225,4.919,36.74,4.372c-12.072,2.68-23.657,6.604-34.292,13.132
	c11.748-2.341,23.497-4.681,35.245-7.021c-10.562,4.422-19.93,10.74-28.462,18.409c7.7-3.01,15.4-6.02,23.1-9.029
	c0.077,0.104,0.154,0.208,0.231,0.313c-6.299,4.438-11.603,9.898-16.448,15.903c10.344-5.89,20.688-11.78,31.032-17.67
	c-8.493,7.566-15.847,16.154-22.699,25.19c0.086,0.102,0.172,0.204,0.259,0.307c7.895-6.095,15.789-12.19,23.684-18.285
	c-2.542,3.148-5.162,6.238-7.714,9.378c1.638-0.762,3.366-0.903,5.067-0.977C95.738,350.902,96.375,350.884,97.012,350.868z"/>
<path class="st30" d="M110.702,352.655c-0.084,0.541-0.169,1.081-0.245,1.622c0.523,0.671,0.987,1.422,1.4,2.239
	c0.537,1.06,0.975,2.151,1.359,3.259c0.262-1.09,0.529-2.18,0.801-3.268C113.027,355.151,111.924,353.866,110.702,352.655z"/>
<path class="st30" d="M118.75,248.055c0.021,1.32-0.084,2.668-0.331,4.05c-0.164,0.918-0.393,1.804-0.667,2.666v87.161
	c0.113-0.451,0.23-0.901,0.342-1.353c-0.185,2.706-0.259,5.397-0.244,8.071c1.43,0.108,2.852,0.301,4.265,0.595V276.83
	c-0.957-10.082-1.914-20.163-2.872-30.244C119.063,247.073,118.907,247.564,118.75,248.055z"/>
<path class="st30" d="M83.577,265.937c0.648-0.154,1.299-0.297,1.949-0.441c-1.37-1.551-2.755-3.087-4.178-4.587
	c-0.388-0.409-0.793-0.803-1.189-1.206c-0.586,0.702-1.142,1.433-1.666,2.195c0.922,1.596,1.88,3.17,2.855,4.734
	C82.049,266.354,82.794,266.124,83.577,265.937z"/>
<path class="st30" d="M100.881,260.443c-1.068-1.876-2.161-3.74-3.291-5.579c-1.246-2.029-2.558-4.017-3.861-6.011
	c-0.271,0.195-0.545,0.386-0.821,0.575c1.198,4.546,2.583,9.031,4.109,13.471C98.527,262.339,99.839,261.554,100.881,260.443z"/>
<path class="st30" d="M105.823,245.154c-0.059,2.613,0.029,5.208,0.217,7.791c0.355-0.133,0.736-0.251,1.179-0.335
	c-0.38,1.187-0.69,2.349-0.903,3.482c0.277,2.66,0.648,5.308,1.079,7.95c0.629,1.004,1.489,1.953,2.654,2.834
	c0.741-0.816,1.464-1.643,2.155-2.486c-1.915-6.371-3.869-12.87-5.824-19.374C106.195,245.061,106.009,245.108,105.823,245.154z"/>
<path class="st30" d="M116.898,257.029c0.323-0.733,0.608-1.485,0.854-2.257v-2.972
	C117.375,253.528,117.096,255.273,116.898,257.029z"/>
<path class="st30" d="M75.559,273.508c0.285-1.469,0.811-2.68,1.528-3.685c-0.581-0.423-1.161-0.848-1.749-1.26
	C75.006,270.162,75.015,271.81,75.559,273.508z"/>
<path class="st30" d="M91.41,264.258c-2.604-2.714-5.345-5.294-8.255-7.713c-0.312,0.289-0.616,0.586-0.917,0.886
	c1.881,2.522,3.751,5.035,5.581,7.57C89.015,264.751,90.212,264.504,91.41,264.258z"/>
<path class="st30" d="M117.752,254.771c0.274-0.863,0.503-1.748,0.667-2.666c0.247-1.382,0.352-2.73,0.331-4.05
	c-0.395,1.237-0.724,2.486-0.998,3.744V254.771z"/>
<path class="st30" d="M117.752,408.974c-0.833-0.301-1.016-1.017-0.355-1.884c0.113-0.148,0.233-0.287,0.355-0.42v-30.338
	c-0.147-0.236-0.282-0.508-0.387-0.836c-0.786-2.436-1.389-4.935-1.977-7.429c-0.656-2.785-1.236-5.595-2.171-8.292
	c-1.369,5.706-2.567,11.447-3.296,17.295c-0.766-7.698-0.518-15.282,0.537-22.793c-1.316-1.688-3.007-2.86-5.217-3.251
	c-2.056,2.901-4.216,5.733-6.443,8.501c-0.197,0.245-0.404,0.482-0.604,0.726c1.525,2.378,2.622,5.069,3.379,8.006
	c0.212,0.824,0.64,1.811-0.328,2.417c-0.986,0.618-1.871,0.045-2.615-0.606c-0.532-0.466-1.074-0.987-1.41-1.594
	c-0.688-1.246-1.199-2.588-1.859-3.851c-0.114-0.219-0.223-0.443-0.336-0.663c-1.779,2.007-3.599,3.976-5.418,5.93
	c1.537-2.492,3.103-4.966,4.648-7.452c-0.835-1.676-1.682-3.346-2.763-4.845c-0.188-0.262-0.394-0.491-0.606-0.705
	c-3.106,2.932-6.305,5.77-9.591,8.522c0.405-0.017,0.924,0.084,1.13,0.284c1.581,1.539,3.064,3.184,4.513,4.85
	c0.3,0.345,0.312,0.941,0.4,1.235c0.014,1.19-0.566,1.748-1.522,1.484c-0.619-0.171-1.318-0.494-1.706-0.972
	c-1.287-1.584-2.519-3.226-3.608-4.949c-0.181-0.286-0.128-0.848,0.038-1.302c-0.373,0.31-0.74,0.626-1.116,0.934
	c2.281-4.093,4.97-7.881,7.817-11.551c-0.872,0.028-1.771,0.263-2.65,0.727c-1.399,0.738-2.664,1.757-3.916,2.743
	c-1.748,1.377-3.332,2.981-5.159,4.237c-2.746,1.888-5.776,3.119-9.224,2.919c-0.598-0.035-1.202,0.013-1.86,0.024
	c0.612,1.263,1.198,2.289,1.619,3.378c1.228,3.171,1.199,6.516,1.274,9.848c0.075,3.327,0.024,6.672,0.355,9.976
	c0.618,6.171,3.963,9.581,10.127,10.145c2.945,0.269,5.954-0.106,8.931-0.251c2.477-0.121,4.948-0.435,7.423-0.455
	c1.079-0.009,2.567,0.206,2.79,1.496c0.214,1.238-1.117,1.765-2.088,2.23c-5.065,2.427-10.341,2.916-15.733,1.38
	c-2.52-0.718-4.956-1.735-7.429-2.617c3.656,5.352,7.492,10.609,11.453,15.771c0.648,0.844,1.769,1.565,2.8,1.817
	c1.413,0.345,2.265,1.151,3.032,2.225c0.318,0.446,0.634,0.898,0.998,1.305c2.58,2.881,5.007,5.925,7.807,8.574
	c2.723,2.575,6.123,3.185,9.61,1.505c2.3-1.108,4.651-2.254,6.649-3.808c2.418-1.881,4.579-4.091,6.831-6.189h-3.129V408.974z
	 M82.758,386.184c-4.684,0.601-8.695-0.957-12.213-3.954c-0.432-0.368-0.685-0.945-1.021-1.425c0.091-0.13,0.182-0.26,0.272-0.391
	c0.522,0.15,1.074,0.233,1.56,0.458c3.513,1.632,7.108,2.848,11.07,2.376c0.083-0.01,0.168-0.009,0.252-0.004
	c1.226,0.071,2.295,0.758,2.184,1.503C84.688,385.917,83.668,386.068,82.758,386.184z M107.343,396.516
	c0.192,0.394-0.081,1.338-0.462,1.623c-0.937,0.701-2.054,1.162-3.191,1.769c-0.785-0.495-1.738-0.772-1.888-1.284
	c-0.139-0.476,0.431-1.445,0.953-1.765c0.899-0.551,1.982-0.894,3.031-1.065C106.28,395.712,107.14,396.1,107.343,396.516z
	 M102.401,377.169c0.415-0.181,1.29,0.093,1.63,0.469c0.646,0.713,1.237,1.591,1.486,2.501c0.133,0.488-0.351,1.377-0.823,1.72
	c-0.338,0.246-1.36,0.097-1.65-0.242c-0.676-0.79-1.094-1.8-1.64-2.763C101.791,378.148,101.965,377.359,102.401,377.169z
	 M110.39,414.341c-2.086,1.048-4.138,2.317-6.361,2.895c-2.414,0.628-5.005,0.575-7.519,0.82c-0.014-0.125-0.029-0.25-0.043-0.374
	c2.214-1.145,4.43-2.287,6.643-3.437c1.566-0.814,3.12-1.648,4.693-2.449c0.406-0.207,0.849-0.367,1.294-0.464
	c0.931-0.203,1.681,0.11,2.079,0.994C111.579,413.224,111.152,413.958,110.39,414.341z"/>
<path class="st30" d="M96.782,358.299c0.543-0.906,1.087-1.812,1.614-2.727c0.899-1.561,1.764-3.142,2.616-4.73
	c-1.334-0.011-2.667-0.005-4,0.027c-1.283,1.316-2.583,2.615-3.9,3.896C94.509,355.816,95.728,356.998,96.782,358.299z"/>
<path class="st30" d="M111.393,348.671c-1.601,0.118-3.199,0.263-4.799,0.397c-0.02,0.029-0.04,0.057-0.06,0.086
	c1.523,1.084,2.907,2.253,4.167,3.501C110.909,351.326,111.136,349.997,111.393,348.671z"/>
<path class="st30" d="M117.752,363.106v-14.463c-0.564-0.041-1.129-0.072-1.696-0.089c-0.689,2.65-1.374,5.3-2.038,7.954
	C115.507,358.549,116.743,360.753,117.752,363.106z"/>
<path class="st30" d="M124.273,423.471c-2.344,5.048-6.14,8.51-11.509,10.073c-2.351,0.684-4.785,1.085-7.289,1.64
	c0.395,0.226,0.726,0.469,1.094,0.618c2.453,0.995,4.867,2.122,7.383,2.923c6.971,2.217,14.06,3.083,21.288,1.293
	c3.868-0.958,7.12-2.958,9.234-6.345c2.176-3.486,2.939-7.295,2.616-11.267h-22.33C124.623,422.773,124.427,423.139,124.273,423.471
	z M134.973,425.002c0.105-0.13,0.362-0.138,0.704-0.256c0.577,2.205,0.771,4.205-0.764,5.943c-0.294,0.333-0.996,0.733-1.221,0.603
	c-0.383-0.222-0.755-0.843-0.749-1.291C132.971,428.098,133.792,426.461,134.973,425.002z"/>
<path class="st30" d="M89.308,352.29c0.098,0.065,0.18,0.123,0.27,0.184c0.153-0.189,0.303-0.379,0.456-0.568
	C89.79,352.02,89.548,352.146,89.308,352.29z"/>
<path class="st30" d="M117.752,363.106c0.65,1.517,1.212,3.093,1.681,4.731c0.655,2.29,1.054,4.667,1.367,7.031
	c0.084,0.638-0.407,1.585-0.939,2.017c-0.719,0.585-1.541,0.359-2.109-0.552v30.338c0.971-1.063,2.205-1.662,3.455-1.845
	c0.394-0.015,0.687,0.031,0.907,0.124v-15.442c-0.241,0.609-0.614,1.159-1.147,1.542c-0.928,0.668-1.771,0.428-2.18-0.663
	c-0.174-0.464-0.235-0.97-0.428-1.804c0.326-0.867,0.645-2.033,1.195-3.077c0.428-0.813,1.159-0.839,1.862-0.137
	c0.312,0.312,0.532,0.693,0.698,1.099v-35.145c-0.036,0.795-0.077,1.59-0.108,2.385c-0.285,7.155-0.392,14.317-0.56,20.822
	c-2.376-8.186-3.546-16.921-3.596-25.879c-0.032-0.003-0.065-0.006-0.097-0.008V363.106z"/>
<path class="st30" d="M146.333,418.043h-24.219v-11.052c-0.864,1.118-2.739,2.24-3.808,2.115c-0.212-0.025-0.391-0.073-0.554-0.132
	v13.431h3.129c0.275-0.257,0.547-0.518,0.826-0.771c0.74-0.669,1.52-1.862,2.651-1.043c0.7,0.506,0.644,1.165,0.402,1.814h22.33
	c-0.064-0.78-0.154-1.565-0.3-2.356C146.677,419.437,146.52,418.824,146.333,418.043z"/>
<path class="st30" d="M152.467,422.405h5.69c-1.788-1.454-3.578-2.909-5.365-4.362h-5.894
	C148.859,419.579,150.679,421.006,152.467,422.405z"/>
<path class="st30" d="M110.457,354.278c-1.054,7.512-1.302,15.096-0.537,22.793c0.728-5.848,1.927-11.589,3.296-17.295
	c-0.384-1.108-0.822-2.199-1.359-3.259C111.444,355.7,110.98,354.948,110.457,354.278z"/>
<path class="st30" d="M93.113,354.765c1.317-1.281,2.617-2.58,3.9-3.896c-0.637,0.015-1.275,0.034-1.911,0.061
	c-1.701,0.074-3.428,0.215-5.067,0.977c-0.153,0.189-0.304,0.379-0.456,0.568c0.297,0.204,0.569,0.396,0.848,0.549
	C91.391,353.553,92.28,354.138,93.113,354.765z"/>
<path class="st30" d="M80.541,366.043c0.069-0.188,0.155-0.36,0.256-0.483c0.075-0.091,0.269-0.139,0.499-0.148
	c3.286-2.752,6.485-5.59,9.591-8.522c-1.021-1.03-2.297-1.508-3.645-1.464c-2.847,3.67-5.536,7.458-7.817,11.551
	C79.801,366.669,80.168,366.353,80.541,366.043z"/>
<path class="st30" d="M89.607,369.892c1.819-1.954,3.639-3.923,5.418-5.93c-0.257-0.506-0.516-1.013-0.77-1.522
	C92.71,364.926,91.144,367.401,89.607,369.892z"/>
<path class="st30" d="M122.207,349.266c-0.031-0.006-0.062-0.014-0.093-0.02v2.077C122.144,350.637,122.174,349.951,122.207,349.266
	z"/>
<path class="st30" d="M114.018,356.508c0.665-2.654,1.349-5.304,2.038-7.954c-1.521-0.043-3.049-0.001-4.579,0.11
	c-0.028,0.002-0.056,0.005-0.085,0.007c-0.256,1.326-0.483,2.654-0.691,3.984C111.924,353.866,113.027,355.151,114.018,356.508z"/>
<path class="st30" d="M101.012,350.842c-0.852,1.588-1.717,3.169-2.616,4.73c-0.527,0.915-1.071,1.821-1.614,2.727
	c0.507,0.625,0.977,1.277,1.411,1.954c0.2-0.244,0.407-0.481,0.604-0.726c2.227-2.768,4.387-5.6,6.443-8.501
	c-0.452-0.08-0.924-0.128-1.42-0.14C102.885,350.863,101.949,350.85,101.012,350.842z"/>
<path class="st30" d="M106.435,349.081c0.034,0.024,0.065,0.049,0.099,0.073c0.02-0.029,0.04-0.057,0.06-0.086
	C106.541,349.072,106.488,349.076,106.435,349.081z"/>
<path class="st30" d="M121.445,374.53c0.168-6.505,0.275-13.667,0.56-20.822c0.032-0.795,0.073-1.59,0.108-2.385v-2.077
	c-1.413-0.293-2.835-0.487-4.265-0.595C117.899,357.61,119.069,366.344,121.445,374.53z"/>
</svg>
