<?xml version="1.0" encoding="utf-8"?>
<!-- Generator: Adobe Illustrator 21.1.0, SVG Export Plug-In . SVG Version: 6.00 Build 0)  -->
<svg version="1.1" id="Capa_1" xmlns="http://www.w3.org/2000/svg" xmlns:xlink="http://www.w3.org/1999/xlink" x="0px" y="0px"
	 viewBox="0 0 1613.001 654.121" style="enable-background:new 0 0 1613.001 654.121;" preserveAspectRatio="xMaxYMin" xml:space="preserve">
<style type="text/css">
	.st0{fill:#F9EEE8;}
	.st1{fill:#FFFFFF;}
	.st2{opacity:0.7;fill:#3B2011;}
	.st3{opacity:0.7;}
	.st4{fill:#A35230;}
	.st5{fill:#513628;}
	.st6{fill:#9F684F;}
	.st7{fill:#C3002F;}
	.st8{fill:#DBC79D;}
	.st9{fill:#CFA175;}
	.st10{fill:#646569;}
	.st11{fill:#369040;}
	
		.st12{opacity:0.7;fill:none;stroke:#FFFFFF;stroke-width:8.2967;stroke-linecap:round;stroke-linejoin:round;stroke-miterlimit:10;}
	.st13{fill:#513528;}
	
		.st14{opacity:0.7;fill:none;stroke:#FFFFFF;stroke-width:4.8855;stroke-linecap:round;stroke-linejoin:round;stroke-miterlimit:10;}
	
		.st15{opacity:0.7;fill:none;stroke:#FFFFFF;stroke-width:4.0904;stroke-linecap:round;stroke-linejoin:round;stroke-miterlimit:10;}
	.st16{opacity:0.7;fill:none;stroke:#FFFFFF;stroke-width:2.225;stroke-linecap:round;stroke-linejoin:round;stroke-miterlimit:10;}
	.st17{fill:#DBC6B4;}
	.st18{fill:#BAA99A;}
	
		.st19{opacity:0.7;fill:none;stroke:#FFFFFF;stroke-width:9.5453;stroke-linecap:round;stroke-linejoin:round;stroke-miterlimit:10;}
	.st20{fill:none;stroke:#369040;stroke-width:5.4545;stroke-miterlimit:10;}
	.st21{fill:#2A8258;}
	.st22{fill:#F7EAE2;}
	.st23{fill:none;}
	.st24{fill:#A55330;}
	.st25{fill:none;stroke:#369040;stroke-width:3.9579;stroke-miterlimit:10;}
	.st26{fill:#010202;}
	.st27{fill:none;stroke:#010202;stroke-width:0.262;stroke-miterlimit:10;}
	.st28{fill:#C31632;}
	.st29{fill:#603726;}
	.st30{fill:none;stroke:#603726;stroke-width:1.2614;stroke-miterlimit:10;}
	.st31{fill:#81A77D;}
	.st32{fill:none;stroke:#369040;stroke-width:3.759;stroke-miterlimit:10;}
	.st33{fill:#414141;}
	.st34{opacity:0.7;fill:#D4C0AB;}
	.st35{fill:#D4C0AB;}
	.st36{opacity:0.7;fill:none;stroke:#796E63;stroke-width:5.012;stroke-linecap:round;stroke-linejoin:round;stroke-miterlimit:10;}
	.st37{opacity:0.7;fill:#796E63;}
	.st38{fill:#796E63;}
	.st39{opacity:0.7;fill:#1C0E08;}
	.st40{fill:none;stroke:#369040;stroke-width:5.7607;stroke-miterlimit:10;}
	.st41{fill:#FFFFFF;stroke:#FFFFFF;stroke-miterlimit:10;}
	.st42{fill:#369040;stroke:#369040;stroke-miterlimit:10;}
	.st43{fill:none;stroke:#369040;stroke-width:1.4402;stroke-miterlimit:10;}
	.st44{fill:#369040;stroke:#FFFFFF;stroke-width:2.9279;stroke-linecap:round;stroke-linejoin:round;stroke-miterlimit:10;}
</style>
<path class="st2" d="M1608.421,654.121h4.58V222.145c-24.642,1.292-238.89,38.778-272.498,31.022
	c-33.607-7.756-80.141,19.389-96.945,14.403c-16.804-4.986-52.359,34.22-78.848,7.571C1033.092,142.729,948.792,170.8,948.792,170.8
	s-46.478,61.686-61.989,61.686c-15.511,0-46.533,24.559-74.97,19.389s-116.333,21.974-125.382,21.974s-38.778,7.756-45.241,9.048
	c-6.463,1.292-105.993-25.852-120.211-42.656c-14.219-16.804-113.748-40.07-126.674-42.655
	c-12.926-2.585-63.337-12.926-80.141-11.634c-16.804,1.293-153.819-55.582-170.622-55.582s-87.896,14.219-99.53,14.219
	C32.398,144.59,0,165.271,0,165.271v488.85h4.58H1608.421z"/>
</svg>
