<svg id="Capa_1" data-name="Capa 1" xmlns="http://www.w3.org/2000/svg" viewBox="0 0 673.5 119.21"><defs><style>.cls-1{fill:#9f684f;}</style></defs><title>cuadro datos de la reservacion</title><path class="cls-1" d="M171.49,95.37c10.44-.22,41.76,1.56,49.79,2s69.87,4.45,78.7,7.34,70.67,7.56,74.69,7.34,22.49-1.56,28.11-1.56,60.23-4.67,77.9-3.78,36.94-3.34,46.58-3.34c8.84,0,33.87-8.93,37.95-10.41a4.47,4.47,0,0,1,1.21-.26c5.11-.37,40.44-2.38,95.48,8.83a4.57,4.57,0,0,0,5.46-4c1.12-10.36,1.29-20.76,2.07-23.58,1.74-6.24.2-11.1,2.48-16.85,1.12-2.83,2.1-9.72,1.3-13.7C671.77,36.2,665,33,661.64,29.06a4.52,4.52,0,0,0-2.9-1.56c-17.86-2.23-34.79-4.28-38.71-4.18-8.45.22-33.78-1.56-40.28-2S523.24,16.87,516.09,14s-57.17-7.56-60.41-7.34-18.19,1.56-22.74,1.56c-49.16.05-95.53,12-143.92,16.22-25.64,2.24-51-3.06-75.59-10-10.27-2.89-20.49-7.51-31.15-8.09C172.44,5.81,164,8.63,153,9.27c-8.47.49-31.83,3.81-48.72,2.48-9.35-.74-44.64.81-78.07,2.47-2.92.53-5.11,2.36-6.66,3.46-2.36,5.9-7,13.47-16.15,22.31a4.2,4.2,0,0,0-1.06,1.8l-.16.54a6.15,6.15,0,0,0,0,3.67c.8,2.39,2.47,4.5,2.47,7.08,0,5.54,3.83,10.86,2.5,16.48-.47,2,0,7.67.86,14.41a4.56,4.56,0,0,0,4.71,4c15.57-.65,44.57-2.16,52.77-2.16C75.92,85.81,161,95.59,171.49,95.37Z"/></svg>