<svg id="Capa_1" data-name="Capa 1" xmlns="http://www.w3.org/2000/svg" viewBox="0 0 1276.96 211.79"><defs><style>.cls-1{fill:#603726;}</style></defs><title>forma irregular superior reservaciones</title><path class="cls-1" d="M67.73,122.12c43.72,1,41,4.74,111.38,21.36l.58.14q6.32,1.64,12.66,3.22c62.19,16.82,99,41.39,144.66,33.36,23.21,4.91,47.27,7.36,70.19,3.43a39.2,39.2,0,0,0,14.32-3.38h0c2.34-.71,4.67-1.5,7-2.37,38.23-14.53,66.67-47,109.85-47.91,46.84-1,85.64,30.63,128.23,45.17,37.59,12.84,83.69,30.7,123.11,16.26,13.81-5.06,25.95-14.16,40-18.41,11.36-3.43,24-3.73,33.89-10.29,16.37-10.85,21.53-33.31,35.63-46.86,14.56-14,33.56-23,52.54-29.31,20-6.62,41.14-11.51,62.28-11.93,24.81-.49,47.08,14.52,72,12.34,26.65-2.33,49-21.06,75.9-22.64,19.51-1.14,38.15,7.1,56.63,13.46,14.64,5,49.12,15.29,57.5-1.68,2-4,0-14.31,0-18.77q0-21.24,0-42.48H0c-.32,40.79-.53,68.3-.53,68.3S24,121.16,67.73,122.12Z"/></svg>