<svg id="Capa_1" data-name="Capa 1" xmlns="http://www.w3.org/2000/svg" viewBox="0 0 1279.07 206.01"><defs><style>.cls-1{fill:#fff;}</style></defs><title>forma irregular superior proximos eventos</title><path class="cls-1" d="M2.68,82l96.66,26.35c19.37,5.28,39.81,9.25,58.73,16,22.27,8,40,28.32,63.41,33.17,18.35,3.81,36.31-.61,54.7-.57s33.66,6.4,51.29,10.36c66,14.83,89.26-23.45,140.9-51.05,40.25-21.51,89.94-9.15,132,8.5,44.13,18.51,90.24,31.37,136.85,41.9,40.4,9.12,87.67,28.78,127,7.39,54.81-29.78,38.8-117.93,122.54-105.82,44.53,6.44,81.25,36.25,125.31,44.23,45.21,8.19,85.15-20.52,129.43-20.34l37.53-3.28V0H2.68S-3.35,82,2.68,82Z"/></svg>