<svg id="Capa_1" data-name="Capa 1" xmlns="http://www.w3.org/2000/svg" viewBox="0 0 1272.26 203.98"><defs><style>.cls-1{fill:#603726;}</style></defs><title>forma irregular inferior proximos eventos</title><path class="cls-1" d="M0,82l68.41,18.65c25.7,7,54.42,7.28,79.12,17.56,21.89,9.11,37.19,29.56,60,36.9,20.66,6.64,43,.64,64.73,1.29,39.51,1.18,79.12,24.42,116.64,12,22.94-7.6,39.57-27.07,59.47-40.78C517.53,80,581.13,121.47,647.1,147.43c33.1,13,71,16.3,105.83,23.35,22.57,4.58,47.43,13.18,70.49,14.3,0,0,60.45,2.95,81.14-69.74s105.79-41,105.79-41,91,53.76,150.21,35.7,78.3-18,78.3-18l37.53-3.28V0H0S-6,82,0,82Z"/></svg>