<svg id="Capa_1" data-name="Capa 1" xmlns="http://www.w3.org/2000/svg" viewBox="0 0 44.19 48.58"><defs><style>.cls-1{fill:none;stroke:#9f684f;stroke-miterlimit:10;}.cls-2{fill:#9f684f;}</style></defs><title>icono calendario</title><rect class="cls-1" x="3.15" y="9.46" width="39.33" height="38.05" rx="4" ry="4"/><rect class="cls-2" x="12.25" y="1.96" width="5.67" height="9.98" rx="1.52" ry="1.52"/><rect class="cls-2" x="27.44" y="1.96" width="5.67" height="9.98" rx="1.52" ry="1.52"/><path class="cls-2" d="M7.8,9.46h30a4.64,4.64,0,0,1,4.64,4.64v7.81a0,0,0,0,1,0,0H3.15a0,0,0,0,1,0,0V14.11A4.64,4.64,0,0,1,7.8,9.46Z"/><line class="cls-1" x1="3.15" y1="29.64" x2="42.48" y2="29.64"/><line class="cls-1" x1="3.15" y1="39.09" x2="42.48" y2="39.09"/><line class="cls-1" x1="15.09" y1="8.19" x2="15.09" y2="47.52"/><line class="cls-1" x1="30.27" y1="8.19" x2="30.27" y2="47.52"/></svg>